G04 EAGLE Gerber RS-274X export*
G75*
%MOMM*%
%FSLAX34Y34*%
%LPD*%
%INSolderpaste Top*%
%IPPOS*%
%AMOC8*
5,1,8,0,0,1.08239X$1,22.5*%
G01*
%ADD10R,2.000000X1.200000*%
%ADD11R,1.350000X0.600000*%
%ADD12R,1.100000X1.000000*%
%ADD13C,0.300000*%
%ADD14R,0.500000X1.400000*%
%ADD15R,0.550000X0.350000*%


D10*
X14050Y155000D03*
X14050Y99000D03*
D11*
X50800Y142000D03*
X50800Y132000D03*
X50800Y122000D03*
X50800Y112000D03*
D10*
X239950Y99000D03*
X239950Y155000D03*
D11*
X203200Y112000D03*
X203200Y122000D03*
X203200Y132000D03*
X203200Y142000D03*
D12*
X52460Y55880D03*
X69460Y55880D03*
D13*
X66230Y68890D02*
X66230Y75890D01*
X73230Y75890D01*
X73230Y68890D01*
X66230Y68890D01*
X66230Y71740D02*
X73230Y71740D01*
X73230Y74590D02*
X66230Y74590D01*
X48690Y75890D02*
X48690Y68890D01*
X48690Y75890D02*
X55690Y75890D01*
X55690Y68890D01*
X48690Y68890D01*
X48690Y71740D02*
X55690Y71740D01*
X55690Y74590D02*
X48690Y74590D01*
D14*
X128270Y121920D03*
D15*
X119020Y126920D03*
X119020Y116920D03*
X137520Y116920D03*
X137520Y126920D03*
D12*
X136770Y172720D03*
X119770Y172720D03*
X136770Y190500D03*
X119770Y190500D03*
X119770Y143510D03*
X136770Y143510D03*
D10*
X273130Y155000D03*
X273130Y99000D03*
D11*
X309880Y142000D03*
X309880Y132000D03*
X309880Y122000D03*
X309880Y112000D03*
D10*
X499030Y99000D03*
X499030Y155000D03*
D11*
X462280Y112000D03*
X462280Y122000D03*
X462280Y132000D03*
X462280Y142000D03*
D12*
X311540Y55880D03*
X328540Y55880D03*
D13*
X325310Y68890D02*
X325310Y75890D01*
X332310Y75890D01*
X332310Y68890D01*
X325310Y68890D01*
X325310Y71740D02*
X332310Y71740D01*
X332310Y74590D02*
X325310Y74590D01*
X307770Y75890D02*
X307770Y68890D01*
X307770Y75890D02*
X314770Y75890D01*
X314770Y68890D01*
X307770Y68890D01*
X307770Y71740D02*
X314770Y71740D01*
X314770Y74590D02*
X307770Y74590D01*
D14*
X387350Y121920D03*
D15*
X378100Y126920D03*
X378100Y116920D03*
X396600Y116920D03*
X396600Y126920D03*
D12*
X395850Y172720D03*
X378850Y172720D03*
X395850Y190500D03*
X378850Y190500D03*
X378850Y143510D03*
X395850Y143510D03*
D10*
X532210Y155000D03*
X532210Y99000D03*
D11*
X568960Y142000D03*
X568960Y132000D03*
X568960Y122000D03*
X568960Y112000D03*
D10*
X758110Y99000D03*
X758110Y155000D03*
D11*
X721360Y112000D03*
X721360Y122000D03*
X721360Y132000D03*
X721360Y142000D03*
D12*
X570620Y55880D03*
X587620Y55880D03*
D13*
X584390Y68890D02*
X584390Y75890D01*
X591390Y75890D01*
X591390Y68890D01*
X584390Y68890D01*
X584390Y71740D02*
X591390Y71740D01*
X591390Y74590D02*
X584390Y74590D01*
X566850Y75890D02*
X566850Y68890D01*
X566850Y75890D02*
X573850Y75890D01*
X573850Y68890D01*
X566850Y68890D01*
X566850Y71740D02*
X573850Y71740D01*
X573850Y74590D02*
X566850Y74590D01*
D14*
X646430Y121920D03*
D15*
X637180Y126920D03*
X637180Y116920D03*
X655680Y116920D03*
X655680Y126920D03*
D12*
X654930Y172720D03*
X637930Y172720D03*
X654930Y190500D03*
X637930Y190500D03*
X637930Y143510D03*
X654930Y143510D03*
D10*
X791290Y155000D03*
X791290Y99000D03*
D11*
X828040Y142000D03*
X828040Y132000D03*
X828040Y122000D03*
X828040Y112000D03*
D10*
X1017190Y99000D03*
X1017190Y155000D03*
D11*
X980440Y112000D03*
X980440Y122000D03*
X980440Y132000D03*
X980440Y142000D03*
D12*
X829700Y55880D03*
X846700Y55880D03*
D13*
X843470Y68890D02*
X843470Y75890D01*
X850470Y75890D01*
X850470Y68890D01*
X843470Y68890D01*
X843470Y71740D02*
X850470Y71740D01*
X850470Y74590D02*
X843470Y74590D01*
X825930Y75890D02*
X825930Y68890D01*
X825930Y75890D02*
X832930Y75890D01*
X832930Y68890D01*
X825930Y68890D01*
X825930Y71740D02*
X832930Y71740D01*
X832930Y74590D02*
X825930Y74590D01*
D14*
X905510Y121920D03*
D15*
X896260Y126920D03*
X896260Y116920D03*
X914760Y116920D03*
X914760Y126920D03*
D12*
X914010Y172720D03*
X897010Y172720D03*
X914010Y190500D03*
X897010Y190500D03*
X897010Y143510D03*
X914010Y143510D03*
D10*
X1050370Y155000D03*
X1050370Y99000D03*
D11*
X1087120Y142000D03*
X1087120Y132000D03*
X1087120Y122000D03*
X1087120Y112000D03*
D10*
X1276270Y99000D03*
X1276270Y155000D03*
D11*
X1239520Y112000D03*
X1239520Y122000D03*
X1239520Y132000D03*
X1239520Y142000D03*
D12*
X1088780Y55880D03*
X1105780Y55880D03*
D13*
X1102550Y68890D02*
X1102550Y75890D01*
X1109550Y75890D01*
X1109550Y68890D01*
X1102550Y68890D01*
X1102550Y71740D02*
X1109550Y71740D01*
X1109550Y74590D02*
X1102550Y74590D01*
X1085010Y75890D02*
X1085010Y68890D01*
X1085010Y75890D02*
X1092010Y75890D01*
X1092010Y68890D01*
X1085010Y68890D01*
X1085010Y71740D02*
X1092010Y71740D01*
X1092010Y74590D02*
X1085010Y74590D01*
D14*
X1164590Y121920D03*
D15*
X1155340Y126920D03*
X1155340Y116920D03*
X1173840Y116920D03*
X1173840Y126920D03*
D12*
X1173090Y172720D03*
X1156090Y172720D03*
X1173090Y190500D03*
X1156090Y190500D03*
X1156090Y143510D03*
X1173090Y143510D03*
D10*
X14050Y414080D03*
X14050Y358080D03*
D11*
X50800Y401080D03*
X50800Y391080D03*
X50800Y381080D03*
X50800Y371080D03*
D10*
X239950Y358080D03*
X239950Y414080D03*
D11*
X203200Y371080D03*
X203200Y381080D03*
X203200Y391080D03*
X203200Y401080D03*
D12*
X52460Y314960D03*
X69460Y314960D03*
D13*
X66230Y327970D02*
X66230Y334970D01*
X73230Y334970D01*
X73230Y327970D01*
X66230Y327970D01*
X66230Y330820D02*
X73230Y330820D01*
X73230Y333670D02*
X66230Y333670D01*
X48690Y334970D02*
X48690Y327970D01*
X48690Y334970D02*
X55690Y334970D01*
X55690Y327970D01*
X48690Y327970D01*
X48690Y330820D02*
X55690Y330820D01*
X55690Y333670D02*
X48690Y333670D01*
D14*
X128270Y381000D03*
D15*
X119020Y386000D03*
X119020Y376000D03*
X137520Y376000D03*
X137520Y386000D03*
D12*
X136770Y431800D03*
X119770Y431800D03*
X136770Y449580D03*
X119770Y449580D03*
X119770Y402590D03*
X136770Y402590D03*
D10*
X273130Y414080D03*
X273130Y358080D03*
D11*
X309880Y401080D03*
X309880Y391080D03*
X309880Y381080D03*
X309880Y371080D03*
D10*
X499030Y358080D03*
X499030Y414080D03*
D11*
X462280Y371080D03*
X462280Y381080D03*
X462280Y391080D03*
X462280Y401080D03*
D12*
X311540Y314960D03*
X328540Y314960D03*
D13*
X325310Y327970D02*
X325310Y334970D01*
X332310Y334970D01*
X332310Y327970D01*
X325310Y327970D01*
X325310Y330820D02*
X332310Y330820D01*
X332310Y333670D02*
X325310Y333670D01*
X307770Y334970D02*
X307770Y327970D01*
X307770Y334970D02*
X314770Y334970D01*
X314770Y327970D01*
X307770Y327970D01*
X307770Y330820D02*
X314770Y330820D01*
X314770Y333670D02*
X307770Y333670D01*
D14*
X387350Y381000D03*
D15*
X378100Y386000D03*
X378100Y376000D03*
X396600Y376000D03*
X396600Y386000D03*
D12*
X395850Y431800D03*
X378850Y431800D03*
X395850Y449580D03*
X378850Y449580D03*
X378850Y402590D03*
X395850Y402590D03*
D10*
X532210Y414080D03*
X532210Y358080D03*
D11*
X568960Y401080D03*
X568960Y391080D03*
X568960Y381080D03*
X568960Y371080D03*
D10*
X758110Y358080D03*
X758110Y414080D03*
D11*
X721360Y371080D03*
X721360Y381080D03*
X721360Y391080D03*
X721360Y401080D03*
D12*
X570620Y314960D03*
X587620Y314960D03*
D13*
X584390Y327970D02*
X584390Y334970D01*
X591390Y334970D01*
X591390Y327970D01*
X584390Y327970D01*
X584390Y330820D02*
X591390Y330820D01*
X591390Y333670D02*
X584390Y333670D01*
X566850Y334970D02*
X566850Y327970D01*
X566850Y334970D02*
X573850Y334970D01*
X573850Y327970D01*
X566850Y327970D01*
X566850Y330820D02*
X573850Y330820D01*
X573850Y333670D02*
X566850Y333670D01*
D14*
X646430Y381000D03*
D15*
X637180Y386000D03*
X637180Y376000D03*
X655680Y376000D03*
X655680Y386000D03*
D12*
X654930Y431800D03*
X637930Y431800D03*
X654930Y449580D03*
X637930Y449580D03*
X637930Y402590D03*
X654930Y402590D03*
D10*
X791290Y414080D03*
X791290Y358080D03*
D11*
X828040Y401080D03*
X828040Y391080D03*
X828040Y381080D03*
X828040Y371080D03*
D10*
X1017190Y358080D03*
X1017190Y414080D03*
D11*
X980440Y371080D03*
X980440Y381080D03*
X980440Y391080D03*
X980440Y401080D03*
D12*
X829700Y314960D03*
X846700Y314960D03*
D13*
X843470Y327970D02*
X843470Y334970D01*
X850470Y334970D01*
X850470Y327970D01*
X843470Y327970D01*
X843470Y330820D02*
X850470Y330820D01*
X850470Y333670D02*
X843470Y333670D01*
X825930Y334970D02*
X825930Y327970D01*
X825930Y334970D02*
X832930Y334970D01*
X832930Y327970D01*
X825930Y327970D01*
X825930Y330820D02*
X832930Y330820D01*
X832930Y333670D02*
X825930Y333670D01*
D14*
X905510Y381000D03*
D15*
X896260Y386000D03*
X896260Y376000D03*
X914760Y376000D03*
X914760Y386000D03*
D12*
X914010Y431800D03*
X897010Y431800D03*
X914010Y449580D03*
X897010Y449580D03*
X897010Y402590D03*
X914010Y402590D03*
D10*
X1050370Y414080D03*
X1050370Y358080D03*
D11*
X1087120Y401080D03*
X1087120Y391080D03*
X1087120Y381080D03*
X1087120Y371080D03*
D10*
X1276270Y358080D03*
X1276270Y414080D03*
D11*
X1239520Y371080D03*
X1239520Y381080D03*
X1239520Y391080D03*
X1239520Y401080D03*
D12*
X1088780Y314960D03*
X1105780Y314960D03*
D13*
X1102550Y327970D02*
X1102550Y334970D01*
X1109550Y334970D01*
X1109550Y327970D01*
X1102550Y327970D01*
X1102550Y330820D02*
X1109550Y330820D01*
X1109550Y333670D02*
X1102550Y333670D01*
X1085010Y334970D02*
X1085010Y327970D01*
X1085010Y334970D02*
X1092010Y334970D01*
X1092010Y327970D01*
X1085010Y327970D01*
X1085010Y330820D02*
X1092010Y330820D01*
X1092010Y333670D02*
X1085010Y333670D01*
D14*
X1164590Y381000D03*
D15*
X1155340Y386000D03*
X1155340Y376000D03*
X1173840Y376000D03*
X1173840Y386000D03*
D12*
X1173090Y431800D03*
X1156090Y431800D03*
X1173090Y449580D03*
X1156090Y449580D03*
X1156090Y402590D03*
X1173090Y402590D03*
D10*
X14050Y673160D03*
X14050Y617160D03*
D11*
X50800Y660160D03*
X50800Y650160D03*
X50800Y640160D03*
X50800Y630160D03*
D10*
X239950Y617160D03*
X239950Y673160D03*
D11*
X203200Y630160D03*
X203200Y640160D03*
X203200Y650160D03*
X203200Y660160D03*
D12*
X52460Y574040D03*
X69460Y574040D03*
D13*
X66230Y587050D02*
X66230Y594050D01*
X73230Y594050D01*
X73230Y587050D01*
X66230Y587050D01*
X66230Y589900D02*
X73230Y589900D01*
X73230Y592750D02*
X66230Y592750D01*
X48690Y594050D02*
X48690Y587050D01*
X48690Y594050D02*
X55690Y594050D01*
X55690Y587050D01*
X48690Y587050D01*
X48690Y589900D02*
X55690Y589900D01*
X55690Y592750D02*
X48690Y592750D01*
D14*
X128270Y640080D03*
D15*
X119020Y645080D03*
X119020Y635080D03*
X137520Y635080D03*
X137520Y645080D03*
D12*
X136770Y690880D03*
X119770Y690880D03*
X136770Y708660D03*
X119770Y708660D03*
X119770Y661670D03*
X136770Y661670D03*
D10*
X273130Y673160D03*
X273130Y617160D03*
D11*
X309880Y660160D03*
X309880Y650160D03*
X309880Y640160D03*
X309880Y630160D03*
D10*
X499030Y617160D03*
X499030Y673160D03*
D11*
X462280Y630160D03*
X462280Y640160D03*
X462280Y650160D03*
X462280Y660160D03*
D12*
X311540Y574040D03*
X328540Y574040D03*
D13*
X325310Y587050D02*
X325310Y594050D01*
X332310Y594050D01*
X332310Y587050D01*
X325310Y587050D01*
X325310Y589900D02*
X332310Y589900D01*
X332310Y592750D02*
X325310Y592750D01*
X307770Y594050D02*
X307770Y587050D01*
X307770Y594050D02*
X314770Y594050D01*
X314770Y587050D01*
X307770Y587050D01*
X307770Y589900D02*
X314770Y589900D01*
X314770Y592750D02*
X307770Y592750D01*
D14*
X387350Y640080D03*
D15*
X378100Y645080D03*
X378100Y635080D03*
X396600Y635080D03*
X396600Y645080D03*
D12*
X395850Y690880D03*
X378850Y690880D03*
X395850Y708660D03*
X378850Y708660D03*
X378850Y661670D03*
X395850Y661670D03*
D10*
X532210Y673160D03*
X532210Y617160D03*
D11*
X568960Y660160D03*
X568960Y650160D03*
X568960Y640160D03*
X568960Y630160D03*
D10*
X758110Y617160D03*
X758110Y673160D03*
D11*
X721360Y630160D03*
X721360Y640160D03*
X721360Y650160D03*
X721360Y660160D03*
D12*
X570620Y574040D03*
X587620Y574040D03*
D13*
X584390Y587050D02*
X584390Y594050D01*
X591390Y594050D01*
X591390Y587050D01*
X584390Y587050D01*
X584390Y589900D02*
X591390Y589900D01*
X591390Y592750D02*
X584390Y592750D01*
X566850Y594050D02*
X566850Y587050D01*
X566850Y594050D02*
X573850Y594050D01*
X573850Y587050D01*
X566850Y587050D01*
X566850Y589900D02*
X573850Y589900D01*
X573850Y592750D02*
X566850Y592750D01*
D14*
X646430Y640080D03*
D15*
X637180Y645080D03*
X637180Y635080D03*
X655680Y635080D03*
X655680Y645080D03*
D12*
X654930Y690880D03*
X637930Y690880D03*
X654930Y708660D03*
X637930Y708660D03*
X637930Y661670D03*
X654930Y661670D03*
D10*
X791290Y673160D03*
X791290Y617160D03*
D11*
X828040Y660160D03*
X828040Y650160D03*
X828040Y640160D03*
X828040Y630160D03*
D10*
X1017190Y617160D03*
X1017190Y673160D03*
D11*
X980440Y630160D03*
X980440Y640160D03*
X980440Y650160D03*
X980440Y660160D03*
D12*
X829700Y574040D03*
X846700Y574040D03*
D13*
X843470Y587050D02*
X843470Y594050D01*
X850470Y594050D01*
X850470Y587050D01*
X843470Y587050D01*
X843470Y589900D02*
X850470Y589900D01*
X850470Y592750D02*
X843470Y592750D01*
X825930Y594050D02*
X825930Y587050D01*
X825930Y594050D02*
X832930Y594050D01*
X832930Y587050D01*
X825930Y587050D01*
X825930Y589900D02*
X832930Y589900D01*
X832930Y592750D02*
X825930Y592750D01*
D14*
X905510Y640080D03*
D15*
X896260Y645080D03*
X896260Y635080D03*
X914760Y635080D03*
X914760Y645080D03*
D12*
X914010Y690880D03*
X897010Y690880D03*
X914010Y708660D03*
X897010Y708660D03*
X897010Y661670D03*
X914010Y661670D03*
D10*
X1050370Y673160D03*
X1050370Y617160D03*
D11*
X1087120Y660160D03*
X1087120Y650160D03*
X1087120Y640160D03*
X1087120Y630160D03*
D10*
X1276270Y617160D03*
X1276270Y673160D03*
D11*
X1239520Y630160D03*
X1239520Y640160D03*
X1239520Y650160D03*
X1239520Y660160D03*
D12*
X1088780Y574040D03*
X1105780Y574040D03*
D13*
X1102550Y587050D02*
X1102550Y594050D01*
X1109550Y594050D01*
X1109550Y587050D01*
X1102550Y587050D01*
X1102550Y589900D02*
X1109550Y589900D01*
X1109550Y592750D02*
X1102550Y592750D01*
X1085010Y594050D02*
X1085010Y587050D01*
X1085010Y594050D02*
X1092010Y594050D01*
X1092010Y587050D01*
X1085010Y587050D01*
X1085010Y589900D02*
X1092010Y589900D01*
X1092010Y592750D02*
X1085010Y592750D01*
D14*
X1164590Y640080D03*
D15*
X1155340Y645080D03*
X1155340Y635080D03*
X1173840Y635080D03*
X1173840Y645080D03*
D12*
X1173090Y690880D03*
X1156090Y690880D03*
X1173090Y708660D03*
X1156090Y708660D03*
X1156090Y661670D03*
X1173090Y661670D03*
D10*
X14050Y932240D03*
X14050Y876240D03*
D11*
X50800Y919240D03*
X50800Y909240D03*
X50800Y899240D03*
X50800Y889240D03*
D10*
X239950Y876240D03*
X239950Y932240D03*
D11*
X203200Y889240D03*
X203200Y899240D03*
X203200Y909240D03*
X203200Y919240D03*
D12*
X52460Y833120D03*
X69460Y833120D03*
D13*
X66230Y846130D02*
X66230Y853130D01*
X73230Y853130D01*
X73230Y846130D01*
X66230Y846130D01*
X66230Y848980D02*
X73230Y848980D01*
X73230Y851830D02*
X66230Y851830D01*
X48690Y853130D02*
X48690Y846130D01*
X48690Y853130D02*
X55690Y853130D01*
X55690Y846130D01*
X48690Y846130D01*
X48690Y848980D02*
X55690Y848980D01*
X55690Y851830D02*
X48690Y851830D01*
D14*
X128270Y899160D03*
D15*
X119020Y904160D03*
X119020Y894160D03*
X137520Y894160D03*
X137520Y904160D03*
D12*
X136770Y949960D03*
X119770Y949960D03*
X136770Y967740D03*
X119770Y967740D03*
X119770Y920750D03*
X136770Y920750D03*
D10*
X273130Y932240D03*
X273130Y876240D03*
D11*
X309880Y919240D03*
X309880Y909240D03*
X309880Y899240D03*
X309880Y889240D03*
D10*
X499030Y876240D03*
X499030Y932240D03*
D11*
X462280Y889240D03*
X462280Y899240D03*
X462280Y909240D03*
X462280Y919240D03*
D12*
X311540Y833120D03*
X328540Y833120D03*
D13*
X325310Y846130D02*
X325310Y853130D01*
X332310Y853130D01*
X332310Y846130D01*
X325310Y846130D01*
X325310Y848980D02*
X332310Y848980D01*
X332310Y851830D02*
X325310Y851830D01*
X307770Y853130D02*
X307770Y846130D01*
X307770Y853130D02*
X314770Y853130D01*
X314770Y846130D01*
X307770Y846130D01*
X307770Y848980D02*
X314770Y848980D01*
X314770Y851830D02*
X307770Y851830D01*
D14*
X387350Y899160D03*
D15*
X378100Y904160D03*
X378100Y894160D03*
X396600Y894160D03*
X396600Y904160D03*
D12*
X395850Y949960D03*
X378850Y949960D03*
X395850Y967740D03*
X378850Y967740D03*
X378850Y920750D03*
X395850Y920750D03*
D10*
X532210Y932240D03*
X532210Y876240D03*
D11*
X568960Y919240D03*
X568960Y909240D03*
X568960Y899240D03*
X568960Y889240D03*
D10*
X758110Y876240D03*
X758110Y932240D03*
D11*
X721360Y889240D03*
X721360Y899240D03*
X721360Y909240D03*
X721360Y919240D03*
D12*
X570620Y833120D03*
X587620Y833120D03*
D13*
X584390Y846130D02*
X584390Y853130D01*
X591390Y853130D01*
X591390Y846130D01*
X584390Y846130D01*
X584390Y848980D02*
X591390Y848980D01*
X591390Y851830D02*
X584390Y851830D01*
X566850Y853130D02*
X566850Y846130D01*
X566850Y853130D02*
X573850Y853130D01*
X573850Y846130D01*
X566850Y846130D01*
X566850Y848980D02*
X573850Y848980D01*
X573850Y851830D02*
X566850Y851830D01*
D14*
X646430Y899160D03*
D15*
X637180Y904160D03*
X637180Y894160D03*
X655680Y894160D03*
X655680Y904160D03*
D12*
X654930Y949960D03*
X637930Y949960D03*
X654930Y967740D03*
X637930Y967740D03*
X637930Y920750D03*
X654930Y920750D03*
D10*
X791290Y932240D03*
X791290Y876240D03*
D11*
X828040Y919240D03*
X828040Y909240D03*
X828040Y899240D03*
X828040Y889240D03*
D10*
X1017190Y876240D03*
X1017190Y932240D03*
D11*
X980440Y889240D03*
X980440Y899240D03*
X980440Y909240D03*
X980440Y919240D03*
D12*
X829700Y833120D03*
X846700Y833120D03*
D13*
X843470Y846130D02*
X843470Y853130D01*
X850470Y853130D01*
X850470Y846130D01*
X843470Y846130D01*
X843470Y848980D02*
X850470Y848980D01*
X850470Y851830D02*
X843470Y851830D01*
X825930Y853130D02*
X825930Y846130D01*
X825930Y853130D02*
X832930Y853130D01*
X832930Y846130D01*
X825930Y846130D01*
X825930Y848980D02*
X832930Y848980D01*
X832930Y851830D02*
X825930Y851830D01*
D14*
X905510Y899160D03*
D15*
X896260Y904160D03*
X896260Y894160D03*
X914760Y894160D03*
X914760Y904160D03*
D12*
X914010Y949960D03*
X897010Y949960D03*
X914010Y967740D03*
X897010Y967740D03*
X897010Y920750D03*
X914010Y920750D03*
D10*
X1050370Y932240D03*
X1050370Y876240D03*
D11*
X1087120Y919240D03*
X1087120Y909240D03*
X1087120Y899240D03*
X1087120Y889240D03*
D10*
X1276270Y876240D03*
X1276270Y932240D03*
D11*
X1239520Y889240D03*
X1239520Y899240D03*
X1239520Y909240D03*
X1239520Y919240D03*
D12*
X1088780Y833120D03*
X1105780Y833120D03*
D13*
X1102550Y846130D02*
X1102550Y853130D01*
X1109550Y853130D01*
X1109550Y846130D01*
X1102550Y846130D01*
X1102550Y848980D02*
X1109550Y848980D01*
X1109550Y851830D02*
X1102550Y851830D01*
X1085010Y853130D02*
X1085010Y846130D01*
X1085010Y853130D02*
X1092010Y853130D01*
X1092010Y846130D01*
X1085010Y846130D01*
X1085010Y848980D02*
X1092010Y848980D01*
X1092010Y851830D02*
X1085010Y851830D01*
D14*
X1164590Y899160D03*
D15*
X1155340Y904160D03*
X1155340Y894160D03*
X1173840Y894160D03*
X1173840Y904160D03*
D12*
X1173090Y949960D03*
X1156090Y949960D03*
X1173090Y967740D03*
X1156090Y967740D03*
X1156090Y920750D03*
X1173090Y920750D03*
D10*
X14050Y1191320D03*
X14050Y1135320D03*
D11*
X50800Y1178320D03*
X50800Y1168320D03*
X50800Y1158320D03*
X50800Y1148320D03*
D10*
X239950Y1135320D03*
X239950Y1191320D03*
D11*
X203200Y1148320D03*
X203200Y1158320D03*
X203200Y1168320D03*
X203200Y1178320D03*
D12*
X52460Y1092200D03*
X69460Y1092200D03*
D13*
X66230Y1105210D02*
X66230Y1112210D01*
X73230Y1112210D01*
X73230Y1105210D01*
X66230Y1105210D01*
X66230Y1108060D02*
X73230Y1108060D01*
X73230Y1110910D02*
X66230Y1110910D01*
X48690Y1112210D02*
X48690Y1105210D01*
X48690Y1112210D02*
X55690Y1112210D01*
X55690Y1105210D01*
X48690Y1105210D01*
X48690Y1108060D02*
X55690Y1108060D01*
X55690Y1110910D02*
X48690Y1110910D01*
D14*
X128270Y1158240D03*
D15*
X119020Y1163240D03*
X119020Y1153240D03*
X137520Y1153240D03*
X137520Y1163240D03*
D12*
X136770Y1209040D03*
X119770Y1209040D03*
X136770Y1226820D03*
X119770Y1226820D03*
X119770Y1179830D03*
X136770Y1179830D03*
D10*
X273130Y1191320D03*
X273130Y1135320D03*
D11*
X309880Y1178320D03*
X309880Y1168320D03*
X309880Y1158320D03*
X309880Y1148320D03*
D10*
X499030Y1135320D03*
X499030Y1191320D03*
D11*
X462280Y1148320D03*
X462280Y1158320D03*
X462280Y1168320D03*
X462280Y1178320D03*
D12*
X311540Y1092200D03*
X328540Y1092200D03*
D13*
X325310Y1105210D02*
X325310Y1112210D01*
X332310Y1112210D01*
X332310Y1105210D01*
X325310Y1105210D01*
X325310Y1108060D02*
X332310Y1108060D01*
X332310Y1110910D02*
X325310Y1110910D01*
X307770Y1112210D02*
X307770Y1105210D01*
X307770Y1112210D02*
X314770Y1112210D01*
X314770Y1105210D01*
X307770Y1105210D01*
X307770Y1108060D02*
X314770Y1108060D01*
X314770Y1110910D02*
X307770Y1110910D01*
D14*
X387350Y1158240D03*
D15*
X378100Y1163240D03*
X378100Y1153240D03*
X396600Y1153240D03*
X396600Y1163240D03*
D12*
X395850Y1209040D03*
X378850Y1209040D03*
X395850Y1226820D03*
X378850Y1226820D03*
X378850Y1179830D03*
X395850Y1179830D03*
D10*
X532210Y1191320D03*
X532210Y1135320D03*
D11*
X568960Y1178320D03*
X568960Y1168320D03*
X568960Y1158320D03*
X568960Y1148320D03*
D10*
X758110Y1135320D03*
X758110Y1191320D03*
D11*
X721360Y1148320D03*
X721360Y1158320D03*
X721360Y1168320D03*
X721360Y1178320D03*
D12*
X570620Y1092200D03*
X587620Y1092200D03*
D13*
X584390Y1105210D02*
X584390Y1112210D01*
X591390Y1112210D01*
X591390Y1105210D01*
X584390Y1105210D01*
X584390Y1108060D02*
X591390Y1108060D01*
X591390Y1110910D02*
X584390Y1110910D01*
X566850Y1112210D02*
X566850Y1105210D01*
X566850Y1112210D02*
X573850Y1112210D01*
X573850Y1105210D01*
X566850Y1105210D01*
X566850Y1108060D02*
X573850Y1108060D01*
X573850Y1110910D02*
X566850Y1110910D01*
D14*
X646430Y1158240D03*
D15*
X637180Y1163240D03*
X637180Y1153240D03*
X655680Y1153240D03*
X655680Y1163240D03*
D12*
X654930Y1209040D03*
X637930Y1209040D03*
X654930Y1226820D03*
X637930Y1226820D03*
X637930Y1179830D03*
X654930Y1179830D03*
D10*
X791290Y1191320D03*
X791290Y1135320D03*
D11*
X828040Y1178320D03*
X828040Y1168320D03*
X828040Y1158320D03*
X828040Y1148320D03*
D10*
X1017190Y1135320D03*
X1017190Y1191320D03*
D11*
X980440Y1148320D03*
X980440Y1158320D03*
X980440Y1168320D03*
X980440Y1178320D03*
D12*
X829700Y1092200D03*
X846700Y1092200D03*
D13*
X843470Y1105210D02*
X843470Y1112210D01*
X850470Y1112210D01*
X850470Y1105210D01*
X843470Y1105210D01*
X843470Y1108060D02*
X850470Y1108060D01*
X850470Y1110910D02*
X843470Y1110910D01*
X825930Y1112210D02*
X825930Y1105210D01*
X825930Y1112210D02*
X832930Y1112210D01*
X832930Y1105210D01*
X825930Y1105210D01*
X825930Y1108060D02*
X832930Y1108060D01*
X832930Y1110910D02*
X825930Y1110910D01*
D14*
X905510Y1158240D03*
D15*
X896260Y1163240D03*
X896260Y1153240D03*
X914760Y1153240D03*
X914760Y1163240D03*
D12*
X914010Y1209040D03*
X897010Y1209040D03*
X914010Y1226820D03*
X897010Y1226820D03*
X897010Y1179830D03*
X914010Y1179830D03*
D10*
X1050370Y1191320D03*
X1050370Y1135320D03*
D11*
X1087120Y1178320D03*
X1087120Y1168320D03*
X1087120Y1158320D03*
X1087120Y1148320D03*
D10*
X1276270Y1135320D03*
X1276270Y1191320D03*
D11*
X1239520Y1148320D03*
X1239520Y1158320D03*
X1239520Y1168320D03*
X1239520Y1178320D03*
D12*
X1088780Y1092200D03*
X1105780Y1092200D03*
D13*
X1102550Y1105210D02*
X1102550Y1112210D01*
X1109550Y1112210D01*
X1109550Y1105210D01*
X1102550Y1105210D01*
X1102550Y1108060D02*
X1109550Y1108060D01*
X1109550Y1110910D02*
X1102550Y1110910D01*
X1085010Y1112210D02*
X1085010Y1105210D01*
X1085010Y1112210D02*
X1092010Y1112210D01*
X1092010Y1105210D01*
X1085010Y1105210D01*
X1085010Y1108060D02*
X1092010Y1108060D01*
X1092010Y1110910D02*
X1085010Y1110910D01*
D14*
X1164590Y1158240D03*
D15*
X1155340Y1163240D03*
X1155340Y1153240D03*
X1173840Y1153240D03*
X1173840Y1163240D03*
D12*
X1173090Y1209040D03*
X1156090Y1209040D03*
X1173090Y1226820D03*
X1156090Y1226820D03*
X1156090Y1179830D03*
X1173090Y1179830D03*
D10*
X14050Y1450400D03*
X14050Y1394400D03*
D11*
X50800Y1437400D03*
X50800Y1427400D03*
X50800Y1417400D03*
X50800Y1407400D03*
D10*
X239950Y1394400D03*
X239950Y1450400D03*
D11*
X203200Y1407400D03*
X203200Y1417400D03*
X203200Y1427400D03*
X203200Y1437400D03*
D12*
X52460Y1351280D03*
X69460Y1351280D03*
D13*
X66230Y1364290D02*
X66230Y1371290D01*
X73230Y1371290D01*
X73230Y1364290D01*
X66230Y1364290D01*
X66230Y1367140D02*
X73230Y1367140D01*
X73230Y1369990D02*
X66230Y1369990D01*
X48690Y1371290D02*
X48690Y1364290D01*
X48690Y1371290D02*
X55690Y1371290D01*
X55690Y1364290D01*
X48690Y1364290D01*
X48690Y1367140D02*
X55690Y1367140D01*
X55690Y1369990D02*
X48690Y1369990D01*
D14*
X128270Y1417320D03*
D15*
X119020Y1422320D03*
X119020Y1412320D03*
X137520Y1412320D03*
X137520Y1422320D03*
D12*
X136770Y1468120D03*
X119770Y1468120D03*
X136770Y1485900D03*
X119770Y1485900D03*
X119770Y1438910D03*
X136770Y1438910D03*
D10*
X273130Y1450400D03*
X273130Y1394400D03*
D11*
X309880Y1437400D03*
X309880Y1427400D03*
X309880Y1417400D03*
X309880Y1407400D03*
D10*
X499030Y1394400D03*
X499030Y1450400D03*
D11*
X462280Y1407400D03*
X462280Y1417400D03*
X462280Y1427400D03*
X462280Y1437400D03*
D12*
X311540Y1351280D03*
X328540Y1351280D03*
D13*
X325310Y1364290D02*
X325310Y1371290D01*
X332310Y1371290D01*
X332310Y1364290D01*
X325310Y1364290D01*
X325310Y1367140D02*
X332310Y1367140D01*
X332310Y1369990D02*
X325310Y1369990D01*
X307770Y1371290D02*
X307770Y1364290D01*
X307770Y1371290D02*
X314770Y1371290D01*
X314770Y1364290D01*
X307770Y1364290D01*
X307770Y1367140D02*
X314770Y1367140D01*
X314770Y1369990D02*
X307770Y1369990D01*
D14*
X387350Y1417320D03*
D15*
X378100Y1422320D03*
X378100Y1412320D03*
X396600Y1412320D03*
X396600Y1422320D03*
D12*
X395850Y1468120D03*
X378850Y1468120D03*
X395850Y1485900D03*
X378850Y1485900D03*
X378850Y1438910D03*
X395850Y1438910D03*
D10*
X532210Y1450400D03*
X532210Y1394400D03*
D11*
X568960Y1437400D03*
X568960Y1427400D03*
X568960Y1417400D03*
X568960Y1407400D03*
D10*
X758110Y1394400D03*
X758110Y1450400D03*
D11*
X721360Y1407400D03*
X721360Y1417400D03*
X721360Y1427400D03*
X721360Y1437400D03*
D12*
X570620Y1351280D03*
X587620Y1351280D03*
D13*
X584390Y1364290D02*
X584390Y1371290D01*
X591390Y1371290D01*
X591390Y1364290D01*
X584390Y1364290D01*
X584390Y1367140D02*
X591390Y1367140D01*
X591390Y1369990D02*
X584390Y1369990D01*
X566850Y1371290D02*
X566850Y1364290D01*
X566850Y1371290D02*
X573850Y1371290D01*
X573850Y1364290D01*
X566850Y1364290D01*
X566850Y1367140D02*
X573850Y1367140D01*
X573850Y1369990D02*
X566850Y1369990D01*
D14*
X646430Y1417320D03*
D15*
X637180Y1422320D03*
X637180Y1412320D03*
X655680Y1412320D03*
X655680Y1422320D03*
D12*
X654930Y1468120D03*
X637930Y1468120D03*
X654930Y1485900D03*
X637930Y1485900D03*
X637930Y1438910D03*
X654930Y1438910D03*
D10*
X791290Y1450400D03*
X791290Y1394400D03*
D11*
X828040Y1437400D03*
X828040Y1427400D03*
X828040Y1417400D03*
X828040Y1407400D03*
D10*
X1017190Y1394400D03*
X1017190Y1450400D03*
D11*
X980440Y1407400D03*
X980440Y1417400D03*
X980440Y1427400D03*
X980440Y1437400D03*
D12*
X829700Y1351280D03*
X846700Y1351280D03*
D13*
X843470Y1364290D02*
X843470Y1371290D01*
X850470Y1371290D01*
X850470Y1364290D01*
X843470Y1364290D01*
X843470Y1367140D02*
X850470Y1367140D01*
X850470Y1369990D02*
X843470Y1369990D01*
X825930Y1371290D02*
X825930Y1364290D01*
X825930Y1371290D02*
X832930Y1371290D01*
X832930Y1364290D01*
X825930Y1364290D01*
X825930Y1367140D02*
X832930Y1367140D01*
X832930Y1369990D02*
X825930Y1369990D01*
D14*
X905510Y1417320D03*
D15*
X896260Y1422320D03*
X896260Y1412320D03*
X914760Y1412320D03*
X914760Y1422320D03*
D12*
X914010Y1468120D03*
X897010Y1468120D03*
X914010Y1485900D03*
X897010Y1485900D03*
X897010Y1438910D03*
X914010Y1438910D03*
D10*
X1050370Y1450400D03*
X1050370Y1394400D03*
D11*
X1087120Y1437400D03*
X1087120Y1427400D03*
X1087120Y1417400D03*
X1087120Y1407400D03*
D10*
X1276270Y1394400D03*
X1276270Y1450400D03*
D11*
X1239520Y1407400D03*
X1239520Y1417400D03*
X1239520Y1427400D03*
X1239520Y1437400D03*
D12*
X1088780Y1351280D03*
X1105780Y1351280D03*
D13*
X1102550Y1364290D02*
X1102550Y1371290D01*
X1109550Y1371290D01*
X1109550Y1364290D01*
X1102550Y1364290D01*
X1102550Y1367140D02*
X1109550Y1367140D01*
X1109550Y1369990D02*
X1102550Y1369990D01*
X1085010Y1371290D02*
X1085010Y1364290D01*
X1085010Y1371290D02*
X1092010Y1371290D01*
X1092010Y1364290D01*
X1085010Y1364290D01*
X1085010Y1367140D02*
X1092010Y1367140D01*
X1092010Y1369990D02*
X1085010Y1369990D01*
D14*
X1164590Y1417320D03*
D15*
X1155340Y1422320D03*
X1155340Y1412320D03*
X1173840Y1412320D03*
X1173840Y1422320D03*
D12*
X1173090Y1468120D03*
X1156090Y1468120D03*
X1173090Y1485900D03*
X1156090Y1485900D03*
X1156090Y1438910D03*
X1173090Y1438910D03*
D10*
X14050Y1709480D03*
X14050Y1653480D03*
D11*
X50800Y1696480D03*
X50800Y1686480D03*
X50800Y1676480D03*
X50800Y1666480D03*
D10*
X239950Y1653480D03*
X239950Y1709480D03*
D11*
X203200Y1666480D03*
X203200Y1676480D03*
X203200Y1686480D03*
X203200Y1696480D03*
D12*
X52460Y1610360D03*
X69460Y1610360D03*
D13*
X66230Y1623370D02*
X66230Y1630370D01*
X73230Y1630370D01*
X73230Y1623370D01*
X66230Y1623370D01*
X66230Y1626220D02*
X73230Y1626220D01*
X73230Y1629070D02*
X66230Y1629070D01*
X48690Y1630370D02*
X48690Y1623370D01*
X48690Y1630370D02*
X55690Y1630370D01*
X55690Y1623370D01*
X48690Y1623370D01*
X48690Y1626220D02*
X55690Y1626220D01*
X55690Y1629070D02*
X48690Y1629070D01*
D14*
X128270Y1676400D03*
D15*
X119020Y1681400D03*
X119020Y1671400D03*
X137520Y1671400D03*
X137520Y1681400D03*
D12*
X136770Y1727200D03*
X119770Y1727200D03*
X136770Y1744980D03*
X119770Y1744980D03*
X119770Y1697990D03*
X136770Y1697990D03*
D10*
X273130Y1709480D03*
X273130Y1653480D03*
D11*
X309880Y1696480D03*
X309880Y1686480D03*
X309880Y1676480D03*
X309880Y1666480D03*
D10*
X499030Y1653480D03*
X499030Y1709480D03*
D11*
X462280Y1666480D03*
X462280Y1676480D03*
X462280Y1686480D03*
X462280Y1696480D03*
D12*
X311540Y1610360D03*
X328540Y1610360D03*
D13*
X325310Y1623370D02*
X325310Y1630370D01*
X332310Y1630370D01*
X332310Y1623370D01*
X325310Y1623370D01*
X325310Y1626220D02*
X332310Y1626220D01*
X332310Y1629070D02*
X325310Y1629070D01*
X307770Y1630370D02*
X307770Y1623370D01*
X307770Y1630370D02*
X314770Y1630370D01*
X314770Y1623370D01*
X307770Y1623370D01*
X307770Y1626220D02*
X314770Y1626220D01*
X314770Y1629070D02*
X307770Y1629070D01*
D14*
X387350Y1676400D03*
D15*
X378100Y1681400D03*
X378100Y1671400D03*
X396600Y1671400D03*
X396600Y1681400D03*
D12*
X395850Y1727200D03*
X378850Y1727200D03*
X395850Y1744980D03*
X378850Y1744980D03*
X378850Y1697990D03*
X395850Y1697990D03*
D10*
X532210Y1709480D03*
X532210Y1653480D03*
D11*
X568960Y1696480D03*
X568960Y1686480D03*
X568960Y1676480D03*
X568960Y1666480D03*
D10*
X758110Y1653480D03*
X758110Y1709480D03*
D11*
X721360Y1666480D03*
X721360Y1676480D03*
X721360Y1686480D03*
X721360Y1696480D03*
D12*
X570620Y1610360D03*
X587620Y1610360D03*
D13*
X584390Y1623370D02*
X584390Y1630370D01*
X591390Y1630370D01*
X591390Y1623370D01*
X584390Y1623370D01*
X584390Y1626220D02*
X591390Y1626220D01*
X591390Y1629070D02*
X584390Y1629070D01*
X566850Y1630370D02*
X566850Y1623370D01*
X566850Y1630370D02*
X573850Y1630370D01*
X573850Y1623370D01*
X566850Y1623370D01*
X566850Y1626220D02*
X573850Y1626220D01*
X573850Y1629070D02*
X566850Y1629070D01*
D14*
X646430Y1676400D03*
D15*
X637180Y1681400D03*
X637180Y1671400D03*
X655680Y1671400D03*
X655680Y1681400D03*
D12*
X654930Y1727200D03*
X637930Y1727200D03*
X654930Y1744980D03*
X637930Y1744980D03*
X637930Y1697990D03*
X654930Y1697990D03*
D10*
X791290Y1709480D03*
X791290Y1653480D03*
D11*
X828040Y1696480D03*
X828040Y1686480D03*
X828040Y1676480D03*
X828040Y1666480D03*
D10*
X1017190Y1653480D03*
X1017190Y1709480D03*
D11*
X980440Y1666480D03*
X980440Y1676480D03*
X980440Y1686480D03*
X980440Y1696480D03*
D12*
X829700Y1610360D03*
X846700Y1610360D03*
D13*
X843470Y1623370D02*
X843470Y1630370D01*
X850470Y1630370D01*
X850470Y1623370D01*
X843470Y1623370D01*
X843470Y1626220D02*
X850470Y1626220D01*
X850470Y1629070D02*
X843470Y1629070D01*
X825930Y1630370D02*
X825930Y1623370D01*
X825930Y1630370D02*
X832930Y1630370D01*
X832930Y1623370D01*
X825930Y1623370D01*
X825930Y1626220D02*
X832930Y1626220D01*
X832930Y1629070D02*
X825930Y1629070D01*
D14*
X905510Y1676400D03*
D15*
X896260Y1681400D03*
X896260Y1671400D03*
X914760Y1671400D03*
X914760Y1681400D03*
D12*
X914010Y1727200D03*
X897010Y1727200D03*
X914010Y1744980D03*
X897010Y1744980D03*
X897010Y1697990D03*
X914010Y1697990D03*
D10*
X1050370Y1709480D03*
X1050370Y1653480D03*
D11*
X1087120Y1696480D03*
X1087120Y1686480D03*
X1087120Y1676480D03*
X1087120Y1666480D03*
D10*
X1276270Y1653480D03*
X1276270Y1709480D03*
D11*
X1239520Y1666480D03*
X1239520Y1676480D03*
X1239520Y1686480D03*
X1239520Y1696480D03*
D12*
X1088780Y1610360D03*
X1105780Y1610360D03*
D13*
X1102550Y1623370D02*
X1102550Y1630370D01*
X1109550Y1630370D01*
X1109550Y1623370D01*
X1102550Y1623370D01*
X1102550Y1626220D02*
X1109550Y1626220D01*
X1109550Y1629070D02*
X1102550Y1629070D01*
X1085010Y1630370D02*
X1085010Y1623370D01*
X1085010Y1630370D02*
X1092010Y1630370D01*
X1092010Y1623370D01*
X1085010Y1623370D01*
X1085010Y1626220D02*
X1092010Y1626220D01*
X1092010Y1629070D02*
X1085010Y1629070D01*
D14*
X1164590Y1676400D03*
D15*
X1155340Y1681400D03*
X1155340Y1671400D03*
X1173840Y1671400D03*
X1173840Y1681400D03*
D12*
X1173090Y1727200D03*
X1156090Y1727200D03*
X1173090Y1744980D03*
X1156090Y1744980D03*
X1156090Y1697990D03*
X1173090Y1697990D03*
M02*
