M48
;GenerationSoftware,Autodesk,EAGLE,9.6.0*%
;CreationDate,2020-03-31T21:16:44Z*%
FMAT,2
ICI,OFF
METRIC,TZ,000.000
T3C0.381
T2C1.016
T1C3.302
%
G90
M71
T1
X80264Y28448
X2540Y22860
X22860Y22860
X2540Y2540
X22860Y2540
X28448Y22860
X48768Y22860
X28448Y2540
X48768Y2540
X54356Y22860
X74676Y22860
X54356Y2540
X74676Y2540
X80264Y22860
X100584Y22860
X80264Y2540
X100584Y2540
X106172Y22860
X126492Y22860
X106172Y2540
X126492Y2540
X2540Y48768
X22860Y48768
X2540Y28448
X22860Y28448
X28448Y48768
X48768Y48768
X28448Y28448
X48768Y28448
X54356Y48768
X74676Y48768
X54356Y28448
X74676Y28448
X80264Y48768
X100584Y48768
X74676Y100584
X100584Y28448
X106172Y48768
X126492Y48768
X106172Y28448
X126492Y28448
X2540Y74676
X22860Y74676
X2540Y54356
X22860Y54356
X28448Y74676
X48768Y74676
X28448Y54356
X48768Y54356
X54356Y74676
X74676Y74676
X54356Y54356
X74676Y54356
X80264Y74676
X100584Y74676
X80264Y54356
X100584Y54356
X106172Y74676
X126492Y74676
X106172Y54356
X126492Y54356
X2540Y100584
X22860Y100584
X2540Y80264
X22860Y80264
X28448Y100584
X48768Y100584
X28448Y80264
X48768Y80264
X54356Y100584
X126492Y157988
X54356Y80264
X74676Y80264
X80264Y100584
X100584Y100584
X80264Y80264
X100584Y80264
X106172Y100584
X126492Y100584
X106172Y80264
X126492Y80264
X2540Y126492
X22860Y126492
X2540Y106172
X22860Y106172
X28448Y126492
X48768Y126492
X28448Y106172
X48768Y106172
X54356Y126492
X74676Y126492
X54356Y106172
X74676Y106172
X80264Y126492
X100584Y126492
X80264Y106172
X100584Y106172
X106172Y126492
X126492Y126492
X106172Y106172
X126492Y106172
X2540Y152400
X22860Y152400
X2540Y132080
X22860Y132080
X28448Y152400
X48768Y152400
X28448Y132080
X48768Y132080
X54356Y152400
X74676Y152400
X54356Y132080
X74676Y132080
X80264Y152400
X100584Y152400
X80264Y132080
X100584Y132080
X106172Y152400
X126492Y152400
X106172Y132080
X126492Y132080
X2540Y178308
X22860Y178308
X2540Y157988
X22860Y157988
X28448Y178308
X48768Y178308
X28448Y157988
X48768Y157988
X54356Y178308
X74676Y178308
X54356Y157988
X74676Y157988
X80264Y178308
X100584Y178308
X80264Y157988
X100584Y157988
X106172Y178308
X126492Y178308
X106172Y157988
T2
X34798Y1270
X8890Y1270
X11430Y1270
X13970Y1270
X16510Y1270
X37338Y1270
X39878Y1270
X42418Y1270
X60706Y1270
X63246Y1270
X65786Y1270
X68326Y1270
X86614Y1270
X89154Y1270
X91694Y1270
X94234Y1270
X112522Y1270
X115062Y1270
X117602Y1270
X120142Y1270
X8890Y27178
X11430Y27178
X13970Y27178
X16510Y27178
X34798Y27178
X37338Y27178
X39878Y27178
X42418Y27178
X60706Y27178
X63246Y27178
X65786Y27178
X68326Y27178
X86614Y27178
X89154Y27178
X91694Y27178
X94234Y27178
X112522Y27178
X115062Y27178
X117602Y27178
X120142Y27178
X8890Y53086
X11430Y53086
X13970Y53086
X16510Y53086
X34798Y53086
X37338Y53086
X39878Y53086
X42418Y53086
X60706Y53086
X63246Y53086
X65786Y53086
X68326Y53086
X86614Y53086
X89154Y53086
X91694Y53086
X94234Y53086
X112522Y53086
X115062Y53086
X117602Y53086
X120142Y53086
X8890Y78994
X11430Y78994
X13970Y78994
X16510Y78994
X34798Y78994
X37338Y78994
X39878Y78994
X42418Y78994
X60706Y78994
X63246Y78994
X65786Y78994
X68326Y78994
X86614Y78994
X89154Y78994
X91694Y78994
X94234Y78994
X112522Y78994
X115062Y78994
X117602Y78994
X120142Y78994
X8890Y104902
X11430Y104902
X13970Y104902
X16510Y104902
X34798Y104902
X37338Y104902
X39878Y104902
X42418Y104902
X60706Y104902
X63246Y104902
X65786Y104902
X68326Y104902
X86614Y104902
X89154Y104902
X91694Y104902
X94234Y104902
X112522Y104902
X115062Y104902
X117602Y104902
X120142Y104902
X8890Y130810
X11430Y130810
X13970Y130810
X16510Y130810
X34798Y130810
X37338Y130810
X39878Y130810
X42418Y130810
X60706Y130810
X63246Y130810
X65786Y130810
X68326Y130810
X86614Y130810
X89154Y130810
X91694Y130810
X94234Y130810
X112522Y130810
X115062Y130810
X117602Y130810
X120142Y130810
X8890Y156718
X11430Y156718
X13970Y156718
X16510Y156718
X34798Y156718
X37338Y156718
X39878Y156718
X42418Y156718
X60706Y156718
X63246Y156718
X65786Y156718
X68326Y156718
X86614Y156718
X89154Y156718
X91694Y156718
X94234Y156718
X112522Y156718
X115062Y156718
X117602Y156718
X120142Y156718
T3
X67056Y58166
X70866Y60198
X67437Y69977
X54102Y64516
X68580Y66294
X57785Y72263
X57658Y61849
X74168Y64008
X60071Y58420
X59817Y67945
X64770Y62484
X61976Y57785
X58166Y62992
X68326Y60706
X63754Y62230
X69190Y65049
X70587Y65049
X61595Y69469
X61595Y71755
X96520Y64008
X81280Y65024
X88773Y64516
X85725Y54483
X92964Y58166
X96774Y60198
X93345Y69977
X80010Y64516
X94488Y66294
X83693Y72263
X83566Y61849
X100076Y64008
X85979Y58420
X85725Y67945
X90678Y62484
X87884Y57785
X84074Y62992
X94234Y60706
X89662Y62230
X95098Y65049
X96495Y65049
X87503Y69469
X87503Y71755
X122428Y64008
X107188Y65024
X114681Y64516
X111633Y54483
X118872Y58166
X122682Y60198
X119253Y69977
X105918Y64516
X120396Y66294
X109601Y72263
X109474Y61849
X125984Y64008
X111887Y58420
X111633Y67945
X116586Y62484
X113792Y57785
X109982Y62992
X120142Y60706
X115570Y62230
X121006Y65049
X122403Y65049
X113411Y69469
X113411Y71755
X18796Y89916
X3556Y90932
X11049Y90424
X8001Y80391
X15240Y84074
X19050Y86106
X15621Y95885
X2286Y90424
X16764Y92202
X5969Y98171
X5842Y87757
X22352Y89916
X8255Y84328
X8001Y93853
X12954Y88392
X10160Y83693
X6350Y88900
X16510Y86614
X11938Y88138
X17374Y90957
X18771Y90957
X9779Y95377
X9779Y97663
X44704Y89916
X29464Y90932
X36957Y90424
X33909Y80391
X41148Y84074
X44958Y86106
X41529Y95885
X28194Y90424
X42672Y92202
X31877Y98171
X31750Y87757
X48260Y89916
X34163Y84328
X33909Y93853
X38862Y88392
X36068Y83693
X32258Y88900
X42418Y86614
X37846Y88138
X43282Y90957
X44679Y90957
X35687Y95377
X35687Y97663
X70612Y89916
X55372Y90932
X62865Y90424
X59817Y80391
X67056Y84074
X70866Y86106
X67437Y95885
X54102Y90424
X68580Y92202
X57785Y98171
X57658Y87757
X74168Y89916
X60071Y84328
X59817Y93853
X64770Y88392
X61976Y83693
X58166Y88900
X68326Y86614
X63754Y88138
X69190Y90957
X70587Y90957
X61595Y95377
X61595Y97663
X96520Y89916
X81280Y90932
X88773Y90424
X85725Y80391
X92964Y84074
X96774Y86106
X93345Y95885
X80010Y90424
X94488Y92202
X83693Y98171
X83566Y87757
X100076Y89916
X85979Y84328
X85725Y93853
X90678Y88392
X87884Y83693
X84074Y88900
X94234Y86614
X89662Y88138
X95098Y90957
X96495Y90957
X87503Y95377
X87503Y97663
X122428Y89916
X107188Y90932
X114681Y90424
X111633Y80391
X118872Y84074
X122682Y86106
X119253Y95885
X105918Y90424
X120396Y92202
X109601Y98171
X109474Y87757
X125984Y89916
X111887Y84328
X111633Y93853
X116586Y88392
X113792Y83693
X109982Y88900
X120142Y86614
X115570Y88138
X121006Y90957
X122403Y90957
X113411Y95377
X113411Y97663
X18796Y115824
X3556Y116840
X11049Y116332
X8001Y106299
X15240Y109982
X19050Y112014
X15621Y121793
X2286Y116332
X16764Y118110
X5969Y124079
X5842Y113665
X22352Y115824
X8255Y110236
X8001Y119761
X12954Y114300
X10160Y109601
X6350Y114808
X16510Y112522
X11938Y114046
X17374Y116865
X18771Y116865
X9779Y121285
X9779Y123571
X44704Y115824
X29464Y116840
X36957Y116332
X33909Y106299
X41148Y109982
X44958Y112014
X41529Y121793
X28194Y116332
X42672Y118110
X31877Y124079
X31750Y113665
X48260Y115824
X34163Y110236
X33909Y119761
X38862Y114300
X36068Y109601
X32258Y114808
X42418Y112522
X37846Y114046
X43282Y116865
X44679Y116865
X35687Y121285
X35687Y123571
X70612Y115824
X55372Y116840
X62865Y116332
X59817Y106299
X67056Y109982
X70866Y112014
X67437Y121793
X54102Y116332
X68580Y118110
X57785Y124079
X57658Y113665
X74168Y115824
X60071Y110236
X59817Y119761
X64770Y114300
X61976Y109601
X58166Y114808
X68326Y112522
X63754Y114046
X69190Y116865
X70587Y116865
X61595Y121285
X61595Y123571
X96520Y115824
X81280Y116840
X88773Y116332
X85725Y106299
X92964Y109982
X96774Y112014
X93345Y121793
X80010Y116332
X94488Y118110
X83693Y124079
X83566Y113665
X100076Y115824
X85979Y110236
X18771Y39141
X90678Y114300
X87884Y109601
X84074Y114808
X94234Y112522
X89662Y114046
X95098Y116865
X96495Y116865
X87503Y121285
X87503Y123571
X122428Y115824
X107188Y116840
X114681Y116332
X111633Y106299
X118872Y109982
X122682Y112014
X119253Y121793
X105918Y116332
X120396Y118110
X109601Y124079
X109474Y113665
X125984Y115824
X111887Y110236
X111633Y119761
X116586Y114300
X113792Y109601
X109982Y114808
X120142Y112522
X115570Y114046
X121006Y116865
X122403Y116865
X113411Y121285
X113411Y123571
X18796Y141732
X3556Y142748
X11049Y142240
X8001Y132207
X15240Y135890
X19050Y137922
X15621Y147701
X2286Y142240
X16764Y144018
X5969Y149987
X5842Y139573
X22352Y141732
X8255Y136144
X8001Y145669
X12954Y140208
X10160Y135509
X6350Y140716
X16510Y138430
X11938Y139954
X17374Y142773
X18771Y142773
X9779Y147193
X9779Y149479
X44704Y141732
X29464Y142748
X36957Y142240
X33909Y132207
X41148Y135890
X44958Y137922
X41529Y147701
X28194Y142240
X42672Y144018
X31877Y149987
X31750Y139573
X48260Y141732
X34163Y136144
X33909Y145669
X38862Y140208
X36068Y135509
X32258Y140716
X42418Y138430
X37846Y139954
X43282Y142773
X44679Y142773
X35687Y147193
X35687Y149479
X70612Y141732
X55372Y142748
X62865Y142240
X59817Y132207
X67056Y135890
X70866Y137922
X67437Y147701
X54102Y142240
X68580Y144018
X57785Y149987
X57658Y139573
X74168Y141732
X60071Y136144
X59817Y145669
X64770Y140208
X61976Y135509
X58166Y140716
X68326Y138430
X63754Y139954
X69190Y142773
X70587Y142773
X61595Y147193
X61595Y149479
X96520Y141732
X81280Y142748
X88773Y142240
X85725Y132207
X92964Y135890
X96774Y137922
X93345Y147701
X80010Y142240
X94488Y144018
X83693Y149987
X83566Y139573
X100076Y141732
X85979Y136144
X85725Y145669
X90678Y140208
X87884Y135509
X84074Y140716
X94234Y138430
X89662Y139954
X95098Y142773
X96495Y142773
X87503Y147193
X87503Y149479
X122428Y141732
X107188Y142748
X114681Y142240
X111633Y132207
X118872Y135890
X122682Y137922
X119253Y147701
X105918Y142240
X120396Y144018
X109601Y149987
X109474Y139573
X125984Y141732
X111887Y136144
X111633Y145669
X116586Y140208
X113792Y135509
X109982Y140716
X120142Y138430
X115570Y139954
X121006Y142773
X122403Y142773
X113411Y147193
X113411Y149479
X18796Y167640
X3556Y168656
X11049Y168148
X8001Y158115
X15240Y161798
X19050Y163830
X15621Y173609
X2286Y168148
X16764Y169926
X5969Y175895
X5842Y165481
X22352Y167640
X8255Y162052
X8001Y171577
X12954Y166116
X10160Y161417
X6350Y166624
X16510Y164338
X11938Y165862
X17374Y168681
X18771Y168681
X9779Y173101
X9779Y175387
X44704Y167640
X29464Y168656
X36957Y168148
X33909Y158115
X41148Y161798
X44958Y163830
X41529Y173609
X28194Y168148
X42672Y169926
X31877Y175895
X31750Y165481
X48260Y167640
X34163Y162052
X33909Y171577
X38862Y166116
X36068Y161417
X32258Y166624
X42418Y164338
X37846Y165862
X43282Y168681
X44679Y168681
X35687Y173101
X35687Y175387
X70612Y167640
X55372Y168656
X62865Y168148
X59817Y158115
X67056Y161798
X70866Y163830
X67437Y173609
X54102Y168148
X68580Y169926
X57785Y175895
X57658Y165481
X74168Y167640
X60071Y162052
X59817Y171577
X64770Y166116
X61976Y161417
X58166Y166624
X68326Y164338
X63754Y165862
X69190Y168681
X70587Y168681
X61595Y173101
X61595Y175387
X96520Y167640
X81280Y168656
X88773Y168148
X85725Y158115
X92964Y161798
X96774Y163830
X93345Y173609
X80010Y168148
X94488Y169926
X83693Y175895
X83566Y165481
X100076Y167640
X85979Y162052
X85725Y171577
X90678Y166116
X87884Y161417
X84074Y166624
X94234Y164338
X89662Y165862
X95098Y168681
X96495Y168681
X87503Y173101
X87503Y175387
X122428Y167640
X107188Y168656
X114681Y168148
X111633Y158115
X118872Y161798
X122682Y163830
X119253Y173609
X105918Y168148
X120396Y169926
X109601Y175895
X109474Y165481
X125984Y167640
X111887Y162052
X111633Y171577
X116586Y166116
X113792Y161417
X109982Y166624
X120142Y164338
X115570Y165862
X121006Y168681
X122403Y168681
X113411Y173101
X113411Y175387
X18796Y12192
X3556Y13208
X11049Y12700
X8001Y2667
X15240Y6350
X19050Y8382
X15621Y18161
X2286Y12700
X16764Y14478
X5969Y20447
X5842Y10033
X22352Y12192
X8255Y6604
X8001Y16129
X12954Y10668
X10160Y5969
X6350Y11176
X16510Y8890
X11938Y10414
X17374Y13233
X18771Y13233
X9779Y17653
X9779Y19939
X44704Y12192
X29464Y13208
X36957Y12700
X33909Y2667
X41148Y6350
X44958Y8382
X41529Y18161
X28194Y12700
X42672Y14478
X31877Y20447
X31750Y10033
X48260Y12192
X34163Y6604
X33909Y16129
X38862Y10668
X36068Y5969
X32258Y11176
X42418Y8890
X37846Y10414
X43282Y13233
X44679Y13233
X35687Y17653
X35687Y19939
X70612Y12192
X55372Y13208
X62865Y12700
X59817Y2667
X67056Y6350
X70866Y8382
X67437Y18161
X54102Y12700
X68580Y14478
X57785Y20447
X57658Y10033
X74168Y12192
X60071Y6604
X59817Y16129
X64770Y10668
X61976Y5969
X58166Y11176
X68326Y8890
X63754Y10414
X69190Y13233
X70587Y13233
X61595Y17653
X61595Y19939
X96520Y12192
X81280Y13208
X88773Y12700
X85725Y2667
X92964Y6350
X96774Y8382
X93345Y18161
X80010Y12700
X94488Y14478
X83693Y20447
X83566Y10033
X100076Y12192
X85979Y6604
X85725Y16129
X90678Y10668
X87884Y5969
X84074Y11176
X94234Y8890
X89662Y10414
X95098Y13233
X96495Y13233
X87503Y17653
X87503Y19939
X122428Y12192
X107188Y13208
X114681Y12700
X111633Y2667
X118872Y6350
X122682Y8382
X119253Y18161
X105918Y12700
X120396Y14478
X109601Y20447
X109474Y10033
X125984Y12192
X111887Y6604
X111633Y16129
X116586Y10668
X113792Y5969
X109982Y11176
X120142Y8890
X115570Y10414
X121006Y13233
X122403Y13233
X113411Y17653
X113411Y19939
X18796Y38100
X3556Y39116
X11049Y38608
X8001Y28575
X15240Y32258
X19050Y34290
X15621Y44069
X2286Y38608
X16764Y40386
X5969Y46355
X5842Y35941
X22352Y38100
X8255Y32512
X8001Y42037
X12954Y36576
X10160Y31877
X6350Y37084
X16510Y34798
X11938Y36322
X17374Y39141
X9779Y43561
X9779Y45847
X44704Y38100
X29464Y39116
X36957Y38608
X33909Y28575
X41148Y32258
X44958Y34290
X41529Y44069
X85725Y119761
X28194Y38608
X42672Y40386
X31877Y46355
X31750Y35941
X48260Y38100
X34163Y32512
X33909Y42037
X38862Y36576
X36068Y31877
X32258Y37084
X42418Y34798
X37846Y36322
X43282Y39141
X44679Y39141
X35687Y43561
X35687Y45847
X70612Y38100
X55372Y39116
X62865Y38608
X59817Y28575
X67056Y32258
X70866Y34290
X67437Y44069
X54102Y38608
X68580Y40386
X57785Y46355
X57658Y35941
X74168Y38100
X60071Y32512
X59817Y42037
X64770Y36576
X61976Y31877
X58166Y37084
X68326Y34798
X63754Y36322
X69190Y39141
X70587Y39141
X61595Y43561
X61595Y45847
X96520Y38100
X81280Y39116
X88773Y38608
X85725Y28575
X92964Y32258
X96774Y34290
X93345Y44069
X80010Y38608
X94488Y40386
X83693Y46355
X83566Y35941
X100076Y38100
X85979Y32512
X85725Y42037
X90678Y36576
X87884Y31877
X84074Y37084
X94234Y34798
X89662Y36322
X95098Y39141
X96495Y39141
X87503Y43561
X87503Y45847
X122428Y38100
X107188Y39116
X114681Y38608
X111633Y28575
X118872Y32258
X122682Y34290
X119253Y44069
X105918Y38608
X120396Y40386
X109601Y46355
X109474Y35941
X125984Y38100
X111887Y32512
X111633Y42037
X116586Y36576
X113792Y31877
X109982Y37084
X120142Y34798
X115570Y36322
X121006Y39141
X122403Y39141
X113411Y43561
X113411Y45847
X18796Y64008
X3556Y65024
X11049Y64516
X8001Y54483
X15240Y58166
X19050Y60198
X15621Y69977
X2286Y64516
X16764Y66294
X5969Y72263
X5842Y61849
X22352Y64008
X8255Y58420
X8001Y67945
X12954Y62484
X10160Y57785
X6350Y62992
X16510Y60706
X11938Y62230
X17374Y65049
X18771Y65049
X9779Y69469
X9779Y71755
X44704Y64008
X29464Y65024
X36957Y64516
X33909Y54483
X41148Y58166
X44958Y60198
X41529Y69977
X28194Y64516
X42672Y66294
X31877Y72263
X31750Y61849
X48260Y64008
X34163Y58420
X33909Y67945
X38862Y62484
X36068Y57785
X32258Y62992
X42418Y60706
X37846Y62230
X43282Y65049
X44679Y65049
X35687Y69469
X35687Y71755
X70612Y64008
X55372Y65024
X62865Y64516
X59817Y54483
M30