G04 EAGLE Gerber RS-274X export*
G75*
%MOMM*%
%FSLAX34Y34*%
%LPD*%
%INSoldermask Top*%
%IPPOS*%
%AMOC8*
5,1,8,0,0,1.08239X$1,22.5*%
G01*
%ADD10C,3.505200*%
%ADD11C,0.838200*%
%ADD12R,2.203200X1.403200*%
%ADD13R,1.553200X0.803200*%
%ADD14R,1.303200X1.203200*%
%ADD15C,0.505344*%
%ADD16R,0.753200X0.553200*%
%ADD17R,0.903200X1.803200*%
%ADD18R,1.473200X0.863600*%
%ADD19C,2.082800*%
%ADD20C,1.203200*%
%ADD21C,1.270000*%
%ADD22C,1.703200*%

G36*
X62295Y1583702D02*
X62295Y1583702D01*
X62361Y1583704D01*
X62404Y1583722D01*
X62451Y1583730D01*
X62508Y1583764D01*
X62568Y1583789D01*
X62603Y1583820D01*
X62644Y1583845D01*
X62686Y1583896D01*
X62734Y1583940D01*
X62756Y1583982D01*
X62785Y1584019D01*
X62806Y1584081D01*
X62837Y1584140D01*
X62845Y1584194D01*
X62857Y1584231D01*
X62856Y1584271D01*
X62864Y1584325D01*
X62864Y1588135D01*
X62853Y1588200D01*
X62851Y1588266D01*
X62833Y1588309D01*
X62825Y1588356D01*
X62791Y1588413D01*
X62766Y1588473D01*
X62735Y1588508D01*
X62710Y1588549D01*
X62659Y1588591D01*
X62615Y1588639D01*
X62573Y1588661D01*
X62536Y1588690D01*
X62474Y1588711D01*
X62415Y1588742D01*
X62361Y1588750D01*
X62324Y1588762D01*
X62284Y1588761D01*
X62230Y1588769D01*
X59690Y1588769D01*
X59625Y1588758D01*
X59559Y1588756D01*
X59516Y1588738D01*
X59469Y1588730D01*
X59412Y1588696D01*
X59352Y1588671D01*
X59317Y1588640D01*
X59276Y1588615D01*
X59235Y1588564D01*
X59186Y1588520D01*
X59164Y1588478D01*
X59135Y1588441D01*
X59114Y1588379D01*
X59083Y1588320D01*
X59075Y1588266D01*
X59063Y1588229D01*
X59063Y1588225D01*
X59063Y1588224D01*
X59064Y1588189D01*
X59056Y1588135D01*
X59056Y1584325D01*
X59067Y1584260D01*
X59069Y1584194D01*
X59087Y1584151D01*
X59095Y1584104D01*
X59129Y1584047D01*
X59154Y1583987D01*
X59185Y1583952D01*
X59210Y1583911D01*
X59261Y1583870D01*
X59305Y1583821D01*
X59347Y1583799D01*
X59384Y1583770D01*
X59446Y1583749D01*
X59505Y1583718D01*
X59559Y1583710D01*
X59596Y1583698D01*
X59636Y1583699D01*
X59690Y1583691D01*
X62230Y1583691D01*
X62295Y1583702D01*
G37*
G36*
X839535Y1583702D02*
X839535Y1583702D01*
X839601Y1583704D01*
X839644Y1583722D01*
X839691Y1583730D01*
X839748Y1583764D01*
X839808Y1583789D01*
X839843Y1583820D01*
X839884Y1583845D01*
X839926Y1583896D01*
X839974Y1583940D01*
X839996Y1583982D01*
X840025Y1584019D01*
X840046Y1584081D01*
X840077Y1584140D01*
X840085Y1584194D01*
X840097Y1584231D01*
X840096Y1584271D01*
X840104Y1584325D01*
X840104Y1588135D01*
X840093Y1588200D01*
X840091Y1588266D01*
X840073Y1588309D01*
X840065Y1588356D01*
X840031Y1588413D01*
X840006Y1588473D01*
X839975Y1588508D01*
X839950Y1588549D01*
X839899Y1588591D01*
X839855Y1588639D01*
X839813Y1588661D01*
X839776Y1588690D01*
X839714Y1588711D01*
X839655Y1588742D01*
X839601Y1588750D01*
X839564Y1588762D01*
X839524Y1588761D01*
X839470Y1588769D01*
X836930Y1588769D01*
X836865Y1588758D01*
X836799Y1588756D01*
X836756Y1588738D01*
X836709Y1588730D01*
X836652Y1588696D01*
X836592Y1588671D01*
X836557Y1588640D01*
X836516Y1588615D01*
X836475Y1588564D01*
X836426Y1588520D01*
X836404Y1588478D01*
X836375Y1588441D01*
X836354Y1588379D01*
X836323Y1588320D01*
X836315Y1588266D01*
X836303Y1588229D01*
X836303Y1588225D01*
X836303Y1588224D01*
X836304Y1588189D01*
X836296Y1588135D01*
X836296Y1584325D01*
X836307Y1584260D01*
X836309Y1584194D01*
X836327Y1584151D01*
X836335Y1584104D01*
X836369Y1584047D01*
X836394Y1583987D01*
X836425Y1583952D01*
X836450Y1583911D01*
X836501Y1583870D01*
X836545Y1583821D01*
X836587Y1583799D01*
X836624Y1583770D01*
X836686Y1583749D01*
X836745Y1583718D01*
X836799Y1583710D01*
X836836Y1583698D01*
X836876Y1583699D01*
X836930Y1583691D01*
X839470Y1583691D01*
X839535Y1583702D01*
G37*
G36*
X580455Y1583702D02*
X580455Y1583702D01*
X580521Y1583704D01*
X580564Y1583722D01*
X580611Y1583730D01*
X580668Y1583764D01*
X580728Y1583789D01*
X580763Y1583820D01*
X580804Y1583845D01*
X580846Y1583896D01*
X580894Y1583940D01*
X580916Y1583982D01*
X580945Y1584019D01*
X580966Y1584081D01*
X580997Y1584140D01*
X581005Y1584194D01*
X581017Y1584231D01*
X581016Y1584271D01*
X581024Y1584325D01*
X581024Y1588135D01*
X581013Y1588200D01*
X581011Y1588266D01*
X580993Y1588309D01*
X580985Y1588356D01*
X580951Y1588413D01*
X580926Y1588473D01*
X580895Y1588508D01*
X580870Y1588549D01*
X580819Y1588591D01*
X580775Y1588639D01*
X580733Y1588661D01*
X580696Y1588690D01*
X580634Y1588711D01*
X580575Y1588742D01*
X580521Y1588750D01*
X580484Y1588762D01*
X580444Y1588761D01*
X580390Y1588769D01*
X577850Y1588769D01*
X577785Y1588758D01*
X577719Y1588756D01*
X577676Y1588738D01*
X577629Y1588730D01*
X577572Y1588696D01*
X577512Y1588671D01*
X577477Y1588640D01*
X577436Y1588615D01*
X577395Y1588564D01*
X577346Y1588520D01*
X577324Y1588478D01*
X577295Y1588441D01*
X577274Y1588379D01*
X577243Y1588320D01*
X577235Y1588266D01*
X577223Y1588229D01*
X577223Y1588225D01*
X577223Y1588224D01*
X577224Y1588189D01*
X577216Y1588135D01*
X577216Y1584325D01*
X577227Y1584260D01*
X577229Y1584194D01*
X577247Y1584151D01*
X577255Y1584104D01*
X577289Y1584047D01*
X577314Y1583987D01*
X577345Y1583952D01*
X577370Y1583911D01*
X577421Y1583870D01*
X577465Y1583821D01*
X577507Y1583799D01*
X577544Y1583770D01*
X577606Y1583749D01*
X577665Y1583718D01*
X577719Y1583710D01*
X577756Y1583698D01*
X577796Y1583699D01*
X577850Y1583691D01*
X580390Y1583691D01*
X580455Y1583702D01*
G37*
G36*
X1098615Y1583702D02*
X1098615Y1583702D01*
X1098681Y1583704D01*
X1098724Y1583722D01*
X1098771Y1583730D01*
X1098828Y1583764D01*
X1098888Y1583789D01*
X1098923Y1583820D01*
X1098964Y1583845D01*
X1099006Y1583896D01*
X1099054Y1583940D01*
X1099076Y1583982D01*
X1099105Y1584019D01*
X1099126Y1584081D01*
X1099157Y1584140D01*
X1099165Y1584194D01*
X1099177Y1584231D01*
X1099176Y1584271D01*
X1099184Y1584325D01*
X1099184Y1588135D01*
X1099173Y1588200D01*
X1099171Y1588266D01*
X1099153Y1588309D01*
X1099145Y1588356D01*
X1099111Y1588413D01*
X1099086Y1588473D01*
X1099055Y1588508D01*
X1099030Y1588549D01*
X1098979Y1588591D01*
X1098935Y1588639D01*
X1098893Y1588661D01*
X1098856Y1588690D01*
X1098794Y1588711D01*
X1098735Y1588742D01*
X1098681Y1588750D01*
X1098644Y1588762D01*
X1098604Y1588761D01*
X1098550Y1588769D01*
X1096010Y1588769D01*
X1095945Y1588758D01*
X1095879Y1588756D01*
X1095836Y1588738D01*
X1095789Y1588730D01*
X1095732Y1588696D01*
X1095672Y1588671D01*
X1095637Y1588640D01*
X1095596Y1588615D01*
X1095555Y1588564D01*
X1095506Y1588520D01*
X1095484Y1588478D01*
X1095455Y1588441D01*
X1095434Y1588379D01*
X1095403Y1588320D01*
X1095395Y1588266D01*
X1095383Y1588229D01*
X1095383Y1588225D01*
X1095383Y1588224D01*
X1095384Y1588189D01*
X1095376Y1588135D01*
X1095376Y1584325D01*
X1095387Y1584260D01*
X1095389Y1584194D01*
X1095407Y1584151D01*
X1095415Y1584104D01*
X1095449Y1584047D01*
X1095474Y1583987D01*
X1095505Y1583952D01*
X1095530Y1583911D01*
X1095581Y1583870D01*
X1095625Y1583821D01*
X1095667Y1583799D01*
X1095704Y1583770D01*
X1095766Y1583749D01*
X1095825Y1583718D01*
X1095879Y1583710D01*
X1095916Y1583698D01*
X1095956Y1583699D01*
X1096010Y1583691D01*
X1098550Y1583691D01*
X1098615Y1583702D01*
G37*
G36*
X321375Y1583702D02*
X321375Y1583702D01*
X321441Y1583704D01*
X321484Y1583722D01*
X321531Y1583730D01*
X321588Y1583764D01*
X321648Y1583789D01*
X321683Y1583820D01*
X321724Y1583845D01*
X321766Y1583896D01*
X321814Y1583940D01*
X321836Y1583982D01*
X321865Y1584019D01*
X321886Y1584081D01*
X321917Y1584140D01*
X321925Y1584194D01*
X321937Y1584231D01*
X321936Y1584271D01*
X321944Y1584325D01*
X321944Y1588135D01*
X321933Y1588200D01*
X321931Y1588266D01*
X321913Y1588309D01*
X321905Y1588356D01*
X321871Y1588413D01*
X321846Y1588473D01*
X321815Y1588508D01*
X321790Y1588549D01*
X321739Y1588591D01*
X321695Y1588639D01*
X321653Y1588661D01*
X321616Y1588690D01*
X321554Y1588711D01*
X321495Y1588742D01*
X321441Y1588750D01*
X321404Y1588762D01*
X321364Y1588761D01*
X321310Y1588769D01*
X318770Y1588769D01*
X318705Y1588758D01*
X318639Y1588756D01*
X318596Y1588738D01*
X318549Y1588730D01*
X318492Y1588696D01*
X318432Y1588671D01*
X318397Y1588640D01*
X318356Y1588615D01*
X318315Y1588564D01*
X318266Y1588520D01*
X318244Y1588478D01*
X318215Y1588441D01*
X318194Y1588379D01*
X318163Y1588320D01*
X318155Y1588266D01*
X318143Y1588229D01*
X318143Y1588225D01*
X318143Y1588224D01*
X318144Y1588189D01*
X318136Y1588135D01*
X318136Y1584325D01*
X318147Y1584260D01*
X318149Y1584194D01*
X318167Y1584151D01*
X318175Y1584104D01*
X318209Y1584047D01*
X318234Y1583987D01*
X318265Y1583952D01*
X318290Y1583911D01*
X318341Y1583870D01*
X318385Y1583821D01*
X318427Y1583799D01*
X318464Y1583770D01*
X318526Y1583749D01*
X318585Y1583718D01*
X318639Y1583710D01*
X318676Y1583698D01*
X318716Y1583699D01*
X318770Y1583691D01*
X321310Y1583691D01*
X321375Y1583702D01*
G37*
G36*
X1098615Y1324622D02*
X1098615Y1324622D01*
X1098681Y1324624D01*
X1098724Y1324642D01*
X1098771Y1324650D01*
X1098828Y1324684D01*
X1098888Y1324709D01*
X1098923Y1324740D01*
X1098964Y1324765D01*
X1099006Y1324816D01*
X1099054Y1324860D01*
X1099076Y1324902D01*
X1099105Y1324939D01*
X1099126Y1325001D01*
X1099157Y1325060D01*
X1099165Y1325114D01*
X1099177Y1325151D01*
X1099176Y1325191D01*
X1099184Y1325245D01*
X1099184Y1329055D01*
X1099173Y1329120D01*
X1099171Y1329186D01*
X1099153Y1329229D01*
X1099145Y1329276D01*
X1099111Y1329333D01*
X1099086Y1329393D01*
X1099055Y1329428D01*
X1099030Y1329469D01*
X1098979Y1329511D01*
X1098935Y1329559D01*
X1098893Y1329581D01*
X1098856Y1329610D01*
X1098794Y1329631D01*
X1098735Y1329662D01*
X1098681Y1329670D01*
X1098644Y1329682D01*
X1098604Y1329681D01*
X1098550Y1329689D01*
X1096010Y1329689D01*
X1095945Y1329678D01*
X1095879Y1329676D01*
X1095836Y1329658D01*
X1095789Y1329650D01*
X1095732Y1329616D01*
X1095672Y1329591D01*
X1095637Y1329560D01*
X1095596Y1329535D01*
X1095555Y1329484D01*
X1095506Y1329440D01*
X1095484Y1329398D01*
X1095455Y1329361D01*
X1095434Y1329299D01*
X1095403Y1329240D01*
X1095395Y1329186D01*
X1095383Y1329149D01*
X1095383Y1329145D01*
X1095383Y1329144D01*
X1095384Y1329109D01*
X1095376Y1329055D01*
X1095376Y1325245D01*
X1095387Y1325180D01*
X1095389Y1325114D01*
X1095407Y1325071D01*
X1095415Y1325024D01*
X1095449Y1324967D01*
X1095474Y1324907D01*
X1095505Y1324872D01*
X1095530Y1324831D01*
X1095581Y1324790D01*
X1095625Y1324741D01*
X1095667Y1324719D01*
X1095704Y1324690D01*
X1095766Y1324669D01*
X1095825Y1324638D01*
X1095879Y1324630D01*
X1095916Y1324618D01*
X1095956Y1324619D01*
X1096010Y1324611D01*
X1098550Y1324611D01*
X1098615Y1324622D01*
G37*
G36*
X321375Y1324622D02*
X321375Y1324622D01*
X321441Y1324624D01*
X321484Y1324642D01*
X321531Y1324650D01*
X321588Y1324684D01*
X321648Y1324709D01*
X321683Y1324740D01*
X321724Y1324765D01*
X321766Y1324816D01*
X321814Y1324860D01*
X321836Y1324902D01*
X321865Y1324939D01*
X321886Y1325001D01*
X321917Y1325060D01*
X321925Y1325114D01*
X321937Y1325151D01*
X321936Y1325191D01*
X321944Y1325245D01*
X321944Y1329055D01*
X321933Y1329120D01*
X321931Y1329186D01*
X321913Y1329229D01*
X321905Y1329276D01*
X321871Y1329333D01*
X321846Y1329393D01*
X321815Y1329428D01*
X321790Y1329469D01*
X321739Y1329511D01*
X321695Y1329559D01*
X321653Y1329581D01*
X321616Y1329610D01*
X321554Y1329631D01*
X321495Y1329662D01*
X321441Y1329670D01*
X321404Y1329682D01*
X321364Y1329681D01*
X321310Y1329689D01*
X318770Y1329689D01*
X318705Y1329678D01*
X318639Y1329676D01*
X318596Y1329658D01*
X318549Y1329650D01*
X318492Y1329616D01*
X318432Y1329591D01*
X318397Y1329560D01*
X318356Y1329535D01*
X318315Y1329484D01*
X318266Y1329440D01*
X318244Y1329398D01*
X318215Y1329361D01*
X318194Y1329299D01*
X318163Y1329240D01*
X318155Y1329186D01*
X318143Y1329149D01*
X318143Y1329145D01*
X318143Y1329144D01*
X318144Y1329109D01*
X318136Y1329055D01*
X318136Y1325245D01*
X318147Y1325180D01*
X318149Y1325114D01*
X318167Y1325071D01*
X318175Y1325024D01*
X318209Y1324967D01*
X318234Y1324907D01*
X318265Y1324872D01*
X318290Y1324831D01*
X318341Y1324790D01*
X318385Y1324741D01*
X318427Y1324719D01*
X318464Y1324690D01*
X318526Y1324669D01*
X318585Y1324638D01*
X318639Y1324630D01*
X318676Y1324618D01*
X318716Y1324619D01*
X318770Y1324611D01*
X321310Y1324611D01*
X321375Y1324622D01*
G37*
G36*
X839535Y1324622D02*
X839535Y1324622D01*
X839601Y1324624D01*
X839644Y1324642D01*
X839691Y1324650D01*
X839748Y1324684D01*
X839808Y1324709D01*
X839843Y1324740D01*
X839884Y1324765D01*
X839926Y1324816D01*
X839974Y1324860D01*
X839996Y1324902D01*
X840025Y1324939D01*
X840046Y1325001D01*
X840077Y1325060D01*
X840085Y1325114D01*
X840097Y1325151D01*
X840096Y1325191D01*
X840104Y1325245D01*
X840104Y1329055D01*
X840093Y1329120D01*
X840091Y1329186D01*
X840073Y1329229D01*
X840065Y1329276D01*
X840031Y1329333D01*
X840006Y1329393D01*
X839975Y1329428D01*
X839950Y1329469D01*
X839899Y1329511D01*
X839855Y1329559D01*
X839813Y1329581D01*
X839776Y1329610D01*
X839714Y1329631D01*
X839655Y1329662D01*
X839601Y1329670D01*
X839564Y1329682D01*
X839524Y1329681D01*
X839470Y1329689D01*
X836930Y1329689D01*
X836865Y1329678D01*
X836799Y1329676D01*
X836756Y1329658D01*
X836709Y1329650D01*
X836652Y1329616D01*
X836592Y1329591D01*
X836557Y1329560D01*
X836516Y1329535D01*
X836475Y1329484D01*
X836426Y1329440D01*
X836404Y1329398D01*
X836375Y1329361D01*
X836354Y1329299D01*
X836323Y1329240D01*
X836315Y1329186D01*
X836303Y1329149D01*
X836303Y1329145D01*
X836303Y1329144D01*
X836304Y1329109D01*
X836296Y1329055D01*
X836296Y1325245D01*
X836307Y1325180D01*
X836309Y1325114D01*
X836327Y1325071D01*
X836335Y1325024D01*
X836369Y1324967D01*
X836394Y1324907D01*
X836425Y1324872D01*
X836450Y1324831D01*
X836501Y1324790D01*
X836545Y1324741D01*
X836587Y1324719D01*
X836624Y1324690D01*
X836686Y1324669D01*
X836745Y1324638D01*
X836799Y1324630D01*
X836836Y1324618D01*
X836876Y1324619D01*
X836930Y1324611D01*
X839470Y1324611D01*
X839535Y1324622D01*
G37*
G36*
X580455Y1324622D02*
X580455Y1324622D01*
X580521Y1324624D01*
X580564Y1324642D01*
X580611Y1324650D01*
X580668Y1324684D01*
X580728Y1324709D01*
X580763Y1324740D01*
X580804Y1324765D01*
X580846Y1324816D01*
X580894Y1324860D01*
X580916Y1324902D01*
X580945Y1324939D01*
X580966Y1325001D01*
X580997Y1325060D01*
X581005Y1325114D01*
X581017Y1325151D01*
X581016Y1325191D01*
X581024Y1325245D01*
X581024Y1329055D01*
X581013Y1329120D01*
X581011Y1329186D01*
X580993Y1329229D01*
X580985Y1329276D01*
X580951Y1329333D01*
X580926Y1329393D01*
X580895Y1329428D01*
X580870Y1329469D01*
X580819Y1329511D01*
X580775Y1329559D01*
X580733Y1329581D01*
X580696Y1329610D01*
X580634Y1329631D01*
X580575Y1329662D01*
X580521Y1329670D01*
X580484Y1329682D01*
X580444Y1329681D01*
X580390Y1329689D01*
X577850Y1329689D01*
X577785Y1329678D01*
X577719Y1329676D01*
X577676Y1329658D01*
X577629Y1329650D01*
X577572Y1329616D01*
X577512Y1329591D01*
X577477Y1329560D01*
X577436Y1329535D01*
X577395Y1329484D01*
X577346Y1329440D01*
X577324Y1329398D01*
X577295Y1329361D01*
X577274Y1329299D01*
X577243Y1329240D01*
X577235Y1329186D01*
X577223Y1329149D01*
X577223Y1329145D01*
X577223Y1329144D01*
X577224Y1329109D01*
X577216Y1329055D01*
X577216Y1325245D01*
X577227Y1325180D01*
X577229Y1325114D01*
X577247Y1325071D01*
X577255Y1325024D01*
X577289Y1324967D01*
X577314Y1324907D01*
X577345Y1324872D01*
X577370Y1324831D01*
X577421Y1324790D01*
X577465Y1324741D01*
X577507Y1324719D01*
X577544Y1324690D01*
X577606Y1324669D01*
X577665Y1324638D01*
X577719Y1324630D01*
X577756Y1324618D01*
X577796Y1324619D01*
X577850Y1324611D01*
X580390Y1324611D01*
X580455Y1324622D01*
G37*
G36*
X62295Y1324622D02*
X62295Y1324622D01*
X62361Y1324624D01*
X62404Y1324642D01*
X62451Y1324650D01*
X62508Y1324684D01*
X62568Y1324709D01*
X62603Y1324740D01*
X62644Y1324765D01*
X62686Y1324816D01*
X62734Y1324860D01*
X62756Y1324902D01*
X62785Y1324939D01*
X62806Y1325001D01*
X62837Y1325060D01*
X62845Y1325114D01*
X62857Y1325151D01*
X62856Y1325191D01*
X62864Y1325245D01*
X62864Y1329055D01*
X62853Y1329120D01*
X62851Y1329186D01*
X62833Y1329229D01*
X62825Y1329276D01*
X62791Y1329333D01*
X62766Y1329393D01*
X62735Y1329428D01*
X62710Y1329469D01*
X62659Y1329511D01*
X62615Y1329559D01*
X62573Y1329581D01*
X62536Y1329610D01*
X62474Y1329631D01*
X62415Y1329662D01*
X62361Y1329670D01*
X62324Y1329682D01*
X62284Y1329681D01*
X62230Y1329689D01*
X59690Y1329689D01*
X59625Y1329678D01*
X59559Y1329676D01*
X59516Y1329658D01*
X59469Y1329650D01*
X59412Y1329616D01*
X59352Y1329591D01*
X59317Y1329560D01*
X59276Y1329535D01*
X59235Y1329484D01*
X59186Y1329440D01*
X59164Y1329398D01*
X59135Y1329361D01*
X59114Y1329299D01*
X59083Y1329240D01*
X59075Y1329186D01*
X59063Y1329149D01*
X59063Y1329145D01*
X59063Y1329144D01*
X59064Y1329109D01*
X59056Y1329055D01*
X59056Y1325245D01*
X59067Y1325180D01*
X59069Y1325114D01*
X59087Y1325071D01*
X59095Y1325024D01*
X59129Y1324967D01*
X59154Y1324907D01*
X59185Y1324872D01*
X59210Y1324831D01*
X59261Y1324790D01*
X59305Y1324741D01*
X59347Y1324719D01*
X59384Y1324690D01*
X59446Y1324669D01*
X59505Y1324638D01*
X59559Y1324630D01*
X59596Y1324618D01*
X59636Y1324619D01*
X59690Y1324611D01*
X62230Y1324611D01*
X62295Y1324622D01*
G37*
G36*
X321375Y1065542D02*
X321375Y1065542D01*
X321441Y1065544D01*
X321484Y1065562D01*
X321531Y1065570D01*
X321588Y1065604D01*
X321648Y1065629D01*
X321683Y1065660D01*
X321724Y1065685D01*
X321766Y1065736D01*
X321814Y1065780D01*
X321836Y1065822D01*
X321865Y1065859D01*
X321886Y1065921D01*
X321917Y1065980D01*
X321925Y1066034D01*
X321937Y1066071D01*
X321936Y1066111D01*
X321944Y1066165D01*
X321944Y1069975D01*
X321933Y1070040D01*
X321931Y1070106D01*
X321913Y1070149D01*
X321905Y1070196D01*
X321871Y1070253D01*
X321846Y1070313D01*
X321815Y1070348D01*
X321790Y1070389D01*
X321739Y1070431D01*
X321695Y1070479D01*
X321653Y1070501D01*
X321616Y1070530D01*
X321554Y1070551D01*
X321495Y1070582D01*
X321441Y1070590D01*
X321404Y1070602D01*
X321364Y1070601D01*
X321310Y1070609D01*
X318770Y1070609D01*
X318705Y1070598D01*
X318639Y1070596D01*
X318596Y1070578D01*
X318549Y1070570D01*
X318492Y1070536D01*
X318432Y1070511D01*
X318397Y1070480D01*
X318356Y1070455D01*
X318315Y1070404D01*
X318266Y1070360D01*
X318244Y1070318D01*
X318215Y1070281D01*
X318194Y1070219D01*
X318163Y1070160D01*
X318155Y1070106D01*
X318143Y1070069D01*
X318143Y1070065D01*
X318143Y1070064D01*
X318144Y1070029D01*
X318136Y1069975D01*
X318136Y1066165D01*
X318147Y1066100D01*
X318149Y1066034D01*
X318167Y1065991D01*
X318175Y1065944D01*
X318209Y1065887D01*
X318234Y1065827D01*
X318265Y1065792D01*
X318290Y1065751D01*
X318341Y1065710D01*
X318385Y1065661D01*
X318427Y1065639D01*
X318464Y1065610D01*
X318526Y1065589D01*
X318585Y1065558D01*
X318639Y1065550D01*
X318676Y1065538D01*
X318716Y1065539D01*
X318770Y1065531D01*
X321310Y1065531D01*
X321375Y1065542D01*
G37*
G36*
X62295Y1065542D02*
X62295Y1065542D01*
X62361Y1065544D01*
X62404Y1065562D01*
X62451Y1065570D01*
X62508Y1065604D01*
X62568Y1065629D01*
X62603Y1065660D01*
X62644Y1065685D01*
X62686Y1065736D01*
X62734Y1065780D01*
X62756Y1065822D01*
X62785Y1065859D01*
X62806Y1065921D01*
X62837Y1065980D01*
X62845Y1066034D01*
X62857Y1066071D01*
X62856Y1066111D01*
X62864Y1066165D01*
X62864Y1069975D01*
X62853Y1070040D01*
X62851Y1070106D01*
X62833Y1070149D01*
X62825Y1070196D01*
X62791Y1070253D01*
X62766Y1070313D01*
X62735Y1070348D01*
X62710Y1070389D01*
X62659Y1070431D01*
X62615Y1070479D01*
X62573Y1070501D01*
X62536Y1070530D01*
X62474Y1070551D01*
X62415Y1070582D01*
X62361Y1070590D01*
X62324Y1070602D01*
X62284Y1070601D01*
X62230Y1070609D01*
X59690Y1070609D01*
X59625Y1070598D01*
X59559Y1070596D01*
X59516Y1070578D01*
X59469Y1070570D01*
X59412Y1070536D01*
X59352Y1070511D01*
X59317Y1070480D01*
X59276Y1070455D01*
X59235Y1070404D01*
X59186Y1070360D01*
X59164Y1070318D01*
X59135Y1070281D01*
X59114Y1070219D01*
X59083Y1070160D01*
X59075Y1070106D01*
X59063Y1070069D01*
X59063Y1070065D01*
X59063Y1070064D01*
X59064Y1070029D01*
X59056Y1069975D01*
X59056Y1066165D01*
X59067Y1066100D01*
X59069Y1066034D01*
X59087Y1065991D01*
X59095Y1065944D01*
X59129Y1065887D01*
X59154Y1065827D01*
X59185Y1065792D01*
X59210Y1065751D01*
X59261Y1065710D01*
X59305Y1065661D01*
X59347Y1065639D01*
X59384Y1065610D01*
X59446Y1065589D01*
X59505Y1065558D01*
X59559Y1065550D01*
X59596Y1065538D01*
X59636Y1065539D01*
X59690Y1065531D01*
X62230Y1065531D01*
X62295Y1065542D01*
G37*
G36*
X580455Y1065542D02*
X580455Y1065542D01*
X580521Y1065544D01*
X580564Y1065562D01*
X580611Y1065570D01*
X580668Y1065604D01*
X580728Y1065629D01*
X580763Y1065660D01*
X580804Y1065685D01*
X580846Y1065736D01*
X580894Y1065780D01*
X580916Y1065822D01*
X580945Y1065859D01*
X580966Y1065921D01*
X580997Y1065980D01*
X581005Y1066034D01*
X581017Y1066071D01*
X581016Y1066111D01*
X581024Y1066165D01*
X581024Y1069975D01*
X581013Y1070040D01*
X581011Y1070106D01*
X580993Y1070149D01*
X580985Y1070196D01*
X580951Y1070253D01*
X580926Y1070313D01*
X580895Y1070348D01*
X580870Y1070389D01*
X580819Y1070431D01*
X580775Y1070479D01*
X580733Y1070501D01*
X580696Y1070530D01*
X580634Y1070551D01*
X580575Y1070582D01*
X580521Y1070590D01*
X580484Y1070602D01*
X580444Y1070601D01*
X580390Y1070609D01*
X577850Y1070609D01*
X577785Y1070598D01*
X577719Y1070596D01*
X577676Y1070578D01*
X577629Y1070570D01*
X577572Y1070536D01*
X577512Y1070511D01*
X577477Y1070480D01*
X577436Y1070455D01*
X577395Y1070404D01*
X577346Y1070360D01*
X577324Y1070318D01*
X577295Y1070281D01*
X577274Y1070219D01*
X577243Y1070160D01*
X577235Y1070106D01*
X577223Y1070069D01*
X577223Y1070065D01*
X577223Y1070064D01*
X577224Y1070029D01*
X577216Y1069975D01*
X577216Y1066165D01*
X577227Y1066100D01*
X577229Y1066034D01*
X577247Y1065991D01*
X577255Y1065944D01*
X577289Y1065887D01*
X577314Y1065827D01*
X577345Y1065792D01*
X577370Y1065751D01*
X577421Y1065710D01*
X577465Y1065661D01*
X577507Y1065639D01*
X577544Y1065610D01*
X577606Y1065589D01*
X577665Y1065558D01*
X577719Y1065550D01*
X577756Y1065538D01*
X577796Y1065539D01*
X577850Y1065531D01*
X580390Y1065531D01*
X580455Y1065542D01*
G37*
G36*
X839535Y1065542D02*
X839535Y1065542D01*
X839601Y1065544D01*
X839644Y1065562D01*
X839691Y1065570D01*
X839748Y1065604D01*
X839808Y1065629D01*
X839843Y1065660D01*
X839884Y1065685D01*
X839926Y1065736D01*
X839974Y1065780D01*
X839996Y1065822D01*
X840025Y1065859D01*
X840046Y1065921D01*
X840077Y1065980D01*
X840085Y1066034D01*
X840097Y1066071D01*
X840096Y1066111D01*
X840104Y1066165D01*
X840104Y1069975D01*
X840093Y1070040D01*
X840091Y1070106D01*
X840073Y1070149D01*
X840065Y1070196D01*
X840031Y1070253D01*
X840006Y1070313D01*
X839975Y1070348D01*
X839950Y1070389D01*
X839899Y1070431D01*
X839855Y1070479D01*
X839813Y1070501D01*
X839776Y1070530D01*
X839714Y1070551D01*
X839655Y1070582D01*
X839601Y1070590D01*
X839564Y1070602D01*
X839524Y1070601D01*
X839470Y1070609D01*
X836930Y1070609D01*
X836865Y1070598D01*
X836799Y1070596D01*
X836756Y1070578D01*
X836709Y1070570D01*
X836652Y1070536D01*
X836592Y1070511D01*
X836557Y1070480D01*
X836516Y1070455D01*
X836475Y1070404D01*
X836426Y1070360D01*
X836404Y1070318D01*
X836375Y1070281D01*
X836354Y1070219D01*
X836323Y1070160D01*
X836315Y1070106D01*
X836303Y1070069D01*
X836303Y1070065D01*
X836303Y1070064D01*
X836304Y1070029D01*
X836296Y1069975D01*
X836296Y1066165D01*
X836307Y1066100D01*
X836309Y1066034D01*
X836327Y1065991D01*
X836335Y1065944D01*
X836369Y1065887D01*
X836394Y1065827D01*
X836425Y1065792D01*
X836450Y1065751D01*
X836501Y1065710D01*
X836545Y1065661D01*
X836587Y1065639D01*
X836624Y1065610D01*
X836686Y1065589D01*
X836745Y1065558D01*
X836799Y1065550D01*
X836836Y1065538D01*
X836876Y1065539D01*
X836930Y1065531D01*
X839470Y1065531D01*
X839535Y1065542D01*
G37*
G36*
X1098615Y1065542D02*
X1098615Y1065542D01*
X1098681Y1065544D01*
X1098724Y1065562D01*
X1098771Y1065570D01*
X1098828Y1065604D01*
X1098888Y1065629D01*
X1098923Y1065660D01*
X1098964Y1065685D01*
X1099006Y1065736D01*
X1099054Y1065780D01*
X1099076Y1065822D01*
X1099105Y1065859D01*
X1099126Y1065921D01*
X1099157Y1065980D01*
X1099165Y1066034D01*
X1099177Y1066071D01*
X1099176Y1066111D01*
X1099184Y1066165D01*
X1099184Y1069975D01*
X1099173Y1070040D01*
X1099171Y1070106D01*
X1099153Y1070149D01*
X1099145Y1070196D01*
X1099111Y1070253D01*
X1099086Y1070313D01*
X1099055Y1070348D01*
X1099030Y1070389D01*
X1098979Y1070431D01*
X1098935Y1070479D01*
X1098893Y1070501D01*
X1098856Y1070530D01*
X1098794Y1070551D01*
X1098735Y1070582D01*
X1098681Y1070590D01*
X1098644Y1070602D01*
X1098604Y1070601D01*
X1098550Y1070609D01*
X1096010Y1070609D01*
X1095945Y1070598D01*
X1095879Y1070596D01*
X1095836Y1070578D01*
X1095789Y1070570D01*
X1095732Y1070536D01*
X1095672Y1070511D01*
X1095637Y1070480D01*
X1095596Y1070455D01*
X1095555Y1070404D01*
X1095506Y1070360D01*
X1095484Y1070318D01*
X1095455Y1070281D01*
X1095434Y1070219D01*
X1095403Y1070160D01*
X1095395Y1070106D01*
X1095383Y1070069D01*
X1095383Y1070065D01*
X1095383Y1070064D01*
X1095384Y1070029D01*
X1095376Y1069975D01*
X1095376Y1066165D01*
X1095387Y1066100D01*
X1095389Y1066034D01*
X1095407Y1065991D01*
X1095415Y1065944D01*
X1095449Y1065887D01*
X1095474Y1065827D01*
X1095505Y1065792D01*
X1095530Y1065751D01*
X1095581Y1065710D01*
X1095625Y1065661D01*
X1095667Y1065639D01*
X1095704Y1065610D01*
X1095766Y1065589D01*
X1095825Y1065558D01*
X1095879Y1065550D01*
X1095916Y1065538D01*
X1095956Y1065539D01*
X1096010Y1065531D01*
X1098550Y1065531D01*
X1098615Y1065542D01*
G37*
G36*
X839535Y806462D02*
X839535Y806462D01*
X839601Y806464D01*
X839644Y806482D01*
X839691Y806490D01*
X839748Y806524D01*
X839808Y806549D01*
X839843Y806580D01*
X839884Y806605D01*
X839926Y806656D01*
X839974Y806700D01*
X839996Y806742D01*
X840025Y806779D01*
X840046Y806841D01*
X840077Y806900D01*
X840085Y806954D01*
X840097Y806991D01*
X840096Y807031D01*
X840104Y807085D01*
X840104Y810895D01*
X840093Y810960D01*
X840091Y811026D01*
X840073Y811069D01*
X840065Y811116D01*
X840031Y811173D01*
X840006Y811233D01*
X839975Y811268D01*
X839950Y811309D01*
X839899Y811351D01*
X839855Y811399D01*
X839813Y811421D01*
X839776Y811450D01*
X839714Y811471D01*
X839655Y811502D01*
X839601Y811510D01*
X839564Y811522D01*
X839524Y811521D01*
X839470Y811529D01*
X836930Y811529D01*
X836865Y811518D01*
X836799Y811516D01*
X836756Y811498D01*
X836709Y811490D01*
X836652Y811456D01*
X836592Y811431D01*
X836557Y811400D01*
X836516Y811375D01*
X836475Y811324D01*
X836426Y811280D01*
X836404Y811238D01*
X836375Y811201D01*
X836354Y811139D01*
X836323Y811080D01*
X836315Y811026D01*
X836303Y810989D01*
X836303Y810985D01*
X836303Y810984D01*
X836304Y810949D01*
X836296Y810895D01*
X836296Y807085D01*
X836307Y807020D01*
X836309Y806954D01*
X836327Y806911D01*
X836335Y806864D01*
X836369Y806807D01*
X836394Y806747D01*
X836425Y806712D01*
X836450Y806671D01*
X836501Y806630D01*
X836545Y806581D01*
X836587Y806559D01*
X836624Y806530D01*
X836686Y806509D01*
X836745Y806478D01*
X836799Y806470D01*
X836836Y806458D01*
X836876Y806459D01*
X836930Y806451D01*
X839470Y806451D01*
X839535Y806462D01*
G37*
G36*
X1098615Y806462D02*
X1098615Y806462D01*
X1098681Y806464D01*
X1098724Y806482D01*
X1098771Y806490D01*
X1098828Y806524D01*
X1098888Y806549D01*
X1098923Y806580D01*
X1098964Y806605D01*
X1099006Y806656D01*
X1099054Y806700D01*
X1099076Y806742D01*
X1099105Y806779D01*
X1099126Y806841D01*
X1099157Y806900D01*
X1099165Y806954D01*
X1099177Y806991D01*
X1099176Y807031D01*
X1099184Y807085D01*
X1099184Y810895D01*
X1099173Y810960D01*
X1099171Y811026D01*
X1099153Y811069D01*
X1099145Y811116D01*
X1099111Y811173D01*
X1099086Y811233D01*
X1099055Y811268D01*
X1099030Y811309D01*
X1098979Y811351D01*
X1098935Y811399D01*
X1098893Y811421D01*
X1098856Y811450D01*
X1098794Y811471D01*
X1098735Y811502D01*
X1098681Y811510D01*
X1098644Y811522D01*
X1098604Y811521D01*
X1098550Y811529D01*
X1096010Y811529D01*
X1095945Y811518D01*
X1095879Y811516D01*
X1095836Y811498D01*
X1095789Y811490D01*
X1095732Y811456D01*
X1095672Y811431D01*
X1095637Y811400D01*
X1095596Y811375D01*
X1095555Y811324D01*
X1095506Y811280D01*
X1095484Y811238D01*
X1095455Y811201D01*
X1095434Y811139D01*
X1095403Y811080D01*
X1095395Y811026D01*
X1095383Y810989D01*
X1095383Y810985D01*
X1095383Y810984D01*
X1095384Y810949D01*
X1095376Y810895D01*
X1095376Y807085D01*
X1095387Y807020D01*
X1095389Y806954D01*
X1095407Y806911D01*
X1095415Y806864D01*
X1095449Y806807D01*
X1095474Y806747D01*
X1095505Y806712D01*
X1095530Y806671D01*
X1095581Y806630D01*
X1095625Y806581D01*
X1095667Y806559D01*
X1095704Y806530D01*
X1095766Y806509D01*
X1095825Y806478D01*
X1095879Y806470D01*
X1095916Y806458D01*
X1095956Y806459D01*
X1096010Y806451D01*
X1098550Y806451D01*
X1098615Y806462D01*
G37*
G36*
X321375Y806462D02*
X321375Y806462D01*
X321441Y806464D01*
X321484Y806482D01*
X321531Y806490D01*
X321588Y806524D01*
X321648Y806549D01*
X321683Y806580D01*
X321724Y806605D01*
X321766Y806656D01*
X321814Y806700D01*
X321836Y806742D01*
X321865Y806779D01*
X321886Y806841D01*
X321917Y806900D01*
X321925Y806954D01*
X321937Y806991D01*
X321936Y807031D01*
X321944Y807085D01*
X321944Y810895D01*
X321933Y810960D01*
X321931Y811026D01*
X321913Y811069D01*
X321905Y811116D01*
X321871Y811173D01*
X321846Y811233D01*
X321815Y811268D01*
X321790Y811309D01*
X321739Y811351D01*
X321695Y811399D01*
X321653Y811421D01*
X321616Y811450D01*
X321554Y811471D01*
X321495Y811502D01*
X321441Y811510D01*
X321404Y811522D01*
X321364Y811521D01*
X321310Y811529D01*
X318770Y811529D01*
X318705Y811518D01*
X318639Y811516D01*
X318596Y811498D01*
X318549Y811490D01*
X318492Y811456D01*
X318432Y811431D01*
X318397Y811400D01*
X318356Y811375D01*
X318315Y811324D01*
X318266Y811280D01*
X318244Y811238D01*
X318215Y811201D01*
X318194Y811139D01*
X318163Y811080D01*
X318155Y811026D01*
X318143Y810989D01*
X318143Y810985D01*
X318143Y810984D01*
X318144Y810949D01*
X318136Y810895D01*
X318136Y807085D01*
X318147Y807020D01*
X318149Y806954D01*
X318167Y806911D01*
X318175Y806864D01*
X318209Y806807D01*
X318234Y806747D01*
X318265Y806712D01*
X318290Y806671D01*
X318341Y806630D01*
X318385Y806581D01*
X318427Y806559D01*
X318464Y806530D01*
X318526Y806509D01*
X318585Y806478D01*
X318639Y806470D01*
X318676Y806458D01*
X318716Y806459D01*
X318770Y806451D01*
X321310Y806451D01*
X321375Y806462D01*
G37*
G36*
X580455Y806462D02*
X580455Y806462D01*
X580521Y806464D01*
X580564Y806482D01*
X580611Y806490D01*
X580668Y806524D01*
X580728Y806549D01*
X580763Y806580D01*
X580804Y806605D01*
X580846Y806656D01*
X580894Y806700D01*
X580916Y806742D01*
X580945Y806779D01*
X580966Y806841D01*
X580997Y806900D01*
X581005Y806954D01*
X581017Y806991D01*
X581016Y807031D01*
X581024Y807085D01*
X581024Y810895D01*
X581013Y810960D01*
X581011Y811026D01*
X580993Y811069D01*
X580985Y811116D01*
X580951Y811173D01*
X580926Y811233D01*
X580895Y811268D01*
X580870Y811309D01*
X580819Y811351D01*
X580775Y811399D01*
X580733Y811421D01*
X580696Y811450D01*
X580634Y811471D01*
X580575Y811502D01*
X580521Y811510D01*
X580484Y811522D01*
X580444Y811521D01*
X580390Y811529D01*
X577850Y811529D01*
X577785Y811518D01*
X577719Y811516D01*
X577676Y811498D01*
X577629Y811490D01*
X577572Y811456D01*
X577512Y811431D01*
X577477Y811400D01*
X577436Y811375D01*
X577395Y811324D01*
X577346Y811280D01*
X577324Y811238D01*
X577295Y811201D01*
X577274Y811139D01*
X577243Y811080D01*
X577235Y811026D01*
X577223Y810989D01*
X577223Y810985D01*
X577223Y810984D01*
X577224Y810949D01*
X577216Y810895D01*
X577216Y807085D01*
X577227Y807020D01*
X577229Y806954D01*
X577247Y806911D01*
X577255Y806864D01*
X577289Y806807D01*
X577314Y806747D01*
X577345Y806712D01*
X577370Y806671D01*
X577421Y806630D01*
X577465Y806581D01*
X577507Y806559D01*
X577544Y806530D01*
X577606Y806509D01*
X577665Y806478D01*
X577719Y806470D01*
X577756Y806458D01*
X577796Y806459D01*
X577850Y806451D01*
X580390Y806451D01*
X580455Y806462D01*
G37*
G36*
X62295Y806462D02*
X62295Y806462D01*
X62361Y806464D01*
X62404Y806482D01*
X62451Y806490D01*
X62508Y806524D01*
X62568Y806549D01*
X62603Y806580D01*
X62644Y806605D01*
X62686Y806656D01*
X62734Y806700D01*
X62756Y806742D01*
X62785Y806779D01*
X62806Y806841D01*
X62837Y806900D01*
X62845Y806954D01*
X62857Y806991D01*
X62856Y807031D01*
X62864Y807085D01*
X62864Y810895D01*
X62853Y810960D01*
X62851Y811026D01*
X62833Y811069D01*
X62825Y811116D01*
X62791Y811173D01*
X62766Y811233D01*
X62735Y811268D01*
X62710Y811309D01*
X62659Y811351D01*
X62615Y811399D01*
X62573Y811421D01*
X62536Y811450D01*
X62474Y811471D01*
X62415Y811502D01*
X62361Y811510D01*
X62324Y811522D01*
X62284Y811521D01*
X62230Y811529D01*
X59690Y811529D01*
X59625Y811518D01*
X59559Y811516D01*
X59516Y811498D01*
X59469Y811490D01*
X59412Y811456D01*
X59352Y811431D01*
X59317Y811400D01*
X59276Y811375D01*
X59235Y811324D01*
X59186Y811280D01*
X59164Y811238D01*
X59135Y811201D01*
X59114Y811139D01*
X59083Y811080D01*
X59075Y811026D01*
X59063Y810989D01*
X59063Y810985D01*
X59063Y810984D01*
X59064Y810949D01*
X59056Y810895D01*
X59056Y807085D01*
X59067Y807020D01*
X59069Y806954D01*
X59087Y806911D01*
X59095Y806864D01*
X59129Y806807D01*
X59154Y806747D01*
X59185Y806712D01*
X59210Y806671D01*
X59261Y806630D01*
X59305Y806581D01*
X59347Y806559D01*
X59384Y806530D01*
X59446Y806509D01*
X59505Y806478D01*
X59559Y806470D01*
X59596Y806458D01*
X59636Y806459D01*
X59690Y806451D01*
X62230Y806451D01*
X62295Y806462D01*
G37*
G36*
X839535Y547382D02*
X839535Y547382D01*
X839601Y547384D01*
X839644Y547402D01*
X839691Y547410D01*
X839748Y547444D01*
X839808Y547469D01*
X839843Y547500D01*
X839884Y547525D01*
X839926Y547576D01*
X839974Y547620D01*
X839996Y547662D01*
X840025Y547699D01*
X840046Y547761D01*
X840077Y547820D01*
X840085Y547874D01*
X840097Y547911D01*
X840096Y547951D01*
X840104Y548005D01*
X840104Y551815D01*
X840093Y551880D01*
X840091Y551946D01*
X840073Y551989D01*
X840065Y552036D01*
X840031Y552093D01*
X840006Y552153D01*
X839975Y552188D01*
X839950Y552229D01*
X839899Y552271D01*
X839855Y552319D01*
X839813Y552341D01*
X839776Y552370D01*
X839714Y552391D01*
X839655Y552422D01*
X839601Y552430D01*
X839564Y552442D01*
X839524Y552441D01*
X839470Y552449D01*
X836930Y552449D01*
X836865Y552438D01*
X836799Y552436D01*
X836756Y552418D01*
X836709Y552410D01*
X836652Y552376D01*
X836592Y552351D01*
X836557Y552320D01*
X836516Y552295D01*
X836475Y552244D01*
X836426Y552200D01*
X836404Y552158D01*
X836375Y552121D01*
X836354Y552059D01*
X836323Y552000D01*
X836315Y551946D01*
X836303Y551909D01*
X836303Y551905D01*
X836303Y551904D01*
X836304Y551869D01*
X836296Y551815D01*
X836296Y548005D01*
X836307Y547940D01*
X836309Y547874D01*
X836327Y547831D01*
X836335Y547784D01*
X836369Y547727D01*
X836394Y547667D01*
X836425Y547632D01*
X836450Y547591D01*
X836501Y547550D01*
X836545Y547501D01*
X836587Y547479D01*
X836624Y547450D01*
X836686Y547429D01*
X836745Y547398D01*
X836799Y547390D01*
X836836Y547378D01*
X836876Y547379D01*
X836930Y547371D01*
X839470Y547371D01*
X839535Y547382D01*
G37*
G36*
X62295Y547382D02*
X62295Y547382D01*
X62361Y547384D01*
X62404Y547402D01*
X62451Y547410D01*
X62508Y547444D01*
X62568Y547469D01*
X62603Y547500D01*
X62644Y547525D01*
X62686Y547576D01*
X62734Y547620D01*
X62756Y547662D01*
X62785Y547699D01*
X62806Y547761D01*
X62837Y547820D01*
X62845Y547874D01*
X62857Y547911D01*
X62856Y547951D01*
X62864Y548005D01*
X62864Y551815D01*
X62853Y551880D01*
X62851Y551946D01*
X62833Y551989D01*
X62825Y552036D01*
X62791Y552093D01*
X62766Y552153D01*
X62735Y552188D01*
X62710Y552229D01*
X62659Y552271D01*
X62615Y552319D01*
X62573Y552341D01*
X62536Y552370D01*
X62474Y552391D01*
X62415Y552422D01*
X62361Y552430D01*
X62324Y552442D01*
X62284Y552441D01*
X62230Y552449D01*
X59690Y552449D01*
X59625Y552438D01*
X59559Y552436D01*
X59516Y552418D01*
X59469Y552410D01*
X59412Y552376D01*
X59352Y552351D01*
X59317Y552320D01*
X59276Y552295D01*
X59235Y552244D01*
X59186Y552200D01*
X59164Y552158D01*
X59135Y552121D01*
X59114Y552059D01*
X59083Y552000D01*
X59075Y551946D01*
X59063Y551909D01*
X59063Y551905D01*
X59063Y551904D01*
X59064Y551869D01*
X59056Y551815D01*
X59056Y548005D01*
X59067Y547940D01*
X59069Y547874D01*
X59087Y547831D01*
X59095Y547784D01*
X59129Y547727D01*
X59154Y547667D01*
X59185Y547632D01*
X59210Y547591D01*
X59261Y547550D01*
X59305Y547501D01*
X59347Y547479D01*
X59384Y547450D01*
X59446Y547429D01*
X59505Y547398D01*
X59559Y547390D01*
X59596Y547378D01*
X59636Y547379D01*
X59690Y547371D01*
X62230Y547371D01*
X62295Y547382D01*
G37*
G36*
X321375Y547382D02*
X321375Y547382D01*
X321441Y547384D01*
X321484Y547402D01*
X321531Y547410D01*
X321588Y547444D01*
X321648Y547469D01*
X321683Y547500D01*
X321724Y547525D01*
X321766Y547576D01*
X321814Y547620D01*
X321836Y547662D01*
X321865Y547699D01*
X321886Y547761D01*
X321917Y547820D01*
X321925Y547874D01*
X321937Y547911D01*
X321936Y547951D01*
X321944Y548005D01*
X321944Y551815D01*
X321933Y551880D01*
X321931Y551946D01*
X321913Y551989D01*
X321905Y552036D01*
X321871Y552093D01*
X321846Y552153D01*
X321815Y552188D01*
X321790Y552229D01*
X321739Y552271D01*
X321695Y552319D01*
X321653Y552341D01*
X321616Y552370D01*
X321554Y552391D01*
X321495Y552422D01*
X321441Y552430D01*
X321404Y552442D01*
X321364Y552441D01*
X321310Y552449D01*
X318770Y552449D01*
X318705Y552438D01*
X318639Y552436D01*
X318596Y552418D01*
X318549Y552410D01*
X318492Y552376D01*
X318432Y552351D01*
X318397Y552320D01*
X318356Y552295D01*
X318315Y552244D01*
X318266Y552200D01*
X318244Y552158D01*
X318215Y552121D01*
X318194Y552059D01*
X318163Y552000D01*
X318155Y551946D01*
X318143Y551909D01*
X318143Y551905D01*
X318143Y551904D01*
X318144Y551869D01*
X318136Y551815D01*
X318136Y548005D01*
X318147Y547940D01*
X318149Y547874D01*
X318167Y547831D01*
X318175Y547784D01*
X318209Y547727D01*
X318234Y547667D01*
X318265Y547632D01*
X318290Y547591D01*
X318341Y547550D01*
X318385Y547501D01*
X318427Y547479D01*
X318464Y547450D01*
X318526Y547429D01*
X318585Y547398D01*
X318639Y547390D01*
X318676Y547378D01*
X318716Y547379D01*
X318770Y547371D01*
X321310Y547371D01*
X321375Y547382D01*
G37*
G36*
X580455Y547382D02*
X580455Y547382D01*
X580521Y547384D01*
X580564Y547402D01*
X580611Y547410D01*
X580668Y547444D01*
X580728Y547469D01*
X580763Y547500D01*
X580804Y547525D01*
X580846Y547576D01*
X580894Y547620D01*
X580916Y547662D01*
X580945Y547699D01*
X580966Y547761D01*
X580997Y547820D01*
X581005Y547874D01*
X581017Y547911D01*
X581016Y547951D01*
X581024Y548005D01*
X581024Y551815D01*
X581013Y551880D01*
X581011Y551946D01*
X580993Y551989D01*
X580985Y552036D01*
X580951Y552093D01*
X580926Y552153D01*
X580895Y552188D01*
X580870Y552229D01*
X580819Y552271D01*
X580775Y552319D01*
X580733Y552341D01*
X580696Y552370D01*
X580634Y552391D01*
X580575Y552422D01*
X580521Y552430D01*
X580484Y552442D01*
X580444Y552441D01*
X580390Y552449D01*
X577850Y552449D01*
X577785Y552438D01*
X577719Y552436D01*
X577676Y552418D01*
X577629Y552410D01*
X577572Y552376D01*
X577512Y552351D01*
X577477Y552320D01*
X577436Y552295D01*
X577395Y552244D01*
X577346Y552200D01*
X577324Y552158D01*
X577295Y552121D01*
X577274Y552059D01*
X577243Y552000D01*
X577235Y551946D01*
X577223Y551909D01*
X577223Y551905D01*
X577223Y551904D01*
X577224Y551869D01*
X577216Y551815D01*
X577216Y548005D01*
X577227Y547940D01*
X577229Y547874D01*
X577247Y547831D01*
X577255Y547784D01*
X577289Y547727D01*
X577314Y547667D01*
X577345Y547632D01*
X577370Y547591D01*
X577421Y547550D01*
X577465Y547501D01*
X577507Y547479D01*
X577544Y547450D01*
X577606Y547429D01*
X577665Y547398D01*
X577719Y547390D01*
X577756Y547378D01*
X577796Y547379D01*
X577850Y547371D01*
X580390Y547371D01*
X580455Y547382D01*
G37*
G36*
X1098615Y547382D02*
X1098615Y547382D01*
X1098681Y547384D01*
X1098724Y547402D01*
X1098771Y547410D01*
X1098828Y547444D01*
X1098888Y547469D01*
X1098923Y547500D01*
X1098964Y547525D01*
X1099006Y547576D01*
X1099054Y547620D01*
X1099076Y547662D01*
X1099105Y547699D01*
X1099126Y547761D01*
X1099157Y547820D01*
X1099165Y547874D01*
X1099177Y547911D01*
X1099176Y547951D01*
X1099184Y548005D01*
X1099184Y551815D01*
X1099173Y551880D01*
X1099171Y551946D01*
X1099153Y551989D01*
X1099145Y552036D01*
X1099111Y552093D01*
X1099086Y552153D01*
X1099055Y552188D01*
X1099030Y552229D01*
X1098979Y552271D01*
X1098935Y552319D01*
X1098893Y552341D01*
X1098856Y552370D01*
X1098794Y552391D01*
X1098735Y552422D01*
X1098681Y552430D01*
X1098644Y552442D01*
X1098604Y552441D01*
X1098550Y552449D01*
X1096010Y552449D01*
X1095945Y552438D01*
X1095879Y552436D01*
X1095836Y552418D01*
X1095789Y552410D01*
X1095732Y552376D01*
X1095672Y552351D01*
X1095637Y552320D01*
X1095596Y552295D01*
X1095555Y552244D01*
X1095506Y552200D01*
X1095484Y552158D01*
X1095455Y552121D01*
X1095434Y552059D01*
X1095403Y552000D01*
X1095395Y551946D01*
X1095383Y551909D01*
X1095383Y551905D01*
X1095383Y551904D01*
X1095384Y551869D01*
X1095376Y551815D01*
X1095376Y548005D01*
X1095387Y547940D01*
X1095389Y547874D01*
X1095407Y547831D01*
X1095415Y547784D01*
X1095449Y547727D01*
X1095474Y547667D01*
X1095505Y547632D01*
X1095530Y547591D01*
X1095581Y547550D01*
X1095625Y547501D01*
X1095667Y547479D01*
X1095704Y547450D01*
X1095766Y547429D01*
X1095825Y547398D01*
X1095879Y547390D01*
X1095916Y547378D01*
X1095956Y547379D01*
X1096010Y547371D01*
X1098550Y547371D01*
X1098615Y547382D01*
G37*
G36*
X839535Y288302D02*
X839535Y288302D01*
X839601Y288304D01*
X839644Y288322D01*
X839691Y288330D01*
X839748Y288364D01*
X839808Y288389D01*
X839843Y288420D01*
X839884Y288445D01*
X839926Y288496D01*
X839974Y288540D01*
X839996Y288582D01*
X840025Y288619D01*
X840046Y288681D01*
X840077Y288740D01*
X840085Y288794D01*
X840097Y288831D01*
X840096Y288871D01*
X840104Y288925D01*
X840104Y292735D01*
X840093Y292800D01*
X840091Y292866D01*
X840073Y292909D01*
X840065Y292956D01*
X840031Y293013D01*
X840006Y293073D01*
X839975Y293108D01*
X839950Y293149D01*
X839899Y293191D01*
X839855Y293239D01*
X839813Y293261D01*
X839776Y293290D01*
X839714Y293311D01*
X839655Y293342D01*
X839601Y293350D01*
X839564Y293362D01*
X839524Y293361D01*
X839470Y293369D01*
X836930Y293369D01*
X836865Y293358D01*
X836799Y293356D01*
X836756Y293338D01*
X836709Y293330D01*
X836652Y293296D01*
X836592Y293271D01*
X836557Y293240D01*
X836516Y293215D01*
X836475Y293164D01*
X836426Y293120D01*
X836404Y293078D01*
X836375Y293041D01*
X836354Y292979D01*
X836323Y292920D01*
X836315Y292866D01*
X836303Y292829D01*
X836303Y292825D01*
X836303Y292824D01*
X836304Y292789D01*
X836296Y292735D01*
X836296Y288925D01*
X836307Y288860D01*
X836309Y288794D01*
X836327Y288751D01*
X836335Y288704D01*
X836369Y288647D01*
X836394Y288587D01*
X836425Y288552D01*
X836450Y288511D01*
X836501Y288470D01*
X836545Y288421D01*
X836587Y288399D01*
X836624Y288370D01*
X836686Y288349D01*
X836745Y288318D01*
X836799Y288310D01*
X836836Y288298D01*
X836876Y288299D01*
X836930Y288291D01*
X839470Y288291D01*
X839535Y288302D01*
G37*
G36*
X1098615Y288302D02*
X1098615Y288302D01*
X1098681Y288304D01*
X1098724Y288322D01*
X1098771Y288330D01*
X1098828Y288364D01*
X1098888Y288389D01*
X1098923Y288420D01*
X1098964Y288445D01*
X1099006Y288496D01*
X1099054Y288540D01*
X1099076Y288582D01*
X1099105Y288619D01*
X1099126Y288681D01*
X1099157Y288740D01*
X1099165Y288794D01*
X1099177Y288831D01*
X1099176Y288871D01*
X1099184Y288925D01*
X1099184Y292735D01*
X1099173Y292800D01*
X1099171Y292866D01*
X1099153Y292909D01*
X1099145Y292956D01*
X1099111Y293013D01*
X1099086Y293073D01*
X1099055Y293108D01*
X1099030Y293149D01*
X1098979Y293191D01*
X1098935Y293239D01*
X1098893Y293261D01*
X1098856Y293290D01*
X1098794Y293311D01*
X1098735Y293342D01*
X1098681Y293350D01*
X1098644Y293362D01*
X1098604Y293361D01*
X1098550Y293369D01*
X1096010Y293369D01*
X1095945Y293358D01*
X1095879Y293356D01*
X1095836Y293338D01*
X1095789Y293330D01*
X1095732Y293296D01*
X1095672Y293271D01*
X1095637Y293240D01*
X1095596Y293215D01*
X1095555Y293164D01*
X1095506Y293120D01*
X1095484Y293078D01*
X1095455Y293041D01*
X1095434Y292979D01*
X1095403Y292920D01*
X1095395Y292866D01*
X1095383Y292829D01*
X1095383Y292825D01*
X1095383Y292824D01*
X1095384Y292789D01*
X1095376Y292735D01*
X1095376Y288925D01*
X1095387Y288860D01*
X1095389Y288794D01*
X1095407Y288751D01*
X1095415Y288704D01*
X1095449Y288647D01*
X1095474Y288587D01*
X1095505Y288552D01*
X1095530Y288511D01*
X1095581Y288470D01*
X1095625Y288421D01*
X1095667Y288399D01*
X1095704Y288370D01*
X1095766Y288349D01*
X1095825Y288318D01*
X1095879Y288310D01*
X1095916Y288298D01*
X1095956Y288299D01*
X1096010Y288291D01*
X1098550Y288291D01*
X1098615Y288302D01*
G37*
G36*
X580455Y288302D02*
X580455Y288302D01*
X580521Y288304D01*
X580564Y288322D01*
X580611Y288330D01*
X580668Y288364D01*
X580728Y288389D01*
X580763Y288420D01*
X580804Y288445D01*
X580846Y288496D01*
X580894Y288540D01*
X580916Y288582D01*
X580945Y288619D01*
X580966Y288681D01*
X580997Y288740D01*
X581005Y288794D01*
X581017Y288831D01*
X581016Y288871D01*
X581024Y288925D01*
X581024Y292735D01*
X581013Y292800D01*
X581011Y292866D01*
X580993Y292909D01*
X580985Y292956D01*
X580951Y293013D01*
X580926Y293073D01*
X580895Y293108D01*
X580870Y293149D01*
X580819Y293191D01*
X580775Y293239D01*
X580733Y293261D01*
X580696Y293290D01*
X580634Y293311D01*
X580575Y293342D01*
X580521Y293350D01*
X580484Y293362D01*
X580444Y293361D01*
X580390Y293369D01*
X577850Y293369D01*
X577785Y293358D01*
X577719Y293356D01*
X577676Y293338D01*
X577629Y293330D01*
X577572Y293296D01*
X577512Y293271D01*
X577477Y293240D01*
X577436Y293215D01*
X577395Y293164D01*
X577346Y293120D01*
X577324Y293078D01*
X577295Y293041D01*
X577274Y292979D01*
X577243Y292920D01*
X577235Y292866D01*
X577223Y292829D01*
X577223Y292825D01*
X577223Y292824D01*
X577224Y292789D01*
X577216Y292735D01*
X577216Y288925D01*
X577227Y288860D01*
X577229Y288794D01*
X577247Y288751D01*
X577255Y288704D01*
X577289Y288647D01*
X577314Y288587D01*
X577345Y288552D01*
X577370Y288511D01*
X577421Y288470D01*
X577465Y288421D01*
X577507Y288399D01*
X577544Y288370D01*
X577606Y288349D01*
X577665Y288318D01*
X577719Y288310D01*
X577756Y288298D01*
X577796Y288299D01*
X577850Y288291D01*
X580390Y288291D01*
X580455Y288302D01*
G37*
G36*
X321375Y288302D02*
X321375Y288302D01*
X321441Y288304D01*
X321484Y288322D01*
X321531Y288330D01*
X321588Y288364D01*
X321648Y288389D01*
X321683Y288420D01*
X321724Y288445D01*
X321766Y288496D01*
X321814Y288540D01*
X321836Y288582D01*
X321865Y288619D01*
X321886Y288681D01*
X321917Y288740D01*
X321925Y288794D01*
X321937Y288831D01*
X321936Y288871D01*
X321944Y288925D01*
X321944Y292735D01*
X321933Y292800D01*
X321931Y292866D01*
X321913Y292909D01*
X321905Y292956D01*
X321871Y293013D01*
X321846Y293073D01*
X321815Y293108D01*
X321790Y293149D01*
X321739Y293191D01*
X321695Y293239D01*
X321653Y293261D01*
X321616Y293290D01*
X321554Y293311D01*
X321495Y293342D01*
X321441Y293350D01*
X321404Y293362D01*
X321364Y293361D01*
X321310Y293369D01*
X318770Y293369D01*
X318705Y293358D01*
X318639Y293356D01*
X318596Y293338D01*
X318549Y293330D01*
X318492Y293296D01*
X318432Y293271D01*
X318397Y293240D01*
X318356Y293215D01*
X318315Y293164D01*
X318266Y293120D01*
X318244Y293078D01*
X318215Y293041D01*
X318194Y292979D01*
X318163Y292920D01*
X318155Y292866D01*
X318143Y292829D01*
X318143Y292825D01*
X318143Y292824D01*
X318144Y292789D01*
X318136Y292735D01*
X318136Y288925D01*
X318147Y288860D01*
X318149Y288794D01*
X318167Y288751D01*
X318175Y288704D01*
X318209Y288647D01*
X318234Y288587D01*
X318265Y288552D01*
X318290Y288511D01*
X318341Y288470D01*
X318385Y288421D01*
X318427Y288399D01*
X318464Y288370D01*
X318526Y288349D01*
X318585Y288318D01*
X318639Y288310D01*
X318676Y288298D01*
X318716Y288299D01*
X318770Y288291D01*
X321310Y288291D01*
X321375Y288302D01*
G37*
G36*
X62295Y288302D02*
X62295Y288302D01*
X62361Y288304D01*
X62404Y288322D01*
X62451Y288330D01*
X62508Y288364D01*
X62568Y288389D01*
X62603Y288420D01*
X62644Y288445D01*
X62686Y288496D01*
X62734Y288540D01*
X62756Y288582D01*
X62785Y288619D01*
X62806Y288681D01*
X62837Y288740D01*
X62845Y288794D01*
X62857Y288831D01*
X62856Y288871D01*
X62864Y288925D01*
X62864Y292735D01*
X62853Y292800D01*
X62851Y292866D01*
X62833Y292909D01*
X62825Y292956D01*
X62791Y293013D01*
X62766Y293073D01*
X62735Y293108D01*
X62710Y293149D01*
X62659Y293191D01*
X62615Y293239D01*
X62573Y293261D01*
X62536Y293290D01*
X62474Y293311D01*
X62415Y293342D01*
X62361Y293350D01*
X62324Y293362D01*
X62284Y293361D01*
X62230Y293369D01*
X59690Y293369D01*
X59625Y293358D01*
X59559Y293356D01*
X59516Y293338D01*
X59469Y293330D01*
X59412Y293296D01*
X59352Y293271D01*
X59317Y293240D01*
X59276Y293215D01*
X59235Y293164D01*
X59186Y293120D01*
X59164Y293078D01*
X59135Y293041D01*
X59114Y292979D01*
X59083Y292920D01*
X59075Y292866D01*
X59063Y292829D01*
X59063Y292825D01*
X59063Y292824D01*
X59064Y292789D01*
X59056Y292735D01*
X59056Y288925D01*
X59067Y288860D01*
X59069Y288794D01*
X59087Y288751D01*
X59095Y288704D01*
X59129Y288647D01*
X59154Y288587D01*
X59185Y288552D01*
X59210Y288511D01*
X59261Y288470D01*
X59305Y288421D01*
X59347Y288399D01*
X59384Y288370D01*
X59446Y288349D01*
X59505Y288318D01*
X59559Y288310D01*
X59596Y288298D01*
X59636Y288299D01*
X59690Y288291D01*
X62230Y288291D01*
X62295Y288302D01*
G37*
G36*
X1098615Y29222D02*
X1098615Y29222D01*
X1098681Y29224D01*
X1098724Y29242D01*
X1098771Y29250D01*
X1098828Y29284D01*
X1098888Y29309D01*
X1098923Y29340D01*
X1098964Y29365D01*
X1099006Y29416D01*
X1099054Y29460D01*
X1099076Y29502D01*
X1099105Y29539D01*
X1099126Y29601D01*
X1099157Y29660D01*
X1099165Y29714D01*
X1099177Y29751D01*
X1099176Y29791D01*
X1099184Y29845D01*
X1099184Y33655D01*
X1099173Y33720D01*
X1099171Y33786D01*
X1099153Y33829D01*
X1099145Y33876D01*
X1099111Y33933D01*
X1099086Y33993D01*
X1099055Y34028D01*
X1099030Y34069D01*
X1098979Y34111D01*
X1098935Y34159D01*
X1098893Y34181D01*
X1098856Y34210D01*
X1098794Y34231D01*
X1098735Y34262D01*
X1098681Y34270D01*
X1098644Y34282D01*
X1098604Y34281D01*
X1098550Y34289D01*
X1096010Y34289D01*
X1095945Y34278D01*
X1095879Y34276D01*
X1095836Y34258D01*
X1095789Y34250D01*
X1095732Y34216D01*
X1095672Y34191D01*
X1095637Y34160D01*
X1095596Y34135D01*
X1095555Y34084D01*
X1095506Y34040D01*
X1095484Y33998D01*
X1095455Y33961D01*
X1095434Y33899D01*
X1095403Y33840D01*
X1095395Y33786D01*
X1095383Y33749D01*
X1095383Y33745D01*
X1095383Y33744D01*
X1095384Y33709D01*
X1095376Y33655D01*
X1095376Y29845D01*
X1095387Y29780D01*
X1095389Y29714D01*
X1095407Y29671D01*
X1095415Y29624D01*
X1095449Y29567D01*
X1095474Y29507D01*
X1095505Y29472D01*
X1095530Y29431D01*
X1095581Y29390D01*
X1095625Y29341D01*
X1095667Y29319D01*
X1095704Y29290D01*
X1095766Y29269D01*
X1095825Y29238D01*
X1095879Y29230D01*
X1095916Y29218D01*
X1095956Y29219D01*
X1096010Y29211D01*
X1098550Y29211D01*
X1098615Y29222D01*
G37*
G36*
X839535Y29222D02*
X839535Y29222D01*
X839601Y29224D01*
X839644Y29242D01*
X839691Y29250D01*
X839748Y29284D01*
X839808Y29309D01*
X839843Y29340D01*
X839884Y29365D01*
X839926Y29416D01*
X839974Y29460D01*
X839996Y29502D01*
X840025Y29539D01*
X840046Y29601D01*
X840077Y29660D01*
X840085Y29714D01*
X840097Y29751D01*
X840096Y29791D01*
X840104Y29845D01*
X840104Y33655D01*
X840093Y33720D01*
X840091Y33786D01*
X840073Y33829D01*
X840065Y33876D01*
X840031Y33933D01*
X840006Y33993D01*
X839975Y34028D01*
X839950Y34069D01*
X839899Y34111D01*
X839855Y34159D01*
X839813Y34181D01*
X839776Y34210D01*
X839714Y34231D01*
X839655Y34262D01*
X839601Y34270D01*
X839564Y34282D01*
X839524Y34281D01*
X839470Y34289D01*
X836930Y34289D01*
X836865Y34278D01*
X836799Y34276D01*
X836756Y34258D01*
X836709Y34250D01*
X836652Y34216D01*
X836592Y34191D01*
X836557Y34160D01*
X836516Y34135D01*
X836475Y34084D01*
X836426Y34040D01*
X836404Y33998D01*
X836375Y33961D01*
X836354Y33899D01*
X836323Y33840D01*
X836315Y33786D01*
X836303Y33749D01*
X836303Y33745D01*
X836303Y33744D01*
X836304Y33709D01*
X836296Y33655D01*
X836296Y29845D01*
X836307Y29780D01*
X836309Y29714D01*
X836327Y29671D01*
X836335Y29624D01*
X836369Y29567D01*
X836394Y29507D01*
X836425Y29472D01*
X836450Y29431D01*
X836501Y29390D01*
X836545Y29341D01*
X836587Y29319D01*
X836624Y29290D01*
X836686Y29269D01*
X836745Y29238D01*
X836799Y29230D01*
X836836Y29218D01*
X836876Y29219D01*
X836930Y29211D01*
X839470Y29211D01*
X839535Y29222D01*
G37*
G36*
X580455Y29222D02*
X580455Y29222D01*
X580521Y29224D01*
X580564Y29242D01*
X580611Y29250D01*
X580668Y29284D01*
X580728Y29309D01*
X580763Y29340D01*
X580804Y29365D01*
X580846Y29416D01*
X580894Y29460D01*
X580916Y29502D01*
X580945Y29539D01*
X580966Y29601D01*
X580997Y29660D01*
X581005Y29714D01*
X581017Y29751D01*
X581016Y29791D01*
X581024Y29845D01*
X581024Y33655D01*
X581013Y33720D01*
X581011Y33786D01*
X580993Y33829D01*
X580985Y33876D01*
X580951Y33933D01*
X580926Y33993D01*
X580895Y34028D01*
X580870Y34069D01*
X580819Y34111D01*
X580775Y34159D01*
X580733Y34181D01*
X580696Y34210D01*
X580634Y34231D01*
X580575Y34262D01*
X580521Y34270D01*
X580484Y34282D01*
X580444Y34281D01*
X580390Y34289D01*
X577850Y34289D01*
X577785Y34278D01*
X577719Y34276D01*
X577676Y34258D01*
X577629Y34250D01*
X577572Y34216D01*
X577512Y34191D01*
X577477Y34160D01*
X577436Y34135D01*
X577395Y34084D01*
X577346Y34040D01*
X577324Y33998D01*
X577295Y33961D01*
X577274Y33899D01*
X577243Y33840D01*
X577235Y33786D01*
X577223Y33749D01*
X577223Y33745D01*
X577223Y33744D01*
X577224Y33709D01*
X577216Y33655D01*
X577216Y29845D01*
X577227Y29780D01*
X577229Y29714D01*
X577247Y29671D01*
X577255Y29624D01*
X577289Y29567D01*
X577314Y29507D01*
X577345Y29472D01*
X577370Y29431D01*
X577421Y29390D01*
X577465Y29341D01*
X577507Y29319D01*
X577544Y29290D01*
X577606Y29269D01*
X577665Y29238D01*
X577719Y29230D01*
X577756Y29218D01*
X577796Y29219D01*
X577850Y29211D01*
X580390Y29211D01*
X580455Y29222D01*
G37*
G36*
X321375Y29222D02*
X321375Y29222D01*
X321441Y29224D01*
X321484Y29242D01*
X321531Y29250D01*
X321588Y29284D01*
X321648Y29309D01*
X321683Y29340D01*
X321724Y29365D01*
X321766Y29416D01*
X321814Y29460D01*
X321836Y29502D01*
X321865Y29539D01*
X321886Y29601D01*
X321917Y29660D01*
X321925Y29714D01*
X321937Y29751D01*
X321936Y29791D01*
X321944Y29845D01*
X321944Y33655D01*
X321933Y33720D01*
X321931Y33786D01*
X321913Y33829D01*
X321905Y33876D01*
X321871Y33933D01*
X321846Y33993D01*
X321815Y34028D01*
X321790Y34069D01*
X321739Y34111D01*
X321695Y34159D01*
X321653Y34181D01*
X321616Y34210D01*
X321554Y34231D01*
X321495Y34262D01*
X321441Y34270D01*
X321404Y34282D01*
X321364Y34281D01*
X321310Y34289D01*
X318770Y34289D01*
X318705Y34278D01*
X318639Y34276D01*
X318596Y34258D01*
X318549Y34250D01*
X318492Y34216D01*
X318432Y34191D01*
X318397Y34160D01*
X318356Y34135D01*
X318315Y34084D01*
X318266Y34040D01*
X318244Y33998D01*
X318215Y33961D01*
X318194Y33899D01*
X318163Y33840D01*
X318155Y33786D01*
X318143Y33749D01*
X318143Y33745D01*
X318143Y33744D01*
X318144Y33709D01*
X318136Y33655D01*
X318136Y29845D01*
X318147Y29780D01*
X318149Y29714D01*
X318167Y29671D01*
X318175Y29624D01*
X318209Y29567D01*
X318234Y29507D01*
X318265Y29472D01*
X318290Y29431D01*
X318341Y29390D01*
X318385Y29341D01*
X318427Y29319D01*
X318464Y29290D01*
X318526Y29269D01*
X318585Y29238D01*
X318639Y29230D01*
X318676Y29218D01*
X318716Y29219D01*
X318770Y29211D01*
X321310Y29211D01*
X321375Y29222D01*
G37*
G36*
X62295Y29222D02*
X62295Y29222D01*
X62361Y29224D01*
X62404Y29242D01*
X62451Y29250D01*
X62508Y29284D01*
X62568Y29309D01*
X62603Y29340D01*
X62644Y29365D01*
X62686Y29416D01*
X62734Y29460D01*
X62756Y29502D01*
X62785Y29539D01*
X62806Y29601D01*
X62837Y29660D01*
X62845Y29714D01*
X62857Y29751D01*
X62856Y29791D01*
X62864Y29845D01*
X62864Y33655D01*
X62853Y33720D01*
X62851Y33786D01*
X62833Y33829D01*
X62825Y33876D01*
X62791Y33933D01*
X62766Y33993D01*
X62735Y34028D01*
X62710Y34069D01*
X62659Y34111D01*
X62615Y34159D01*
X62573Y34181D01*
X62536Y34210D01*
X62474Y34231D01*
X62415Y34262D01*
X62361Y34270D01*
X62324Y34282D01*
X62284Y34281D01*
X62230Y34289D01*
X59690Y34289D01*
X59625Y34278D01*
X59559Y34276D01*
X59516Y34258D01*
X59469Y34250D01*
X59412Y34216D01*
X59352Y34191D01*
X59317Y34160D01*
X59276Y34135D01*
X59235Y34084D01*
X59186Y34040D01*
X59164Y33998D01*
X59135Y33961D01*
X59114Y33899D01*
X59083Y33840D01*
X59075Y33786D01*
X59063Y33749D01*
X59063Y33745D01*
X59063Y33744D01*
X59064Y33709D01*
X59056Y33655D01*
X59056Y29845D01*
X59067Y29780D01*
X59069Y29714D01*
X59087Y29671D01*
X59095Y29624D01*
X59129Y29567D01*
X59154Y29507D01*
X59185Y29472D01*
X59210Y29431D01*
X59261Y29390D01*
X59305Y29341D01*
X59347Y29319D01*
X59384Y29290D01*
X59446Y29269D01*
X59505Y29238D01*
X59559Y29230D01*
X59596Y29218D01*
X59636Y29219D01*
X59690Y29211D01*
X62230Y29211D01*
X62295Y29222D01*
G37*
D10*
X25400Y228600D03*
X228600Y228600D03*
D11*
X245110Y8890D03*
X7620Y246380D03*
D12*
X14050Y155000D03*
X14050Y99000D03*
D13*
X50800Y142000D03*
X50800Y132000D03*
X50800Y122000D03*
X50800Y112000D03*
D12*
X239950Y99000D03*
X239950Y155000D03*
D13*
X203200Y112000D03*
X203200Y122000D03*
X203200Y132000D03*
X203200Y142000D03*
D14*
X52460Y55880D03*
X69460Y55880D03*
D15*
X66240Y68900D02*
X66240Y75880D01*
X73220Y75880D01*
X73220Y68900D01*
X66240Y68900D01*
X66240Y73700D02*
X73220Y73700D01*
X48700Y75880D02*
X48700Y68900D01*
X48700Y75880D02*
X55680Y75880D01*
X55680Y68900D01*
X48700Y68900D01*
X48700Y73700D02*
X55680Y73700D01*
D16*
X119020Y126920D03*
X119020Y116920D03*
X137520Y116920D03*
X137520Y126920D03*
D17*
X128270Y121920D03*
D14*
X136770Y172720D03*
X119770Y172720D03*
X136770Y190500D03*
X119770Y190500D03*
X119770Y143510D03*
X136770Y143510D03*
D18*
X60960Y36957D03*
X60960Y26543D03*
D10*
X25400Y25400D03*
X228600Y25400D03*
D19*
X88900Y12700D03*
X114300Y12700D03*
X139700Y12700D03*
X165100Y12700D03*
D10*
X284480Y228600D03*
X487680Y228600D03*
D11*
X504190Y8890D03*
X266700Y246380D03*
D12*
X273130Y155000D03*
X273130Y99000D03*
D13*
X309880Y142000D03*
X309880Y132000D03*
X309880Y122000D03*
X309880Y112000D03*
D12*
X499030Y99000D03*
X499030Y155000D03*
D13*
X462280Y112000D03*
X462280Y122000D03*
X462280Y132000D03*
X462280Y142000D03*
D14*
X311540Y55880D03*
X328540Y55880D03*
D15*
X325320Y68900D02*
X325320Y75880D01*
X332300Y75880D01*
X332300Y68900D01*
X325320Y68900D01*
X325320Y73700D02*
X332300Y73700D01*
X307780Y75880D02*
X307780Y68900D01*
X307780Y75880D02*
X314760Y75880D01*
X314760Y68900D01*
X307780Y68900D01*
X307780Y73700D02*
X314760Y73700D01*
D16*
X378100Y126920D03*
X378100Y116920D03*
X396600Y116920D03*
X396600Y126920D03*
D17*
X387350Y121920D03*
D14*
X395850Y172720D03*
X378850Y172720D03*
X395850Y190500D03*
X378850Y190500D03*
X378850Y143510D03*
X395850Y143510D03*
D18*
X320040Y36957D03*
X320040Y26543D03*
D10*
X284480Y25400D03*
X487680Y25400D03*
D19*
X347980Y12700D03*
X373380Y12700D03*
X398780Y12700D03*
X424180Y12700D03*
D10*
X543560Y228600D03*
X746760Y228600D03*
D11*
X763270Y8890D03*
X525780Y246380D03*
D12*
X532210Y155000D03*
X532210Y99000D03*
D13*
X568960Y142000D03*
X568960Y132000D03*
X568960Y122000D03*
X568960Y112000D03*
D12*
X758110Y99000D03*
X758110Y155000D03*
D13*
X721360Y112000D03*
X721360Y122000D03*
X721360Y132000D03*
X721360Y142000D03*
D14*
X570620Y55880D03*
X587620Y55880D03*
D15*
X584400Y68900D02*
X584400Y75880D01*
X591380Y75880D01*
X591380Y68900D01*
X584400Y68900D01*
X584400Y73700D02*
X591380Y73700D01*
X566860Y75880D02*
X566860Y68900D01*
X566860Y75880D02*
X573840Y75880D01*
X573840Y68900D01*
X566860Y68900D01*
X566860Y73700D02*
X573840Y73700D01*
D16*
X637180Y126920D03*
X637180Y116920D03*
X655680Y116920D03*
X655680Y126920D03*
D17*
X646430Y121920D03*
D14*
X654930Y172720D03*
X637930Y172720D03*
X654930Y190500D03*
X637930Y190500D03*
X637930Y143510D03*
X654930Y143510D03*
D18*
X579120Y36957D03*
X579120Y26543D03*
D10*
X543560Y25400D03*
X746760Y25400D03*
D19*
X607060Y12700D03*
X632460Y12700D03*
X657860Y12700D03*
X683260Y12700D03*
D10*
X802640Y228600D03*
X1005840Y228600D03*
D11*
X1022350Y8890D03*
X784860Y246380D03*
D12*
X791290Y155000D03*
X791290Y99000D03*
D13*
X828040Y142000D03*
X828040Y132000D03*
X828040Y122000D03*
X828040Y112000D03*
D12*
X1017190Y99000D03*
X1017190Y155000D03*
D13*
X980440Y112000D03*
X980440Y122000D03*
X980440Y132000D03*
X980440Y142000D03*
D14*
X829700Y55880D03*
X846700Y55880D03*
D15*
X843480Y68900D02*
X843480Y75880D01*
X850460Y75880D01*
X850460Y68900D01*
X843480Y68900D01*
X843480Y73700D02*
X850460Y73700D01*
X825940Y75880D02*
X825940Y68900D01*
X825940Y75880D02*
X832920Y75880D01*
X832920Y68900D01*
X825940Y68900D01*
X825940Y73700D02*
X832920Y73700D01*
D16*
X896260Y126920D03*
X896260Y116920D03*
X914760Y116920D03*
X914760Y126920D03*
D17*
X905510Y121920D03*
D14*
X914010Y172720D03*
X897010Y172720D03*
X914010Y190500D03*
X897010Y190500D03*
X897010Y143510D03*
X914010Y143510D03*
D18*
X838200Y36957D03*
X838200Y26543D03*
D10*
X802640Y25400D03*
X1005840Y25400D03*
D19*
X866140Y12700D03*
X891540Y12700D03*
X916940Y12700D03*
X942340Y12700D03*
D10*
X1061720Y228600D03*
X1264920Y228600D03*
D11*
X1281430Y8890D03*
X1043940Y246380D03*
D12*
X1050370Y155000D03*
X1050370Y99000D03*
D13*
X1087120Y142000D03*
X1087120Y132000D03*
X1087120Y122000D03*
X1087120Y112000D03*
D12*
X1276270Y99000D03*
X1276270Y155000D03*
D13*
X1239520Y112000D03*
X1239520Y122000D03*
X1239520Y132000D03*
X1239520Y142000D03*
D14*
X1088780Y55880D03*
X1105780Y55880D03*
D15*
X1102560Y68900D02*
X1102560Y75880D01*
X1109540Y75880D01*
X1109540Y68900D01*
X1102560Y68900D01*
X1102560Y73700D02*
X1109540Y73700D01*
X1085020Y75880D02*
X1085020Y68900D01*
X1085020Y75880D02*
X1092000Y75880D01*
X1092000Y68900D01*
X1085020Y68900D01*
X1085020Y73700D02*
X1092000Y73700D01*
D16*
X1155340Y126920D03*
X1155340Y116920D03*
X1173840Y116920D03*
X1173840Y126920D03*
D17*
X1164590Y121920D03*
D14*
X1173090Y172720D03*
X1156090Y172720D03*
X1173090Y190500D03*
X1156090Y190500D03*
X1156090Y143510D03*
X1173090Y143510D03*
D18*
X1097280Y36957D03*
X1097280Y26543D03*
D10*
X1061720Y25400D03*
X1264920Y25400D03*
D19*
X1125220Y12700D03*
X1150620Y12700D03*
X1176020Y12700D03*
X1201420Y12700D03*
D10*
X25400Y487680D03*
X228600Y487680D03*
D11*
X245110Y267970D03*
X7620Y505460D03*
D12*
X14050Y414080D03*
X14050Y358080D03*
D13*
X50800Y401080D03*
X50800Y391080D03*
X50800Y381080D03*
X50800Y371080D03*
D12*
X239950Y358080D03*
X239950Y414080D03*
D13*
X203200Y371080D03*
X203200Y381080D03*
X203200Y391080D03*
X203200Y401080D03*
D14*
X52460Y314960D03*
X69460Y314960D03*
D15*
X66240Y327980D02*
X66240Y334960D01*
X73220Y334960D01*
X73220Y327980D01*
X66240Y327980D01*
X66240Y332780D02*
X73220Y332780D01*
X48700Y334960D02*
X48700Y327980D01*
X48700Y334960D02*
X55680Y334960D01*
X55680Y327980D01*
X48700Y327980D01*
X48700Y332780D02*
X55680Y332780D01*
D16*
X119020Y386000D03*
X119020Y376000D03*
X137520Y376000D03*
X137520Y386000D03*
D17*
X128270Y381000D03*
D14*
X136770Y431800D03*
X119770Y431800D03*
X136770Y449580D03*
X119770Y449580D03*
X119770Y402590D03*
X136770Y402590D03*
D18*
X60960Y296037D03*
X60960Y285623D03*
D10*
X25400Y284480D03*
X228600Y284480D03*
D19*
X88900Y271780D03*
X114300Y271780D03*
X139700Y271780D03*
X165100Y271780D03*
D10*
X284480Y487680D03*
X487680Y487680D03*
D11*
X504190Y267970D03*
X266700Y505460D03*
D12*
X273130Y414080D03*
X273130Y358080D03*
D13*
X309880Y401080D03*
X309880Y391080D03*
X309880Y381080D03*
X309880Y371080D03*
D12*
X499030Y358080D03*
X499030Y414080D03*
D13*
X462280Y371080D03*
X462280Y381080D03*
X462280Y391080D03*
X462280Y401080D03*
D14*
X311540Y314960D03*
X328540Y314960D03*
D15*
X325320Y327980D02*
X325320Y334960D01*
X332300Y334960D01*
X332300Y327980D01*
X325320Y327980D01*
X325320Y332780D02*
X332300Y332780D01*
X307780Y334960D02*
X307780Y327980D01*
X307780Y334960D02*
X314760Y334960D01*
X314760Y327980D01*
X307780Y327980D01*
X307780Y332780D02*
X314760Y332780D01*
D16*
X378100Y386000D03*
X378100Y376000D03*
X396600Y376000D03*
X396600Y386000D03*
D17*
X387350Y381000D03*
D14*
X395850Y431800D03*
X378850Y431800D03*
X395850Y449580D03*
X378850Y449580D03*
X378850Y402590D03*
X395850Y402590D03*
D18*
X320040Y296037D03*
X320040Y285623D03*
D10*
X284480Y284480D03*
X487680Y284480D03*
D19*
X347980Y271780D03*
X373380Y271780D03*
X398780Y271780D03*
X424180Y271780D03*
D10*
X543560Y487680D03*
X746760Y487680D03*
D11*
X763270Y267970D03*
X525780Y505460D03*
D12*
X532210Y414080D03*
X532210Y358080D03*
D13*
X568960Y401080D03*
X568960Y391080D03*
X568960Y381080D03*
X568960Y371080D03*
D12*
X758110Y358080D03*
X758110Y414080D03*
D13*
X721360Y371080D03*
X721360Y381080D03*
X721360Y391080D03*
X721360Y401080D03*
D14*
X570620Y314960D03*
X587620Y314960D03*
D15*
X584400Y327980D02*
X584400Y334960D01*
X591380Y334960D01*
X591380Y327980D01*
X584400Y327980D01*
X584400Y332780D02*
X591380Y332780D01*
X566860Y334960D02*
X566860Y327980D01*
X566860Y334960D02*
X573840Y334960D01*
X573840Y327980D01*
X566860Y327980D01*
X566860Y332780D02*
X573840Y332780D01*
D16*
X637180Y386000D03*
X637180Y376000D03*
X655680Y376000D03*
X655680Y386000D03*
D17*
X646430Y381000D03*
D14*
X654930Y431800D03*
X637930Y431800D03*
X654930Y449580D03*
X637930Y449580D03*
X637930Y402590D03*
X654930Y402590D03*
D18*
X579120Y296037D03*
X579120Y285623D03*
D10*
X543560Y284480D03*
X746760Y284480D03*
D19*
X607060Y271780D03*
X632460Y271780D03*
X657860Y271780D03*
X683260Y271780D03*
D10*
X802640Y487680D03*
X1005840Y487680D03*
D11*
X1022350Y267970D03*
X784860Y505460D03*
D12*
X791290Y414080D03*
X791290Y358080D03*
D13*
X828040Y401080D03*
X828040Y391080D03*
X828040Y381080D03*
X828040Y371080D03*
D12*
X1017190Y358080D03*
X1017190Y414080D03*
D13*
X980440Y371080D03*
X980440Y381080D03*
X980440Y391080D03*
X980440Y401080D03*
D14*
X829700Y314960D03*
X846700Y314960D03*
D15*
X843480Y327980D02*
X843480Y334960D01*
X850460Y334960D01*
X850460Y327980D01*
X843480Y327980D01*
X843480Y332780D02*
X850460Y332780D01*
X825940Y334960D02*
X825940Y327980D01*
X825940Y334960D02*
X832920Y334960D01*
X832920Y327980D01*
X825940Y327980D01*
X825940Y332780D02*
X832920Y332780D01*
D16*
X896260Y386000D03*
X896260Y376000D03*
X914760Y376000D03*
X914760Y386000D03*
D17*
X905510Y381000D03*
D14*
X914010Y431800D03*
X897010Y431800D03*
X914010Y449580D03*
X897010Y449580D03*
X897010Y402590D03*
X914010Y402590D03*
D18*
X838200Y296037D03*
X838200Y285623D03*
D10*
X802640Y284480D03*
X1005840Y284480D03*
D19*
X866140Y271780D03*
X891540Y271780D03*
X916940Y271780D03*
X942340Y271780D03*
D10*
X1061720Y487680D03*
X1264920Y487680D03*
D11*
X1281430Y267970D03*
X1043940Y505460D03*
D12*
X1050370Y414080D03*
X1050370Y358080D03*
D13*
X1087120Y401080D03*
X1087120Y391080D03*
X1087120Y381080D03*
X1087120Y371080D03*
D12*
X1276270Y358080D03*
X1276270Y414080D03*
D13*
X1239520Y371080D03*
X1239520Y381080D03*
X1239520Y391080D03*
X1239520Y401080D03*
D14*
X1088780Y314960D03*
X1105780Y314960D03*
D15*
X1102560Y327980D02*
X1102560Y334960D01*
X1109540Y334960D01*
X1109540Y327980D01*
X1102560Y327980D01*
X1102560Y332780D02*
X1109540Y332780D01*
X1085020Y334960D02*
X1085020Y327980D01*
X1085020Y334960D02*
X1092000Y334960D01*
X1092000Y327980D01*
X1085020Y327980D01*
X1085020Y332780D02*
X1092000Y332780D01*
D16*
X1155340Y386000D03*
X1155340Y376000D03*
X1173840Y376000D03*
X1173840Y386000D03*
D17*
X1164590Y381000D03*
D14*
X1173090Y431800D03*
X1156090Y431800D03*
X1173090Y449580D03*
X1156090Y449580D03*
X1156090Y402590D03*
X1173090Y402590D03*
D18*
X1097280Y296037D03*
X1097280Y285623D03*
D10*
X1061720Y284480D03*
X1264920Y284480D03*
D19*
X1125220Y271780D03*
X1150620Y271780D03*
X1176020Y271780D03*
X1201420Y271780D03*
D10*
X25400Y746760D03*
X228600Y746760D03*
D11*
X245110Y527050D03*
X7620Y764540D03*
D12*
X14050Y673160D03*
X14050Y617160D03*
D13*
X50800Y660160D03*
X50800Y650160D03*
X50800Y640160D03*
X50800Y630160D03*
D12*
X239950Y617160D03*
X239950Y673160D03*
D13*
X203200Y630160D03*
X203200Y640160D03*
X203200Y650160D03*
X203200Y660160D03*
D14*
X52460Y574040D03*
X69460Y574040D03*
D15*
X66240Y587060D02*
X66240Y594040D01*
X73220Y594040D01*
X73220Y587060D01*
X66240Y587060D01*
X66240Y591860D02*
X73220Y591860D01*
X48700Y594040D02*
X48700Y587060D01*
X48700Y594040D02*
X55680Y594040D01*
X55680Y587060D01*
X48700Y587060D01*
X48700Y591860D02*
X55680Y591860D01*
D16*
X119020Y645080D03*
X119020Y635080D03*
X137520Y635080D03*
X137520Y645080D03*
D17*
X128270Y640080D03*
D14*
X136770Y690880D03*
X119770Y690880D03*
X136770Y708660D03*
X119770Y708660D03*
X119770Y661670D03*
X136770Y661670D03*
D18*
X60960Y555117D03*
X60960Y544703D03*
D10*
X25400Y543560D03*
X228600Y543560D03*
D19*
X88900Y530860D03*
X114300Y530860D03*
X139700Y530860D03*
X165100Y530860D03*
D10*
X284480Y746760D03*
X487680Y746760D03*
D11*
X504190Y527050D03*
X266700Y764540D03*
D12*
X273130Y673160D03*
X273130Y617160D03*
D13*
X309880Y660160D03*
X309880Y650160D03*
X309880Y640160D03*
X309880Y630160D03*
D12*
X499030Y617160D03*
X499030Y673160D03*
D13*
X462280Y630160D03*
X462280Y640160D03*
X462280Y650160D03*
X462280Y660160D03*
D14*
X311540Y574040D03*
X328540Y574040D03*
D15*
X325320Y587060D02*
X325320Y594040D01*
X332300Y594040D01*
X332300Y587060D01*
X325320Y587060D01*
X325320Y591860D02*
X332300Y591860D01*
X307780Y594040D02*
X307780Y587060D01*
X307780Y594040D02*
X314760Y594040D01*
X314760Y587060D01*
X307780Y587060D01*
X307780Y591860D02*
X314760Y591860D01*
D16*
X378100Y645080D03*
X378100Y635080D03*
X396600Y635080D03*
X396600Y645080D03*
D17*
X387350Y640080D03*
D14*
X395850Y690880D03*
X378850Y690880D03*
X395850Y708660D03*
X378850Y708660D03*
X378850Y661670D03*
X395850Y661670D03*
D18*
X320040Y555117D03*
X320040Y544703D03*
D10*
X284480Y543560D03*
X487680Y543560D03*
D19*
X347980Y530860D03*
X373380Y530860D03*
X398780Y530860D03*
X424180Y530860D03*
D10*
X543560Y746760D03*
X746760Y746760D03*
D11*
X763270Y527050D03*
X525780Y764540D03*
D12*
X532210Y673160D03*
X532210Y617160D03*
D13*
X568960Y660160D03*
X568960Y650160D03*
X568960Y640160D03*
X568960Y630160D03*
D12*
X758110Y617160D03*
X758110Y673160D03*
D13*
X721360Y630160D03*
X721360Y640160D03*
X721360Y650160D03*
X721360Y660160D03*
D14*
X570620Y574040D03*
X587620Y574040D03*
D15*
X584400Y587060D02*
X584400Y594040D01*
X591380Y594040D01*
X591380Y587060D01*
X584400Y587060D01*
X584400Y591860D02*
X591380Y591860D01*
X566860Y594040D02*
X566860Y587060D01*
X566860Y594040D02*
X573840Y594040D01*
X573840Y587060D01*
X566860Y587060D01*
X566860Y591860D02*
X573840Y591860D01*
D16*
X637180Y645080D03*
X637180Y635080D03*
X655680Y635080D03*
X655680Y645080D03*
D17*
X646430Y640080D03*
D14*
X654930Y690880D03*
X637930Y690880D03*
X654930Y708660D03*
X637930Y708660D03*
X637930Y661670D03*
X654930Y661670D03*
D18*
X579120Y555117D03*
X579120Y544703D03*
D10*
X543560Y543560D03*
X746760Y543560D03*
D19*
X607060Y530860D03*
X632460Y530860D03*
X657860Y530860D03*
X683260Y530860D03*
D10*
X802640Y746760D03*
X1005840Y746760D03*
D11*
X1022350Y527050D03*
X784860Y764540D03*
D12*
X791290Y673160D03*
X791290Y617160D03*
D13*
X828040Y660160D03*
X828040Y650160D03*
X828040Y640160D03*
X828040Y630160D03*
D12*
X1017190Y617160D03*
X1017190Y673160D03*
D13*
X980440Y630160D03*
X980440Y640160D03*
X980440Y650160D03*
X980440Y660160D03*
D14*
X829700Y574040D03*
X846700Y574040D03*
D15*
X843480Y587060D02*
X843480Y594040D01*
X850460Y594040D01*
X850460Y587060D01*
X843480Y587060D01*
X843480Y591860D02*
X850460Y591860D01*
X825940Y594040D02*
X825940Y587060D01*
X825940Y594040D02*
X832920Y594040D01*
X832920Y587060D01*
X825940Y587060D01*
X825940Y591860D02*
X832920Y591860D01*
D16*
X896260Y645080D03*
X896260Y635080D03*
X914760Y635080D03*
X914760Y645080D03*
D17*
X905510Y640080D03*
D14*
X914010Y690880D03*
X897010Y690880D03*
X914010Y708660D03*
X897010Y708660D03*
X897010Y661670D03*
X914010Y661670D03*
D18*
X838200Y555117D03*
X838200Y544703D03*
D10*
X802640Y543560D03*
X1005840Y543560D03*
D19*
X866140Y530860D03*
X891540Y530860D03*
X916940Y530860D03*
X942340Y530860D03*
D10*
X1061720Y746760D03*
X1264920Y746760D03*
D11*
X1281430Y527050D03*
X1043940Y764540D03*
D12*
X1050370Y673160D03*
X1050370Y617160D03*
D13*
X1087120Y660160D03*
X1087120Y650160D03*
X1087120Y640160D03*
X1087120Y630160D03*
D12*
X1276270Y617160D03*
X1276270Y673160D03*
D13*
X1239520Y630160D03*
X1239520Y640160D03*
X1239520Y650160D03*
X1239520Y660160D03*
D14*
X1088780Y574040D03*
X1105780Y574040D03*
D15*
X1102560Y587060D02*
X1102560Y594040D01*
X1109540Y594040D01*
X1109540Y587060D01*
X1102560Y587060D01*
X1102560Y591860D02*
X1109540Y591860D01*
X1085020Y594040D02*
X1085020Y587060D01*
X1085020Y594040D02*
X1092000Y594040D01*
X1092000Y587060D01*
X1085020Y587060D01*
X1085020Y591860D02*
X1092000Y591860D01*
D16*
X1155340Y645080D03*
X1155340Y635080D03*
X1173840Y635080D03*
X1173840Y645080D03*
D17*
X1164590Y640080D03*
D14*
X1173090Y690880D03*
X1156090Y690880D03*
X1173090Y708660D03*
X1156090Y708660D03*
X1156090Y661670D03*
X1173090Y661670D03*
D18*
X1097280Y555117D03*
X1097280Y544703D03*
D10*
X1061720Y543560D03*
X1264920Y543560D03*
D19*
X1125220Y530860D03*
X1150620Y530860D03*
X1176020Y530860D03*
X1201420Y530860D03*
D10*
X25400Y1005840D03*
X228600Y1005840D03*
D11*
X245110Y786130D03*
X7620Y1023620D03*
D12*
X14050Y932240D03*
X14050Y876240D03*
D13*
X50800Y919240D03*
X50800Y909240D03*
X50800Y899240D03*
X50800Y889240D03*
D12*
X239950Y876240D03*
X239950Y932240D03*
D13*
X203200Y889240D03*
X203200Y899240D03*
X203200Y909240D03*
X203200Y919240D03*
D14*
X52460Y833120D03*
X69460Y833120D03*
D15*
X66240Y846140D02*
X66240Y853120D01*
X73220Y853120D01*
X73220Y846140D01*
X66240Y846140D01*
X66240Y850940D02*
X73220Y850940D01*
X48700Y853120D02*
X48700Y846140D01*
X48700Y853120D02*
X55680Y853120D01*
X55680Y846140D01*
X48700Y846140D01*
X48700Y850940D02*
X55680Y850940D01*
D16*
X119020Y904160D03*
X119020Y894160D03*
X137520Y894160D03*
X137520Y904160D03*
D17*
X128270Y899160D03*
D14*
X136770Y949960D03*
X119770Y949960D03*
X136770Y967740D03*
X119770Y967740D03*
X119770Y920750D03*
X136770Y920750D03*
D18*
X60960Y814197D03*
X60960Y803783D03*
D10*
X25400Y802640D03*
X228600Y802640D03*
D19*
X88900Y789940D03*
X114300Y789940D03*
X139700Y789940D03*
X165100Y789940D03*
D10*
X284480Y1005840D03*
X487680Y1005840D03*
D11*
X504190Y786130D03*
X266700Y1023620D03*
D12*
X273130Y932240D03*
X273130Y876240D03*
D13*
X309880Y919240D03*
X309880Y909240D03*
X309880Y899240D03*
X309880Y889240D03*
D12*
X499030Y876240D03*
X499030Y932240D03*
D13*
X462280Y889240D03*
X462280Y899240D03*
X462280Y909240D03*
X462280Y919240D03*
D14*
X311540Y833120D03*
X328540Y833120D03*
D15*
X325320Y846140D02*
X325320Y853120D01*
X332300Y853120D01*
X332300Y846140D01*
X325320Y846140D01*
X325320Y850940D02*
X332300Y850940D01*
X307780Y853120D02*
X307780Y846140D01*
X307780Y853120D02*
X314760Y853120D01*
X314760Y846140D01*
X307780Y846140D01*
X307780Y850940D02*
X314760Y850940D01*
D16*
X378100Y904160D03*
X378100Y894160D03*
X396600Y894160D03*
X396600Y904160D03*
D17*
X387350Y899160D03*
D14*
X395850Y949960D03*
X378850Y949960D03*
X395850Y967740D03*
X378850Y967740D03*
X378850Y920750D03*
X395850Y920750D03*
D18*
X320040Y814197D03*
X320040Y803783D03*
D10*
X284480Y802640D03*
X487680Y802640D03*
D19*
X347980Y789940D03*
X373380Y789940D03*
X398780Y789940D03*
X424180Y789940D03*
D10*
X543560Y1005840D03*
X746760Y1005840D03*
D11*
X763270Y786130D03*
X525780Y1023620D03*
D12*
X532210Y932240D03*
X532210Y876240D03*
D13*
X568960Y919240D03*
X568960Y909240D03*
X568960Y899240D03*
X568960Y889240D03*
D12*
X758110Y876240D03*
X758110Y932240D03*
D13*
X721360Y889240D03*
X721360Y899240D03*
X721360Y909240D03*
X721360Y919240D03*
D14*
X570620Y833120D03*
X587620Y833120D03*
D15*
X584400Y846140D02*
X584400Y853120D01*
X591380Y853120D01*
X591380Y846140D01*
X584400Y846140D01*
X584400Y850940D02*
X591380Y850940D01*
X566860Y853120D02*
X566860Y846140D01*
X566860Y853120D02*
X573840Y853120D01*
X573840Y846140D01*
X566860Y846140D01*
X566860Y850940D02*
X573840Y850940D01*
D16*
X637180Y904160D03*
X637180Y894160D03*
X655680Y894160D03*
X655680Y904160D03*
D17*
X646430Y899160D03*
D14*
X654930Y949960D03*
X637930Y949960D03*
X654930Y967740D03*
X637930Y967740D03*
X637930Y920750D03*
X654930Y920750D03*
D18*
X579120Y814197D03*
X579120Y803783D03*
D10*
X543560Y802640D03*
X746760Y802640D03*
D19*
X607060Y789940D03*
X632460Y789940D03*
X657860Y789940D03*
X683260Y789940D03*
D10*
X802640Y1005840D03*
X1005840Y1005840D03*
D11*
X1022350Y786130D03*
X784860Y1023620D03*
D12*
X791290Y932240D03*
X791290Y876240D03*
D13*
X828040Y919240D03*
X828040Y909240D03*
X828040Y899240D03*
X828040Y889240D03*
D12*
X1017190Y876240D03*
X1017190Y932240D03*
D13*
X980440Y889240D03*
X980440Y899240D03*
X980440Y909240D03*
X980440Y919240D03*
D14*
X829700Y833120D03*
X846700Y833120D03*
D15*
X843480Y846140D02*
X843480Y853120D01*
X850460Y853120D01*
X850460Y846140D01*
X843480Y846140D01*
X843480Y850940D02*
X850460Y850940D01*
X825940Y853120D02*
X825940Y846140D01*
X825940Y853120D02*
X832920Y853120D01*
X832920Y846140D01*
X825940Y846140D01*
X825940Y850940D02*
X832920Y850940D01*
D16*
X896260Y904160D03*
X896260Y894160D03*
X914760Y894160D03*
X914760Y904160D03*
D17*
X905510Y899160D03*
D14*
X914010Y949960D03*
X897010Y949960D03*
X914010Y967740D03*
X897010Y967740D03*
X897010Y920750D03*
X914010Y920750D03*
D18*
X838200Y814197D03*
X838200Y803783D03*
D10*
X802640Y802640D03*
X1005840Y802640D03*
D19*
X866140Y789940D03*
X891540Y789940D03*
X916940Y789940D03*
X942340Y789940D03*
D10*
X1061720Y1005840D03*
X1264920Y1005840D03*
D11*
X1281430Y786130D03*
X1043940Y1023620D03*
D12*
X1050370Y932240D03*
X1050370Y876240D03*
D13*
X1087120Y919240D03*
X1087120Y909240D03*
X1087120Y899240D03*
X1087120Y889240D03*
D12*
X1276270Y876240D03*
X1276270Y932240D03*
D13*
X1239520Y889240D03*
X1239520Y899240D03*
X1239520Y909240D03*
X1239520Y919240D03*
D14*
X1088780Y833120D03*
X1105780Y833120D03*
D15*
X1102560Y846140D02*
X1102560Y853120D01*
X1109540Y853120D01*
X1109540Y846140D01*
X1102560Y846140D01*
X1102560Y850940D02*
X1109540Y850940D01*
X1085020Y853120D02*
X1085020Y846140D01*
X1085020Y853120D02*
X1092000Y853120D01*
X1092000Y846140D01*
X1085020Y846140D01*
X1085020Y850940D02*
X1092000Y850940D01*
D16*
X1155340Y904160D03*
X1155340Y894160D03*
X1173840Y894160D03*
X1173840Y904160D03*
D17*
X1164590Y899160D03*
D14*
X1173090Y949960D03*
X1156090Y949960D03*
X1173090Y967740D03*
X1156090Y967740D03*
X1156090Y920750D03*
X1173090Y920750D03*
D18*
X1097280Y814197D03*
X1097280Y803783D03*
D10*
X1061720Y802640D03*
X1264920Y802640D03*
D19*
X1125220Y789940D03*
X1150620Y789940D03*
X1176020Y789940D03*
X1201420Y789940D03*
D10*
X25400Y1264920D03*
X228600Y1264920D03*
D11*
X245110Y1045210D03*
X7620Y1282700D03*
D12*
X14050Y1191320D03*
X14050Y1135320D03*
D13*
X50800Y1178320D03*
X50800Y1168320D03*
X50800Y1158320D03*
X50800Y1148320D03*
D12*
X239950Y1135320D03*
X239950Y1191320D03*
D13*
X203200Y1148320D03*
X203200Y1158320D03*
X203200Y1168320D03*
X203200Y1178320D03*
D14*
X52460Y1092200D03*
X69460Y1092200D03*
D15*
X66240Y1105220D02*
X66240Y1112200D01*
X73220Y1112200D01*
X73220Y1105220D01*
X66240Y1105220D01*
X66240Y1110020D02*
X73220Y1110020D01*
X48700Y1112200D02*
X48700Y1105220D01*
X48700Y1112200D02*
X55680Y1112200D01*
X55680Y1105220D01*
X48700Y1105220D01*
X48700Y1110020D02*
X55680Y1110020D01*
D16*
X119020Y1163240D03*
X119020Y1153240D03*
X137520Y1153240D03*
X137520Y1163240D03*
D17*
X128270Y1158240D03*
D14*
X136770Y1209040D03*
X119770Y1209040D03*
X136770Y1226820D03*
X119770Y1226820D03*
X119770Y1179830D03*
X136770Y1179830D03*
D18*
X60960Y1073277D03*
X60960Y1062863D03*
D10*
X25400Y1061720D03*
X228600Y1061720D03*
D19*
X88900Y1049020D03*
X114300Y1049020D03*
X139700Y1049020D03*
X165100Y1049020D03*
D10*
X284480Y1264920D03*
X487680Y1264920D03*
D11*
X504190Y1045210D03*
X266700Y1282700D03*
D12*
X273130Y1191320D03*
X273130Y1135320D03*
D13*
X309880Y1178320D03*
X309880Y1168320D03*
X309880Y1158320D03*
X309880Y1148320D03*
D12*
X499030Y1135320D03*
X499030Y1191320D03*
D13*
X462280Y1148320D03*
X462280Y1158320D03*
X462280Y1168320D03*
X462280Y1178320D03*
D14*
X311540Y1092200D03*
X328540Y1092200D03*
D15*
X325320Y1105220D02*
X325320Y1112200D01*
X332300Y1112200D01*
X332300Y1105220D01*
X325320Y1105220D01*
X325320Y1110020D02*
X332300Y1110020D01*
X307780Y1112200D02*
X307780Y1105220D01*
X307780Y1112200D02*
X314760Y1112200D01*
X314760Y1105220D01*
X307780Y1105220D01*
X307780Y1110020D02*
X314760Y1110020D01*
D16*
X378100Y1163240D03*
X378100Y1153240D03*
X396600Y1153240D03*
X396600Y1163240D03*
D17*
X387350Y1158240D03*
D14*
X395850Y1209040D03*
X378850Y1209040D03*
X395850Y1226820D03*
X378850Y1226820D03*
X378850Y1179830D03*
X395850Y1179830D03*
D18*
X320040Y1073277D03*
X320040Y1062863D03*
D10*
X284480Y1061720D03*
X487680Y1061720D03*
D19*
X347980Y1049020D03*
X373380Y1049020D03*
X398780Y1049020D03*
X424180Y1049020D03*
D10*
X543560Y1264920D03*
X746760Y1264920D03*
D11*
X763270Y1045210D03*
X525780Y1282700D03*
D12*
X532210Y1191320D03*
X532210Y1135320D03*
D13*
X568960Y1178320D03*
X568960Y1168320D03*
X568960Y1158320D03*
X568960Y1148320D03*
D12*
X758110Y1135320D03*
X758110Y1191320D03*
D13*
X721360Y1148320D03*
X721360Y1158320D03*
X721360Y1168320D03*
X721360Y1178320D03*
D14*
X570620Y1092200D03*
X587620Y1092200D03*
D15*
X584400Y1105220D02*
X584400Y1112200D01*
X591380Y1112200D01*
X591380Y1105220D01*
X584400Y1105220D01*
X584400Y1110020D02*
X591380Y1110020D01*
X566860Y1112200D02*
X566860Y1105220D01*
X566860Y1112200D02*
X573840Y1112200D01*
X573840Y1105220D01*
X566860Y1105220D01*
X566860Y1110020D02*
X573840Y1110020D01*
D16*
X637180Y1163240D03*
X637180Y1153240D03*
X655680Y1153240D03*
X655680Y1163240D03*
D17*
X646430Y1158240D03*
D14*
X654930Y1209040D03*
X637930Y1209040D03*
X654930Y1226820D03*
X637930Y1226820D03*
X637930Y1179830D03*
X654930Y1179830D03*
D18*
X579120Y1073277D03*
X579120Y1062863D03*
D10*
X543560Y1061720D03*
X746760Y1061720D03*
D19*
X607060Y1049020D03*
X632460Y1049020D03*
X657860Y1049020D03*
X683260Y1049020D03*
D10*
X802640Y1264920D03*
X1005840Y1264920D03*
D11*
X1022350Y1045210D03*
X784860Y1282700D03*
D12*
X791290Y1191320D03*
X791290Y1135320D03*
D13*
X828040Y1178320D03*
X828040Y1168320D03*
X828040Y1158320D03*
X828040Y1148320D03*
D12*
X1017190Y1135320D03*
X1017190Y1191320D03*
D13*
X980440Y1148320D03*
X980440Y1158320D03*
X980440Y1168320D03*
X980440Y1178320D03*
D14*
X829700Y1092200D03*
X846700Y1092200D03*
D15*
X843480Y1105220D02*
X843480Y1112200D01*
X850460Y1112200D01*
X850460Y1105220D01*
X843480Y1105220D01*
X843480Y1110020D02*
X850460Y1110020D01*
X825940Y1112200D02*
X825940Y1105220D01*
X825940Y1112200D02*
X832920Y1112200D01*
X832920Y1105220D01*
X825940Y1105220D01*
X825940Y1110020D02*
X832920Y1110020D01*
D16*
X896260Y1163240D03*
X896260Y1153240D03*
X914760Y1153240D03*
X914760Y1163240D03*
D17*
X905510Y1158240D03*
D14*
X914010Y1209040D03*
X897010Y1209040D03*
X914010Y1226820D03*
X897010Y1226820D03*
X897010Y1179830D03*
X914010Y1179830D03*
D18*
X838200Y1073277D03*
X838200Y1062863D03*
D10*
X802640Y1061720D03*
X1005840Y1061720D03*
D19*
X866140Y1049020D03*
X891540Y1049020D03*
X916940Y1049020D03*
X942340Y1049020D03*
D10*
X1061720Y1264920D03*
X1264920Y1264920D03*
D11*
X1281430Y1045210D03*
X1043940Y1282700D03*
D12*
X1050370Y1191320D03*
X1050370Y1135320D03*
D13*
X1087120Y1178320D03*
X1087120Y1168320D03*
X1087120Y1158320D03*
X1087120Y1148320D03*
D12*
X1276270Y1135320D03*
X1276270Y1191320D03*
D13*
X1239520Y1148320D03*
X1239520Y1158320D03*
X1239520Y1168320D03*
X1239520Y1178320D03*
D14*
X1088780Y1092200D03*
X1105780Y1092200D03*
D15*
X1102560Y1105220D02*
X1102560Y1112200D01*
X1109540Y1112200D01*
X1109540Y1105220D01*
X1102560Y1105220D01*
X1102560Y1110020D02*
X1109540Y1110020D01*
X1085020Y1112200D02*
X1085020Y1105220D01*
X1085020Y1112200D02*
X1092000Y1112200D01*
X1092000Y1105220D01*
X1085020Y1105220D01*
X1085020Y1110020D02*
X1092000Y1110020D01*
D16*
X1155340Y1163240D03*
X1155340Y1153240D03*
X1173840Y1153240D03*
X1173840Y1163240D03*
D17*
X1164590Y1158240D03*
D14*
X1173090Y1209040D03*
X1156090Y1209040D03*
X1173090Y1226820D03*
X1156090Y1226820D03*
X1156090Y1179830D03*
X1173090Y1179830D03*
D18*
X1097280Y1073277D03*
X1097280Y1062863D03*
D10*
X1061720Y1061720D03*
X1264920Y1061720D03*
D19*
X1125220Y1049020D03*
X1150620Y1049020D03*
X1176020Y1049020D03*
X1201420Y1049020D03*
D10*
X25400Y1524000D03*
X228600Y1524000D03*
D11*
X245110Y1304290D03*
X7620Y1541780D03*
D12*
X14050Y1450400D03*
X14050Y1394400D03*
D13*
X50800Y1437400D03*
X50800Y1427400D03*
X50800Y1417400D03*
X50800Y1407400D03*
D12*
X239950Y1394400D03*
X239950Y1450400D03*
D13*
X203200Y1407400D03*
X203200Y1417400D03*
X203200Y1427400D03*
X203200Y1437400D03*
D14*
X52460Y1351280D03*
X69460Y1351280D03*
D15*
X66240Y1364300D02*
X66240Y1371280D01*
X73220Y1371280D01*
X73220Y1364300D01*
X66240Y1364300D01*
X66240Y1369100D02*
X73220Y1369100D01*
X48700Y1371280D02*
X48700Y1364300D01*
X48700Y1371280D02*
X55680Y1371280D01*
X55680Y1364300D01*
X48700Y1364300D01*
X48700Y1369100D02*
X55680Y1369100D01*
D16*
X119020Y1422320D03*
X119020Y1412320D03*
X137520Y1412320D03*
X137520Y1422320D03*
D17*
X128270Y1417320D03*
D14*
X136770Y1468120D03*
X119770Y1468120D03*
X136770Y1485900D03*
X119770Y1485900D03*
X119770Y1438910D03*
X136770Y1438910D03*
D18*
X60960Y1332357D03*
X60960Y1321943D03*
D10*
X25400Y1320800D03*
X228600Y1320800D03*
D19*
X88900Y1308100D03*
X114300Y1308100D03*
X139700Y1308100D03*
X165100Y1308100D03*
D10*
X284480Y1524000D03*
X487680Y1524000D03*
D11*
X504190Y1304290D03*
X266700Y1541780D03*
D12*
X273130Y1450400D03*
X273130Y1394400D03*
D13*
X309880Y1437400D03*
X309880Y1427400D03*
X309880Y1417400D03*
X309880Y1407400D03*
D12*
X499030Y1394400D03*
X499030Y1450400D03*
D13*
X462280Y1407400D03*
X462280Y1417400D03*
X462280Y1427400D03*
X462280Y1437400D03*
D14*
X311540Y1351280D03*
X328540Y1351280D03*
D15*
X325320Y1364300D02*
X325320Y1371280D01*
X332300Y1371280D01*
X332300Y1364300D01*
X325320Y1364300D01*
X325320Y1369100D02*
X332300Y1369100D01*
X307780Y1371280D02*
X307780Y1364300D01*
X307780Y1371280D02*
X314760Y1371280D01*
X314760Y1364300D01*
X307780Y1364300D01*
X307780Y1369100D02*
X314760Y1369100D01*
D16*
X378100Y1422320D03*
X378100Y1412320D03*
X396600Y1412320D03*
X396600Y1422320D03*
D17*
X387350Y1417320D03*
D14*
X395850Y1468120D03*
X378850Y1468120D03*
X395850Y1485900D03*
X378850Y1485900D03*
X378850Y1438910D03*
X395850Y1438910D03*
D18*
X320040Y1332357D03*
X320040Y1321943D03*
D10*
X284480Y1320800D03*
X487680Y1320800D03*
D19*
X347980Y1308100D03*
X373380Y1308100D03*
X398780Y1308100D03*
X424180Y1308100D03*
D10*
X543560Y1524000D03*
X746760Y1524000D03*
D11*
X763270Y1304290D03*
X525780Y1541780D03*
D12*
X532210Y1450400D03*
X532210Y1394400D03*
D13*
X568960Y1437400D03*
X568960Y1427400D03*
X568960Y1417400D03*
X568960Y1407400D03*
D12*
X758110Y1394400D03*
X758110Y1450400D03*
D13*
X721360Y1407400D03*
X721360Y1417400D03*
X721360Y1427400D03*
X721360Y1437400D03*
D14*
X570620Y1351280D03*
X587620Y1351280D03*
D15*
X584400Y1364300D02*
X584400Y1371280D01*
X591380Y1371280D01*
X591380Y1364300D01*
X584400Y1364300D01*
X584400Y1369100D02*
X591380Y1369100D01*
X566860Y1371280D02*
X566860Y1364300D01*
X566860Y1371280D02*
X573840Y1371280D01*
X573840Y1364300D01*
X566860Y1364300D01*
X566860Y1369100D02*
X573840Y1369100D01*
D16*
X637180Y1422320D03*
X637180Y1412320D03*
X655680Y1412320D03*
X655680Y1422320D03*
D17*
X646430Y1417320D03*
D14*
X654930Y1468120D03*
X637930Y1468120D03*
X654930Y1485900D03*
X637930Y1485900D03*
X637930Y1438910D03*
X654930Y1438910D03*
D18*
X579120Y1332357D03*
X579120Y1321943D03*
D10*
X543560Y1320800D03*
X746760Y1320800D03*
D19*
X607060Y1308100D03*
X632460Y1308100D03*
X657860Y1308100D03*
X683260Y1308100D03*
D10*
X802640Y1524000D03*
X1005840Y1524000D03*
D11*
X1022350Y1304290D03*
X784860Y1541780D03*
D12*
X791290Y1450400D03*
X791290Y1394400D03*
D13*
X828040Y1437400D03*
X828040Y1427400D03*
X828040Y1417400D03*
X828040Y1407400D03*
D12*
X1017190Y1394400D03*
X1017190Y1450400D03*
D13*
X980440Y1407400D03*
X980440Y1417400D03*
X980440Y1427400D03*
X980440Y1437400D03*
D14*
X829700Y1351280D03*
X846700Y1351280D03*
D15*
X843480Y1364300D02*
X843480Y1371280D01*
X850460Y1371280D01*
X850460Y1364300D01*
X843480Y1364300D01*
X843480Y1369100D02*
X850460Y1369100D01*
X825940Y1371280D02*
X825940Y1364300D01*
X825940Y1371280D02*
X832920Y1371280D01*
X832920Y1364300D01*
X825940Y1364300D01*
X825940Y1369100D02*
X832920Y1369100D01*
D16*
X896260Y1422320D03*
X896260Y1412320D03*
X914760Y1412320D03*
X914760Y1422320D03*
D17*
X905510Y1417320D03*
D14*
X914010Y1468120D03*
X897010Y1468120D03*
X914010Y1485900D03*
X897010Y1485900D03*
X897010Y1438910D03*
X914010Y1438910D03*
D18*
X838200Y1332357D03*
X838200Y1321943D03*
D10*
X802640Y1320800D03*
X1005840Y1320800D03*
D19*
X866140Y1308100D03*
X891540Y1308100D03*
X916940Y1308100D03*
X942340Y1308100D03*
D10*
X1061720Y1524000D03*
X1264920Y1524000D03*
D11*
X1281430Y1304290D03*
X1043940Y1541780D03*
D12*
X1050370Y1450400D03*
X1050370Y1394400D03*
D13*
X1087120Y1437400D03*
X1087120Y1427400D03*
X1087120Y1417400D03*
X1087120Y1407400D03*
D12*
X1276270Y1394400D03*
X1276270Y1450400D03*
D13*
X1239520Y1407400D03*
X1239520Y1417400D03*
X1239520Y1427400D03*
X1239520Y1437400D03*
D14*
X1088780Y1351280D03*
X1105780Y1351280D03*
D15*
X1102560Y1364300D02*
X1102560Y1371280D01*
X1109540Y1371280D01*
X1109540Y1364300D01*
X1102560Y1364300D01*
X1102560Y1369100D02*
X1109540Y1369100D01*
X1085020Y1371280D02*
X1085020Y1364300D01*
X1085020Y1371280D02*
X1092000Y1371280D01*
X1092000Y1364300D01*
X1085020Y1364300D01*
X1085020Y1369100D02*
X1092000Y1369100D01*
D16*
X1155340Y1422320D03*
X1155340Y1412320D03*
X1173840Y1412320D03*
X1173840Y1422320D03*
D17*
X1164590Y1417320D03*
D14*
X1173090Y1468120D03*
X1156090Y1468120D03*
X1173090Y1485900D03*
X1156090Y1485900D03*
X1156090Y1438910D03*
X1173090Y1438910D03*
D18*
X1097280Y1332357D03*
X1097280Y1321943D03*
D10*
X1061720Y1320800D03*
X1264920Y1320800D03*
D19*
X1125220Y1308100D03*
X1150620Y1308100D03*
X1176020Y1308100D03*
X1201420Y1308100D03*
D10*
X25400Y1783080D03*
X228600Y1783080D03*
D11*
X245110Y1563370D03*
X7620Y1800860D03*
D12*
X14050Y1709480D03*
X14050Y1653480D03*
D13*
X50800Y1696480D03*
X50800Y1686480D03*
X50800Y1676480D03*
X50800Y1666480D03*
D12*
X239950Y1653480D03*
X239950Y1709480D03*
D13*
X203200Y1666480D03*
X203200Y1676480D03*
X203200Y1686480D03*
X203200Y1696480D03*
D14*
X52460Y1610360D03*
X69460Y1610360D03*
D15*
X66240Y1623380D02*
X66240Y1630360D01*
X73220Y1630360D01*
X73220Y1623380D01*
X66240Y1623380D01*
X66240Y1628180D02*
X73220Y1628180D01*
X48700Y1630360D02*
X48700Y1623380D01*
X48700Y1630360D02*
X55680Y1630360D01*
X55680Y1623380D01*
X48700Y1623380D01*
X48700Y1628180D02*
X55680Y1628180D01*
D16*
X119020Y1681400D03*
X119020Y1671400D03*
X137520Y1671400D03*
X137520Y1681400D03*
D17*
X128270Y1676400D03*
D14*
X136770Y1727200D03*
X119770Y1727200D03*
X136770Y1744980D03*
X119770Y1744980D03*
X119770Y1697990D03*
X136770Y1697990D03*
D18*
X60960Y1591437D03*
X60960Y1581023D03*
D10*
X25400Y1579880D03*
X228600Y1579880D03*
D19*
X88900Y1567180D03*
X114300Y1567180D03*
X139700Y1567180D03*
X165100Y1567180D03*
D10*
X284480Y1783080D03*
X487680Y1783080D03*
D11*
X504190Y1563370D03*
X266700Y1800860D03*
D12*
X273130Y1709480D03*
X273130Y1653480D03*
D13*
X309880Y1696480D03*
X309880Y1686480D03*
X309880Y1676480D03*
X309880Y1666480D03*
D12*
X499030Y1653480D03*
X499030Y1709480D03*
D13*
X462280Y1666480D03*
X462280Y1676480D03*
X462280Y1686480D03*
X462280Y1696480D03*
D14*
X311540Y1610360D03*
X328540Y1610360D03*
D15*
X325320Y1623380D02*
X325320Y1630360D01*
X332300Y1630360D01*
X332300Y1623380D01*
X325320Y1623380D01*
X325320Y1628180D02*
X332300Y1628180D01*
X307780Y1630360D02*
X307780Y1623380D01*
X307780Y1630360D02*
X314760Y1630360D01*
X314760Y1623380D01*
X307780Y1623380D01*
X307780Y1628180D02*
X314760Y1628180D01*
D16*
X378100Y1681400D03*
X378100Y1671400D03*
X396600Y1671400D03*
X396600Y1681400D03*
D17*
X387350Y1676400D03*
D14*
X395850Y1727200D03*
X378850Y1727200D03*
X395850Y1744980D03*
X378850Y1744980D03*
X378850Y1697990D03*
X395850Y1697990D03*
D18*
X320040Y1591437D03*
X320040Y1581023D03*
D10*
X284480Y1579880D03*
X487680Y1579880D03*
D19*
X347980Y1567180D03*
X373380Y1567180D03*
X398780Y1567180D03*
X424180Y1567180D03*
D10*
X543560Y1783080D03*
X746760Y1783080D03*
D11*
X763270Y1563370D03*
X525780Y1800860D03*
D12*
X532210Y1709480D03*
X532210Y1653480D03*
D13*
X568960Y1696480D03*
X568960Y1686480D03*
X568960Y1676480D03*
X568960Y1666480D03*
D12*
X758110Y1653480D03*
X758110Y1709480D03*
D13*
X721360Y1666480D03*
X721360Y1676480D03*
X721360Y1686480D03*
X721360Y1696480D03*
D14*
X570620Y1610360D03*
X587620Y1610360D03*
D15*
X584400Y1623380D02*
X584400Y1630360D01*
X591380Y1630360D01*
X591380Y1623380D01*
X584400Y1623380D01*
X584400Y1628180D02*
X591380Y1628180D01*
X566860Y1630360D02*
X566860Y1623380D01*
X566860Y1630360D02*
X573840Y1630360D01*
X573840Y1623380D01*
X566860Y1623380D01*
X566860Y1628180D02*
X573840Y1628180D01*
D16*
X637180Y1681400D03*
X637180Y1671400D03*
X655680Y1671400D03*
X655680Y1681400D03*
D17*
X646430Y1676400D03*
D14*
X654930Y1727200D03*
X637930Y1727200D03*
X654930Y1744980D03*
X637930Y1744980D03*
X637930Y1697990D03*
X654930Y1697990D03*
D18*
X579120Y1591437D03*
X579120Y1581023D03*
D10*
X543560Y1579880D03*
X746760Y1579880D03*
D19*
X607060Y1567180D03*
X632460Y1567180D03*
X657860Y1567180D03*
X683260Y1567180D03*
D10*
X802640Y1783080D03*
X1005840Y1783080D03*
D11*
X1022350Y1563370D03*
X784860Y1800860D03*
D12*
X791290Y1709480D03*
X791290Y1653480D03*
D13*
X828040Y1696480D03*
X828040Y1686480D03*
X828040Y1676480D03*
X828040Y1666480D03*
D12*
X1017190Y1653480D03*
X1017190Y1709480D03*
D13*
X980440Y1666480D03*
X980440Y1676480D03*
X980440Y1686480D03*
X980440Y1696480D03*
D14*
X829700Y1610360D03*
X846700Y1610360D03*
D15*
X843480Y1623380D02*
X843480Y1630360D01*
X850460Y1630360D01*
X850460Y1623380D01*
X843480Y1623380D01*
X843480Y1628180D02*
X850460Y1628180D01*
X825940Y1630360D02*
X825940Y1623380D01*
X825940Y1630360D02*
X832920Y1630360D01*
X832920Y1623380D01*
X825940Y1623380D01*
X825940Y1628180D02*
X832920Y1628180D01*
D16*
X896260Y1681400D03*
X896260Y1671400D03*
X914760Y1671400D03*
X914760Y1681400D03*
D17*
X905510Y1676400D03*
D14*
X914010Y1727200D03*
X897010Y1727200D03*
X914010Y1744980D03*
X897010Y1744980D03*
X897010Y1697990D03*
X914010Y1697990D03*
D18*
X838200Y1591437D03*
X838200Y1581023D03*
D10*
X802640Y1579880D03*
X1005840Y1579880D03*
D19*
X866140Y1567180D03*
X891540Y1567180D03*
X916940Y1567180D03*
X942340Y1567180D03*
D10*
X1061720Y1783080D03*
X1264920Y1783080D03*
D11*
X1281430Y1563370D03*
X1043940Y1800860D03*
D12*
X1050370Y1709480D03*
X1050370Y1653480D03*
D13*
X1087120Y1696480D03*
X1087120Y1686480D03*
X1087120Y1676480D03*
X1087120Y1666480D03*
D12*
X1276270Y1653480D03*
X1276270Y1709480D03*
D13*
X1239520Y1666480D03*
X1239520Y1676480D03*
X1239520Y1686480D03*
X1239520Y1696480D03*
D14*
X1088780Y1610360D03*
X1105780Y1610360D03*
D15*
X1102560Y1623380D02*
X1102560Y1630360D01*
X1109540Y1630360D01*
X1109540Y1623380D01*
X1102560Y1623380D01*
X1102560Y1628180D02*
X1109540Y1628180D01*
X1085020Y1630360D02*
X1085020Y1623380D01*
X1085020Y1630360D02*
X1092000Y1630360D01*
X1092000Y1623380D01*
X1085020Y1623380D01*
X1085020Y1628180D02*
X1092000Y1628180D01*
D16*
X1155340Y1681400D03*
X1155340Y1671400D03*
X1173840Y1671400D03*
X1173840Y1681400D03*
D17*
X1164590Y1676400D03*
D14*
X1173090Y1727200D03*
X1156090Y1727200D03*
X1173090Y1744980D03*
X1156090Y1744980D03*
X1156090Y1697990D03*
X1173090Y1697990D03*
D18*
X1097280Y1591437D03*
X1097280Y1581023D03*
D10*
X1061720Y1579880D03*
X1264920Y1579880D03*
D19*
X1125220Y1567180D03*
X1150620Y1567180D03*
X1176020Y1567180D03*
X1201420Y1567180D03*
D20*
X68580Y1829435D03*
X1221105Y1829435D03*
D21*
X59525Y-20955D02*
X59528Y-20733D01*
X59536Y-20511D01*
X59550Y-20289D01*
X59569Y-20067D01*
X59593Y-19847D01*
X59623Y-19626D01*
X59658Y-19407D01*
X59699Y-19188D01*
X59745Y-18971D01*
X59796Y-18755D01*
X59853Y-18540D01*
X59915Y-18326D01*
X59982Y-18115D01*
X60054Y-17904D01*
X60132Y-17696D01*
X60214Y-17490D01*
X60302Y-17286D01*
X60394Y-17083D01*
X60492Y-16884D01*
X60594Y-16687D01*
X60701Y-16492D01*
X60813Y-16300D01*
X60930Y-16111D01*
X61051Y-15924D01*
X61177Y-15741D01*
X61307Y-15561D01*
X61442Y-15384D01*
X61580Y-15211D01*
X61723Y-15041D01*
X61871Y-14874D01*
X62022Y-14711D01*
X62177Y-14552D01*
X62336Y-14397D01*
X62499Y-14246D01*
X62666Y-14098D01*
X62836Y-13955D01*
X63009Y-13817D01*
X63186Y-13682D01*
X63366Y-13552D01*
X63549Y-13426D01*
X63736Y-13305D01*
X63925Y-13188D01*
X64117Y-13076D01*
X64312Y-12969D01*
X64509Y-12867D01*
X64708Y-12769D01*
X64911Y-12677D01*
X65115Y-12589D01*
X65321Y-12507D01*
X65529Y-12429D01*
X65740Y-12357D01*
X65951Y-12290D01*
X66165Y-12228D01*
X66380Y-12171D01*
X66596Y-12120D01*
X66813Y-12074D01*
X67032Y-12033D01*
X67251Y-11998D01*
X67472Y-11968D01*
X67692Y-11944D01*
X67914Y-11925D01*
X68136Y-11911D01*
X68358Y-11903D01*
X68580Y-11900D01*
X68802Y-11903D01*
X69024Y-11911D01*
X69246Y-11925D01*
X69468Y-11944D01*
X69688Y-11968D01*
X69909Y-11998D01*
X70128Y-12033D01*
X70347Y-12074D01*
X70564Y-12120D01*
X70780Y-12171D01*
X70995Y-12228D01*
X71209Y-12290D01*
X71420Y-12357D01*
X71631Y-12429D01*
X71839Y-12507D01*
X72045Y-12589D01*
X72249Y-12677D01*
X72452Y-12769D01*
X72651Y-12867D01*
X72848Y-12969D01*
X73043Y-13076D01*
X73235Y-13188D01*
X73424Y-13305D01*
X73611Y-13426D01*
X73794Y-13552D01*
X73974Y-13682D01*
X74151Y-13817D01*
X74324Y-13955D01*
X74494Y-14098D01*
X74661Y-14246D01*
X74824Y-14397D01*
X74983Y-14552D01*
X75138Y-14711D01*
X75289Y-14874D01*
X75437Y-15041D01*
X75580Y-15211D01*
X75718Y-15384D01*
X75853Y-15561D01*
X75983Y-15741D01*
X76109Y-15924D01*
X76230Y-16111D01*
X76347Y-16300D01*
X76459Y-16492D01*
X76566Y-16687D01*
X76668Y-16884D01*
X76766Y-17083D01*
X76858Y-17286D01*
X76946Y-17490D01*
X77028Y-17696D01*
X77106Y-17904D01*
X77178Y-18115D01*
X77245Y-18326D01*
X77307Y-18540D01*
X77364Y-18755D01*
X77415Y-18971D01*
X77461Y-19188D01*
X77502Y-19407D01*
X77537Y-19626D01*
X77567Y-19847D01*
X77591Y-20067D01*
X77610Y-20289D01*
X77624Y-20511D01*
X77632Y-20733D01*
X77635Y-20955D01*
X77632Y-21177D01*
X77624Y-21399D01*
X77610Y-21621D01*
X77591Y-21843D01*
X77567Y-22063D01*
X77537Y-22284D01*
X77502Y-22503D01*
X77461Y-22722D01*
X77415Y-22939D01*
X77364Y-23155D01*
X77307Y-23370D01*
X77245Y-23584D01*
X77178Y-23795D01*
X77106Y-24006D01*
X77028Y-24214D01*
X76946Y-24420D01*
X76858Y-24624D01*
X76766Y-24827D01*
X76668Y-25026D01*
X76566Y-25223D01*
X76459Y-25418D01*
X76347Y-25610D01*
X76230Y-25799D01*
X76109Y-25986D01*
X75983Y-26169D01*
X75853Y-26349D01*
X75718Y-26526D01*
X75580Y-26699D01*
X75437Y-26869D01*
X75289Y-27036D01*
X75138Y-27199D01*
X74983Y-27358D01*
X74824Y-27513D01*
X74661Y-27664D01*
X74494Y-27812D01*
X74324Y-27955D01*
X74151Y-28093D01*
X73974Y-28228D01*
X73794Y-28358D01*
X73611Y-28484D01*
X73424Y-28605D01*
X73235Y-28722D01*
X73043Y-28834D01*
X72848Y-28941D01*
X72651Y-29043D01*
X72452Y-29141D01*
X72249Y-29233D01*
X72045Y-29321D01*
X71839Y-29403D01*
X71631Y-29481D01*
X71420Y-29553D01*
X71209Y-29620D01*
X70995Y-29682D01*
X70780Y-29739D01*
X70564Y-29790D01*
X70347Y-29836D01*
X70128Y-29877D01*
X69909Y-29912D01*
X69688Y-29942D01*
X69468Y-29966D01*
X69246Y-29985D01*
X69024Y-29999D01*
X68802Y-30007D01*
X68580Y-30010D01*
X68358Y-30007D01*
X68136Y-29999D01*
X67914Y-29985D01*
X67692Y-29966D01*
X67472Y-29942D01*
X67251Y-29912D01*
X67032Y-29877D01*
X66813Y-29836D01*
X66596Y-29790D01*
X66380Y-29739D01*
X66165Y-29682D01*
X65951Y-29620D01*
X65740Y-29553D01*
X65529Y-29481D01*
X65321Y-29403D01*
X65115Y-29321D01*
X64911Y-29233D01*
X64708Y-29141D01*
X64509Y-29043D01*
X64312Y-28941D01*
X64117Y-28834D01*
X63925Y-28722D01*
X63736Y-28605D01*
X63549Y-28484D01*
X63366Y-28358D01*
X63186Y-28228D01*
X63009Y-28093D01*
X62836Y-27955D01*
X62666Y-27812D01*
X62499Y-27664D01*
X62336Y-27513D01*
X62177Y-27358D01*
X62022Y-27199D01*
X61871Y-27036D01*
X61723Y-26869D01*
X61580Y-26699D01*
X61442Y-26526D01*
X61307Y-26349D01*
X61177Y-26169D01*
X61051Y-25986D01*
X60930Y-25799D01*
X60813Y-25610D01*
X60701Y-25418D01*
X60594Y-25223D01*
X60492Y-25026D01*
X60394Y-24827D01*
X60302Y-24624D01*
X60214Y-24420D01*
X60132Y-24214D01*
X60054Y-24006D01*
X59982Y-23795D01*
X59915Y-23584D01*
X59853Y-23370D01*
X59796Y-23155D01*
X59745Y-22939D01*
X59699Y-22722D01*
X59658Y-22503D01*
X59623Y-22284D01*
X59593Y-22063D01*
X59569Y-21843D01*
X59550Y-21621D01*
X59536Y-21399D01*
X59528Y-21177D01*
X59525Y-20955D01*
D22*
X68580Y-20955D03*
M02*
